<mxfile host="app.diagrams.net" modified="2023-11-17T12:42:21.729Z" agent="Mozilla/5.0 (Macintosh; Intel Mac OS X 10_15_7) AppleWebKit/537.36 (KHTML, like Gecko) Chrome/118.0.0.0 Safari/537.36" etag="N7gaNYBcevA9KWdMJ9pV" version="22.1.2" type="device">
  <diagram name="Page-1" id="Fwnt3c8Lg7bX71baX2EC">
    <mxGraphModel dx="2735" dy="1220" grid="1" gridSize="10" guides="1" tooltips="1" connect="1" arrows="1" fold="1" page="1" pageScale="1" pageWidth="827" pageHeight="1169" math="0" shadow="0">
      <root>
        <mxCell id="0" />
        <mxCell id="1" parent="0" />
        <mxCell id="qfLVp3hcmB_TP_o0iOq1-6" value="&lt;font style=&quot;font-size: 22px;&quot;&gt;Bubble&lt;/font&gt;" style="rounded=0;whiteSpace=wrap;html=1;fillColor=#D5E8D4;strokeColor=default;align=center;" parent="1" vertex="1">
          <mxGeometry y="110" width="440" height="90" as="geometry" />
        </mxCell>
        <mxCell id="qZVZ4k8KD6UxJKRXK_x_-1" value="&lt;font style=&quot;font-size: 14px;&quot;&gt;DT1 Assignment: Architecture (Nadine Caterina Lehmann)&lt;/font&gt;" style="rounded=0;whiteSpace=wrap;html=1;fillColor=#E6E6E6;align=left;strokeColor=default;strokeWidth=2;" vertex="1" parent="1">
          <mxGeometry y="23" width="560" height="47" as="geometry" />
        </mxCell>
        <mxCell id="qZVZ4k8KD6UxJKRXK_x_-3" value="" style="endArrow=classic;html=1;rounded=0;strokeWidth=2;" edge="1" parent="1">
          <mxGeometry width="50" height="50" relative="1" as="geometry">
            <mxPoint x="160" y="200" as="sourcePoint" />
            <mxPoint x="160" y="300" as="targetPoint" />
          </mxGeometry>
        </mxCell>
        <mxCell id="qZVZ4k8KD6UxJKRXK_x_-5" value="&lt;font style=&quot;font-size: 16px;&quot;&gt;Cloud Firewall Rules&lt;/font&gt;" style="rounded=0;whiteSpace=wrap;html=1;align=left;" vertex="1" parent="1">
          <mxGeometry x="80" y="310" width="160" height="70" as="geometry" />
        </mxCell>
        <mxCell id="qZVZ4k8KD6UxJKRXK_x_-11" value="&lt;font style=&quot;font-size: 14px;&quot;&gt;HTTP Get Request&lt;/font&gt;" style="text;html=1;align=center;verticalAlign=middle;resizable=0;points=[];autosize=1;strokeColor=none;fillColor=none;" vertex="1" parent="1">
          <mxGeometry x="25" y="220" width="140" height="30" as="geometry" />
        </mxCell>
        <mxCell id="qZVZ4k8KD6UxJKRXK_x_-14" value="" style="shape=image;verticalLabelPosition=bottom;labelBackgroundColor=default;verticalAlign=top;aspect=fixed;imageAspect=0;image=data:image/png,iVBORw0KGgoAAAANSUhEUgAAA6UAAAPtCAYAAAB2KslHAAAACXBIWXMAABYlAAAWJQFJUiTwAAAgAElEQVR4nOzdy3UbWZaw0ZO9ak79FpA9ukOyLBDKAqksENKCVFmQLAuKaUFCFhRlQUIWNDW8owYtaNEC/QMESxCTFAkgIk489l5LSw++TveqZPDDjbj3p69fvwYAAABk+K/sAQAAAJivv2QPABlKKYuI+CN7DgbnU611kT0EAMCcWCkFAAAgjSgFAAAgjSgFAAAgjSgFAAAgjSgFAAAgjSgFAAAgjSgFAAAgjSgFAAAgjSgFAAAgjSgFAAAgjSgFAAAgjSgFAAAgjSgFAAAgjSgFAAAgjSgFAAAgjSgFAAAgjSgFAAAgjSgFAAAgjSgFAAAgjSgFAAAgjSgFAAAgjSgFAAAgjSgFAAAgjSgFAAAgjSgFAAAgjSgFAAAgjSgFAAAgjSgFAAAgjSgFAAAgjSgFAAAgjSgFAAAgjSgFAAAgjSgFAAAgjSgFAAAgjSgFAAAgjSgFAAAgjSgFAAAgjSgFAAAgjSgFAAAgjSgFAAAgjSgFAAAgjSgFAAAgjSgFAAAgjSgFAAAgjSgFAAAgjSgFAAAgjSgFAAAgjSgFAAAgjSgFAAAgjSgFAAAgjSgFAAAgjSgFAAAgjSgFAAAgjSgFAAAgjSgFAAAgjSgFAAAgjSgFAAAgjSgFAAAgjSgFAAAgjSgFAAAgjSgFAAAgjSgFAAAgjSgFAAAgjSgFAAAgjSgFAAAgjSgFAAAgjSgFAAAgjSgFAAAgjSgFAAAgjSgFAAAgjSgFAAAgjSgFAAAgjSgFAAAgjSgFAAAgjSgFAAAgjSgFAAAgjSgFAAAgjSgFAAAgjSgFAAAgjSgFAAAgjSgFAAAgjSgFAAAgjSgFAAAgjSgFAAAgjSgFAAAgjSgFAAAgjSgFAAAgjSgFAAAgjSgFAAAgjSgFAAAgjSgFAAAgjSgFAAAgjSgFAAAgjSgFAAAgjSgFAAAgjSgFAAAgjSgFAAAgjSgFAAAgjSgFAAAgjSgFAAAgjSgFAAAgjSgFAAAgjSgFAAAgjSgFAAAgjSgFAAAgjSgFAAAgjSgFAAAgjSgFAAAgjSgFAAAgjSgFAAAgjSgFAAAgjSgFAAAgjSgFAAAgjSgFAAAgjSgFAAAgjSgFAAAgjSgFAAAgjSgFAAAgjSgFAAAgjSgFAAAgjSgFAAAgjSgFAAAgjSgFAAAgjSgFAAAgjSgFAAAgjSgFAAAgjSgFAAAgjSgFAAAgjSgFAAAgjSgFAAAgjSgFAAAgjSgFAAAgjSgFAAAgjSgFAAAgjSgFAAAgjSgFAAAgjSgFAAAgjSgFAAAgjSgFAAAgjSgFAAAgjSgFAAAgjSgFAAAgjSgFAAAgjSgFAAAgjSgFAAAgjSgFAAAgjSgFAAAgjSgFAAAgjSgFAAAgjSgFAAAgjSgFAAAgjSgFAAAgjSgFAAAgjSgFAAAgjSgFAAAgjSgFAAAgjSgFAAAgjSgFAAAgjSgFAAAgjSgFAAAgjSgFAAAgjSgFAAAgjSgFAAAgjSgFAAAgjSgFAAAgjSgFAAAgjSgFAAAgjSgFAAAgjSgFAAAgjSgFAAAgjSgFAAAgjSgFAAAgjSgFAAAgjSgFAAAgjSgFAAAgjSgFAAAgjSgFAAAgjSgFAAAgjSgFAAAgjSgFAAAgjSgFAAAgjSgFAAAgjSgFAAAgjSgFAAAgjSgFAAAgjSgFAAAgjSgFAAAgjSgFAAAgjSgFAAAgjSgFAAAgjSgFAAAgjSgFAAAgjSgFAAAgjSgFAAAgjSgFAAAgjSgFAAAgjSgFAAAgjSgFAAAgjSgFAAAgjSgFAAAgjSgFAAAgjSgFAAAgjSgFAAAgjSgFAAAgjSgFAAAgjSgFAAAgjSgFAAAgjSgFAAAgjSgFAAAgjSgFAAAgjSgFAAAgjSgFAAAgjSgFAAAgjSgFAAAgjSgFAAAgjSgFAAAgjSgFAAAgjSgFAAAgjSgFAAAgjSgFAAAgjSgFAAAgjSgFAAAgjSgFAAAgjSgFAAAgjSgFAAAgjSgFAAAgjSgFAAAgjSgFAAAgjSgFAAAgjSgFAAAgjSgFAAAgjSgFAAAgjSgFAAAgjSgFAAAgjSgFAAAgjSgFAAAgjSgFAAAgjSgFAAAgjSgFAAAgjSgFAAAgjSgFAAAgjSgFAAAgjSgFAAAgjSgFAAAgjSgFAAAgjSgFAAAgjSgFAAAgjSgFAAAgjSgFAAAgjSgFAAAgjSgFAAAgjSgFAAAgjSgFAAAgjSgFAAAgjSgFAAAgjSgFAAAgjSgFAAAgjSgFAAAgzV+yBwAA2Fcp5VVEXLT8aTe11k3LnxOAZ4hSAKBXD4LyYVxeNP8WO28/72m0KKU89abPEfHlwb+td/78JSJudv5+U2t9+P4APEKUAgCteBCbi+b3s+ZXRMTrfidq1WNh/MP/e3YCdzdo183vm+bXl1rrbswCzI4oBQBerJRyv5K5iG+rnL2uZo7Q7v9v/hSyO/H6qfn9Jr6tvH4Jq67AxIlSAOA7OyueF7Fd5bz//TRvqll4/eD3/2jC9VN8i9VN80uwAqMnSgFgxkopi/g+Pi8i4iRxJJ52H6tvdv+xlHIX34fqOmzaBIyIKAWAGdhZ/VzEt/i08jkNJ7EN1vto/TXiu9XV+2C9qbWu+x8P4MdEKQBM0M4K6P3vAnSedmP1PlRvYxuqN7FdVXULMJBKlALAyJVSzuJbfC7CpkP82Gnz6018W1W9D9V1WFEFeiZKAWBkmh1w7wN0EVZBOd5uqN6vqH6OJlIjYu0ZVaArohQABm5nJfRt87uNiOjDeeysuj9YTV07XxVoiygFgIFpNiW6D9BFWAllGB6upt5FE6ghUoEjiFIAGIBmY6JFbGPUM6GMwUlsA/WxSL12uy/wUqIUABI8WA19G27JZfx2I/Vfze2+64i4ju1Kqh1+gUeJUgDoSfNs6NuIWIbVUKbvNCLeNb+ilPI5toF67VZfYJcoBYAONTvlLmMbo54NZc7uN076tbnV9zqsogIhSgGgdUIUnnUS36+ifgzPosJsiVIAaIEQhaPsPov6OSJWIVBhNkQpAByoeUb0fQhRaNN5RPwrvm2WdB0RK8+hwnSJUgDYg82KoFenEfFLRPwiUGG6RCkAvEApZRnbGH2TPArM1W6gusUXJkSUAsATmudE72/PdY4oDMfuLb73gbqyiy+MkygFgB2llFexvTV3GW7PhTHYDdSPsV09XeWOBOxDlAJARJRSFrEN0Xe5kwBHeBMRb0opV7F9/vTK86cwfKIUgNlqVkXfRsRl2D0XpuQ/56A2GyRdhdt7YbD+K3sAAOhbKeWslLKKiE1E/B6CFKbsNLa39/5fKWVVSnmbPRDwPSulAMxG88Po+4h4nT0LkGJ39XQV29XTTepEgCgFYNp2Ni56H1ZEga3TiPg1In4tpXyIbZyuc0eC+RKlAExSKeUstiG6DMe5AE/bXT29jO3uvZ49hR55phSASSmlXDTPi/5vRPwSghR4mdPYPmO+KaVcNS9sAT0QpQBMQillUUpZR8T/hGNdgMOdxPYFrf8tpVw3x0UBHXL7LgCjVkpZxvYWXZsXAW27P/f0NiIua62r5HlgkkQpAKPUxOhl2LwI6N5pRPxeSrmM7a69V547hfa4fReAUSmlLEspm3C+KNC/+117PXcKLRKlAIyCGAUGZPe505U4heOIUgAGTYwCA/cuvsXpInsYGCNRCsAgiVFgZN5FxB+llLU4hf3Y6AiAQWl+mLuKiPPkUQAO8Tq2cfoptjv2rpPngcGzUgrAIOycM/pHCFJg/O7j1MopPMNKKQCpmg1CrmJ7HiDA1Fg5hWeIUgBSlFJexTZG32XPAtCD3Th9X2u9yR4IhkKUAtCrJkbfN79OkscB6NvriPifUsqH2K6cbpLngXSeKQWgN6WUZUTcxPbweUEKzNnuUTJn2cNAJlEKQOd2NjFyvAvA995FxE0p5bK5kwRmR5QC0JlSylkpZRXbHXVfJ48DMFQnsb2DZFNKeZ89DPRNlALQiVLKZWxv1bWREcDLnETEv0opm1LK2+xhoC82OgKgVc15fKtwmy7AoU4j4t+OkWEurJQC0IrmVt3r2N6qK0gBjnd/jIzNkJg0UQrA0ZpnoG4i4k32LAAT9J/NkLIHgS6IUgAO1uyqexMR/wpHvAB06SQifvW8KVPkmVIA9tYcW3AZEb8kjwIwN7vPmy5rrZvkeeBoVkoB2EvzCv1NCFKATK8j4n+db8oUiFIAXqSU8qrZyOjfYSMjgKH4NbbPm7qll9ESpQA8q/lhZxM2MgIYovtbeq/t0ssYiVIAntQc87KO7eqojYwAhu1NbFdN32cPAvsQpQA8aueYl9fZswDwYicR8a9Syk0p5SJ7GHgJu+8C8J1mw4xVuFUXYMzOI+J/Sin/jIirWuuX7IHgKVZKAfgPz44CTM79RkiL7EHgKaIUgIc763p2FGBaTiPij1LKleNjGCJRCjBzzavnm7A6CjB1v4RVUwZIlALMWCnlKiL+CKujAHNh1ZTBEaUAM1RKuSil3MT2VXMA5seqKYMhSgFmpjnqZR3bnRkBmC+rpgyCKAWYiZ3NjP4VbtcF4Jv7VVPnmpJClALMQHN71k3YzAiAx53G9lzTy+xBmB9RCjBxzQ8Yf8T2Bw4A+JFfSyk3pZSz7EGYD1EKMFHN7brr2B6cDgAvdR7b23mX2YMwD6IUYIKa54I2EfE6eRQAxukkIn4vpVzbBImuiVKAiWl21/2fsJkRAMd7EzZBomOiFGAiHuyuCwBtsQkSnRKlABPQvIK9DrvrAtCdX0spa7fz0jZRCjByzUYU69huTAEAXXodEZvmqDFohSgFGLFSylVE/B6eHwWgPycR8YfbeWnLX7IHAGB/za1T12F3XQDy/NqsmL6ttX7JHobxslIKMDLN86M3IUgByPc67M7LkUQpwIiUUt7G9vnR0+RRAODe/e68y+xBGCdRCjASzbM7/w7PjwIwTL+XUlZ252VfohRg4JrzR1cR8Wv2LADwjHcRsS6lnGUPwniIUoABa15tXsf2Ig8AY3Ae2+dMF9mDMA6iFGCgdjY0cv4oAGNzf2zMMnsQhk+UAgxQ8+ryOmxoBMC4/d48ggJPEqUAA9O8qvxH2NAIgGl4V0q5sQESTxGlAANSSrmKiN+z5wCAlt0/Z+o8U/5ElAIMRHN70y/ZcwBAR05juzPv2+xBGBZRCpCsOfLlJuywC8D0nUTEv0sp77MHYThEKUCinSNf7LALwJz8ywZI3BOlAEma52o2IUgBmKd3pZS1DZAQpQAJmiBdhx12AZi317F9zlSYzpgoBehZs8HDOgQpAERs7xja2Jl3vkQpQI+aM0j/HYIUAHadxHbFdJE9CP0TpQA9aYLUGaQA8LiTiPijuV4yI6IUoAfN1veCFACe97sjY+ZFlAJ0rNny/l/ZcwDAiDgyZkZEKUCHmgvqu+w5AGCE3gnTeRClAB0RpABwtHellGtHxkybKAXogCAFgNa8CWeZTpooBWiZIAWA1p2HMJ0sUQrQIkEKAJ0RphMlSgFaIkgBoHPnEXFTSrnIHoT2iFKAFghSAOjNaWxXTIXpRIhSgCMJUgDo3UkI08kQpQBHEKQAkEaYToQoBTiQIAWAdMJ0AkQpwAEEKQAMhjAdOVEKsCdBCgCDI0xHTJQC7EGQAsBgCdOREqUALyRIAWDwhOkIiVKAFyilXIYgBYAxEKYjI0oBnlFKWUbEr9lzAAAvJkxHRJQC/EATpL9nzwEA7E2YjoQoBXiCIAWA0bsP07PsQXiaKAV4RPOq6lX2HADA0U4i4rqU8ip7EB4nSgEeaIJ0HduLGAAwfuexXTEVpgMkSgF2NLf3rEOQAsDUCNOBEqUA37yKiOsQpAAwVeexffGZARGlAN+cN78AgOk6L6WssofgG1EKAADMzTthOhyiFAAAmKN3pRQ77Q+AKAUAAObql+ZcchKJUgAAYM5+F6a5RCkAADB3V8055SQQpQAAwNydxPYMU2GaQJQCAABsw3RVSnmVPcjciFIAAICt89iumArTHolSAACAb84jwlExPRKlAAAA33OGaY9EKQAAwJ85w7QnohQAAOBxv9uRt3uiFAAA4GmOiumYKAUAAHiao2I6JkoBAAB+7DwiVtlDTJUoBQAAeN4bO/J2Q5QCAAC8jB15OyBKAQAAXu7KxkftEqUAAAAvdxIR1zY+ao8oBQAA2M9pRFxnDzEVohQAAGB/r2181A5RCgAAcJhfSilvs4cYO1EKAABwuJWNj44jSgEAAA53EtswtfHRgUQpAADAcc4jwvOlBxKlAAAAx3tXSllmDzFGohQAAKAdv3u+dH9/yR4AACAi7iLi5om3rff4PK8i4qkfCC9i++wXQJeuSykXtdYv2YOMhSgFALrwOSK+NL/uY3PT/IqI+FJrfSpCe9GsZtxvTHLW/IrYxuur5u+nfc8FjN5pRKwiwlExL/TT169fs2eA3pVSFhHxR/YcACN2G9vAvIlteK6bf7+Z2upAs6Pmfaju/n4WohV42s+11lX2EGMgSpklUQrwYp/i2wrnOgawwjk0zYrrWWxD9f7P54kjAcNwFxEL3zOfJ0qZJVEK8Cf3z3Sum983fpA6zoNYXYRnWmGOPsc2TCd1B0nbPFMKAPP0Kb4F6E2tdZM6zQQ1UX8TEdf3/1ZKOYtvK6qLiHidMRvQm/OIuIyI98lzDJqVUmbJSikwM7fxbRV0bQV0WJoV1cXOL6upMD1/r7VeP/9u8yRKmSVRCkzcbTQBGtsI3WQOw36a1dRF8+ttiFSYgruIOHMb7+NEKbMkSoEJ+hhWQifpwUrqm9RhgGN8qrUusocYIlHKLIlSYAJuY/us4nWtdZ08Cz0qpbyNb6uojqSBcflHrfUqe4ihEaXMkigFRupTfAvRTfIsDEBzq+/biFiGY2hgDBwT8whRyiyJUmBEPsa3EPUsEk8qpbyKbaC+Dbf5wpB9rrVeZA8xJKKUWRKlwMAJUY4iUGHw/llrvcweYihEKbMkSoEB+hQRqxCitKwJ1GW4xReG5q9u490SpcySKAUG4jYirsIzovSkeQZ12fyySRLk+hzb50tn/0KkKGWWRCmQ6C62t+ZeeYWcTM21cBnOQoVMv9Va32cPkU2UMkuiFEjwOb6tis7+VXGGY+f50/fh9l7I8Le5H+0lSpklUQr0xKooo1JKuYhtnL7LngVm5DYiLub8guV/ZQ8AABN0GxH/iIizWutSkDIWtdabWusyIv5fbP83fJs7EczCaURcZg+RyUops2SlFOjIp9iuil5nDwJtKaXc39r7OnsWmLjZ7sZrpRQAjvchIv671roQpExNrfW61rqIiL/G9n/rQDdW2QNksVLKLFkpBVpwF9uNi1aOc2FOmmNl3sd251679kK7/llrvcweom+ilFkSpcAR7mP0as6bUkCza+/75pc4hfbM7jZet+8CwMvsbl50KUiZu1rrl2ZF5ywi/hnbF2yA411lD9A3K6XMkpVSYA+3EXFZa11lDwJDZuUUWvWPWuts4lSUMkuiFHiBu9jG6Gx+KIA2iFNoxV1s78yZxV05bt8FgO/dxfZWxDNBCvtzWy+04iRmtBuvlVJmyUop8AgbGEEHmpXTy4j4JXkUGKO/1VrX2UN0TZQyS6IUeOBDbG/V3WQPAlPVHCVzGRHvcieBUbmNiIupv1jq9l0A5uxTbLfeXwpS6FatdVNrXUbE32L73x7wvNPYPp89aVZKmSUrpTB7txHxvtZ6nT0IzFUp5W1sb5k/zZ4FRuC/p/ziqZVSAObkLiL+WWs9E6SQq/lv8CJshgQvscoeoEuiFIC5+BDbHXUvswcBtnZ26r2IiI/J48CQvW7uLpgkt+8yS27fhVn5HNtbddfZgwA/1lyfV+GWXnjMZDc9slIKwFTd36p7IUhhHGqt61rrWWxv6QW+N9lNj0QpAFP0KbavJl9mDwLsr/lv97/DLr3w0PvmeKVJEaUATMldRPy91rqY8i6FMAfNETKLiPhH2AgJ7p3EdtfqSRGlAEzFx9huZGRXXZiQWutVRJyFjZDg3pvm+evJEKUAjN396ujbKW7+APxnl963EfH3sGoKERNbLRWlAIyZ1VGYkea/9bOwagrnpZRl9hBtcSQMs+RIGBi9u4hYilGYr+YH8qvYPmMHczSZI2KslAIwNp/C6ijMXq11FREXYYde5msyR8SIUgDG4i4i/tHsrDv6V4WB4+3s0OtcU+ZqEkfEiFIAxuBzRCyaXTgBvtOca/rX2N7OCHNyEhGX2UMcS5QCMHS/xTZIb7IHAYar+R5xEREfsmeBnr0b+2rpX7IHAIAn2MwI2Etza/+ylLIOmyAxL6uIWCTPcDArpQAM0efY7igoSIG9NZsgLWL7vQTm4HVzusQoiVIAhuZDrfWi1rrJHgQYr+Z23kW4nZf5uMwe4FCiFIChuIuIn2uty+xBgGmotX5pvqf8nD0L9GC0q6WiFIAhuI3tZkar7EGA6Wm+t/w1ti9+wZStsgc4hCgFINun2D4/anddoDPN95iz8Jwp03ZaSllmD7EvUQpApt9qrYtmx0yATjW38zo2hqm7zB5gX6IUgCw/11rfZw8BzI/nTJm40a2WilIA+nYXEX/1/CiQqfke9LfwnCnTdJk9wD5EKQB9uj9/1POjQLpa6zqcZ8o0jWq1VJQC0JdPsd1hd5M9CMC9nfNMhSlTc5k9wEuJUgD68MGGRsBQ2QCJiRrNaqkoBaBr/2w2FQEYtOZ71W/Zc0CLLrMHeAlRCkCXfq61XmYPAfBSza7gduZlKkaxWipKAejCXUT83Q67wBg137uEKVNxmT3Ac0QpAG27i+2GRtfZgwAcqgnTv4YjYxi/wa+WilIA2nQfpI58AUZvZ2deYcrYXWYP8COiFIC23IYgBSZGmDIRg14tFaUAtOFzRFwIUmCKdsL0NnkUOMZl9gBPEaUAHOtzbFdInUEKTFYTphex/Z4HY3RaSllkD/EYUQrAMQQpMBvN97pFCFPG6zJ7gMeIUgAOJUiB2RGmjNzrIa6WilIADiFIgdkSpozc++wBHhKlAOxLkAKzJ0wZsTellLPsIXaJUgD2IUgBGsKUEbvMHmCXKAXgpQQpwAM7Yeq4GMbkXSnlVfYQ90QpAC8hSAGe0HxvfBsRd9mzwB4G82ypKAXgOXcRsRSkAE9rzjFdhDBlPEQpAKNwF9sV0pvsQQCGTpgyMiellGX2EBGiFICnCVKAPe2EKYzBIFZLRSkAT1kKUoD9Nd87f86eA17gvJSyyB5ClALwmJ9rrdfZQwCMVa11FcKUcVhmDyBKAXjoH80PUwAcofle+lv2HPCMd6WUs8wBRCkAuz7UWq+yhwCYilrr+4j4kD0HPGOZ+cVFKQD3PtVal9lDAExN8731c/Yc8AOpGx6JUgAitj8svc0eAmDCFiFMGa7U42FEKQB3EfG21volexCAqWq+xy7DGaYM1zLrC4tSABa11k32EABT1xwV464Uhup1KeUi4wuLUoB5+9lZpAD9qbWuw1ExDFfKs6WiFGC+fnP0C0D/mu+9duRliN6WUl71/UVFKcA8fWqOKQAggR15GaiTSLjFXJQCzM9teKYJYAgWYeMjhqf3F61FKcC82GkXYCCa78WL7DnggfNSylmfX1CUAszLexsbAQxH8z3ZxkcMTa+rpaIUYD4+2NgIYHhsfMQALfv8YqIUYB4+N5tqADBM78PGRwzHSSmlt/0nRCnA9N2FjY0ABq15vnQZNj5iOJZ9fSFRCjB9y1rrJnsIAH6seb7UcV0MxZu+NjwSpQDT9lut9Tp7CABexvOlDEwvd1qJUoDp+lxr9Yo7wPi8j+2Z0pBt2ccXEaUA03QXPe+cB0A7mudL7QXAEJyXUi66/iKiFGCaLp1HCjBezffwf2TPAdHDi9yiFGB6PtZar7KHAOA4zffyT9lzMHudr9qLUoBpcdsuwLQswzEx5Drt+sxSUQowLcvmWSQAJqA50sumdWQTpQC8yEfHvwBMT3NMzMfsOZg1UQrAs9y2CzBty3AbL3lOuryFV5QCTMNbt+0CTFfzPX6ZPQezJkoBeNLHWus6ewgAutU8ouE2XrKIUgAe5bZdgHlZhtt4yXFSSll28YlFKcC42W0XYEaa7/mX2XMwW52slopSgPGy2y7ADNVaryLiU/YczNKbLj6pKAUYp7twbh3AnC2zB2CeutiFV5QCjNNlc6A6ADPUXAP+mT0HsyRKAYjPza1bAMxYrfUyIm6z52B2RCkAbtsF4D+W2QMwOydt38IrSgHG5YMzSQG411wTnF1K30QpwEzZ3AiAx7wPZ5fSL1EKMFOXziQF4KFm0yN7DdCnk1LKRVufTJQCjMOtzY0A+IGrsOkR/Vq29YlEKcA4LLMHAGC4mjtpPOJBn1q7hVeUAgzfJ5sbAfCcWut1RHzKnoPZOC2lnLXxiUQpwPAtswcAYDQuswdgVlpZLRWlAMP2odnAAgCe1dxZ8yF7DmZj0cYnEaUAw+UIGAAOcZk9ALPxppTy6thPIkoBhuvKETAA7Ku5w+a37DmYjcWxn0CUAgzTXThzDoDDXcb2WgJdO/q5UlEKMExWSQE4WHMN8eImfVgc+wlEKcDw3NZaL7OHAGD0rsJqKd07LaVcHPMJRCnA8FxmDwDA+FktpUeLYz5YlAIMy22tdZU9BACTYbWUPiyO+WBRCjAsl9kDADAdVkvpyZtjPliUAgyHVVIAumC1lM6VUhaHfqwoBRiOy+wBAJgeq6X0ZHHoB4pSgGGwSgpAl6yW0rWDzysVpQDDsMoeAIDpslpKD85LKa8O+UBRCpDvLvygAED3rJbStcUhHyRKAfJdNa9gA0BnmmvNKnsOJm1xyAeJUoB8VkkB6ItrDl1aHPJBohQg1werpAD0pda6iYgP2XMwWQc9VypKAXJdZg8AwOxYLaVLi30/QJQC5PnYvGINAL2ptd5ExKfsOZisi30/QJQC5PFKNQBZXIPoymLfDxClADlua63r7IxOq10AACAASURBVCEAmKda63VE3GbPwSS93vcDRClAjsvsAQCYPauldKKUstjn/UUpQP/uIuI6ewgAZm+VPQCTtdjnnUUpQP9WjoEBIFtzLXI8DF3Ya7MjUQrQP7dLATAUrkl0YbHPO4tSgH59cgwMAEPRHA/zOXsOJueklHL20ncWpQD9WmUPAAAPWC2lC4uXvqMoBejPXa11lT0EADxwHdtN+KBNL36uVJQC9MeOuwAMTrPhkWsUbVu89B1FKUB/3B4FwFCtsgdgcs5f+o6iFKAfn5vNJABgcGqt64i4zZ6DaSmlLF7yfqIUoB+r7AEA4Bmr7AGYnBc9VypKAfrhWR0Ahm6VPQCTI0oBBuKjs0kBGLrmWuXMUtokSgEGwiopAGOxyh6ASXnRZkeiFKB7ohSAsVhlD8C0vGSzI1EK0K2PzflvADB4zTXrY/YcTMqzt/CKUoBuWSUFYGxcu2jT2XPvIEoBuuXCDsDYuHbRJiulAIncugvA6LiFl5a9fu4dRClAd7zSDMBYuYbRmlLKD1dLRSlAd1zQARgr1zDadPajN4pSgG64dReA0WquYZ+z52AyrJQCJPAKMwBjt8oegMkQpQAJ1tkDAMCRvMBKW85+9EZRCtC+z7XWTfYQAHCM5lp2mz0Hk3D+ozeKUoD2eWUZgKlwTaMVP9qBV5QCtM8FHICpWGcPwGScPfUGUQrQrrta6032EADQhlqrF1ppi5VSgJ6sswcAgJZ9zB6ASRClAD3xijIAU7POHoBJePXUG0QpQLvW2QMAQMvW2QMwCa+feoMoBWjPraNgAJiaZq+Eu+w5GL9SyqOrpaIUoD3r7AEAoCMeT6ENjz5XKkoB2rPOHgAAOrLOHoBJEKUAHVtnDwAAHVlnD8AkuH0XoEOeJwVgspprnOdKOZaVUoAOrbMHAICOrbMHYPSslAJ0aJ09AAB0bJ09AKP36LEwohSgHevsAQCgY+vsAZgmUQpwvDvPkwIwdc15pXCUUsri4b+JUoDjrbMHAICefMoegOkRpQDH88oxAHOxzh6A0Vs8/AdRCnC8dfYAANATL8TSOlEKcDwXaADmwjWPYy0e/oMoBTjOba31S/YQANCHZmO/u+w5mBZRCnAcrxgDMDeufRzj4uE/iFKA47gwAzA36+wBGLWTh/8gSgGOs84eAAB65gVZjlJKOdv9uygFOM4mewAA6NkmewBG72z3L6IU4HB3zYYPADAbtVYrpbRKlAIczkUZgLn6nD0Ao7bY/YsoBTicKAVgrjbZAzAdohTgcJvsAQAgiRdmOcbZ7l9EKcDhXJABmCvXQI5xtvsXUQpwuE32AACQZJM9ANMhSgEOZOddAObKDrwc6Wz3L6IU4DCfsgcAgGS32QMwWqe7fxGlAADAITbZAzANohTgMOvsAQAgmVt4OVgp5ez+z6IU4DBfsgcAgGSuhRzj7P4PohTgMF4dBmDuXAtphSgFOIxXhwGYO9dCWiFKAQ5gK3wAsFLKURb3fxClAADA3mqtVkpphSgF2J8zSgFgy1mlHE2UAgAAh9pkD8D4iVKA/XmGBgC23MLLoRb3fxClAPtzAQaALS/UcjRRCgAAQBpRCrC/dfYAADAQm+wBGD9RCgAAHGqTPQDjJ0oBAADo2+v7P4hSgD3VWtfZMwDAQNj8j6OJUgAA4CC1VrvvcjRRCgAAQBpRCrCfu+wBAACmRJQC7MdtSgDwPS/YchRRCgAAHMMLthyklPIqQpQCAACQ4yJClAIAAJBIlAIAAJBGlALsx3MzAAAtEqUA+/mSPQAAwJSIUgAA4BjuIuIoohQAADiGu4g4iigFAAAgjSgFAAAgjSgFAAAgjSgFAAAgjSgFAAAgjSgFAAAgjSgFAAAgjSgFAAAgjSgFAAAgjSgFAAAgjSgFAACOscgegHETpQD7eZU9AADAlIhSgP1cZA8AADAlohQAAIA0ohQAAIA0ohQAAIDe1VrXEaKU+fqSPQAAwETYb4GjiFJmqdZ6kz0Do+XCCwDfO8kegHETpQD7ceEFAGiRKAUAACCNKAUAAA5SSvFYC0cTpQB7KqUssmcAgIF4lT0Ao3V3/wdRypzdPf8uAABAB/6z8agoZc7swAsAcJyz7AEYP1EKsL9F9gAAMBBn2QMwfqIUAACANKIUYH82dQCALbvvcqjN/R9EKXPmmVIO5QIMAFteqOVQm/s/iFLm7Ev2AAAAIydKOZooBdjf6+wBAGAgzrMHYPxEKQAAsLdSilVSjuGcUoiIdfYAjFcpxXOlAMydayHH+M+jdKIU4DBeHQYAaIEoBTiMV4cBmLtF9gCMmpVSCEfCcBwrpQDMnWshB6u1eqYUaq2OhOEYVkoBmDvXQlohSgEO49VhAObuLHsARutu9y+ilLn7nD0Ao+WsUgDm7jR7AEbru8foRClz5xZeDlZKOcueAQAyOBqNNolSgMOdZQ8AAEk8xsIxNrt/EaXM3Tp7AEbNq8QAzNUiewBGbbP7F1EKcLiz7AEAIMlZ9gBMhyhl7jbZAzBqVkoBmKuz7AEYtfXuX0Qpc7fJHoBRE6UAzJVd6GmNKGXu7L7LMU7swAvA3Nh5lxY4Egbu1Vpvnn8v+KGz7AEAoGdn2QMwbrXW7xaGRCnAcRbZAwBAz6yUcozbh/8gSiHiU/YAjJoLMwBzs8gegFHbPPwHUQpwHFEKwNy49nGMP+3pIkrhwYPWsKfTUsqr7CEAoA/NBn8n2XMwan/62VuUgh14OZ5XjAGYC9c8jmWlFB5hpZRjLbIHAICeiFKOZaUUHmGllGO5QAMwF4vsARg9K6XwUK11nT0Do7fIHgAAevI6ewDGrdZqpRSgAyfNxg8AMFmlFHcGcaw/nVEaIUrhnrNKOdYiewAA6NgiewBGb/PYP4pS2PJcKcdaZA8AAB1bZA/A6G0e+0dRClt24OVYbmkCYOpc6zjW5rF/FKWwtckegNE7L6W8yh4CALrQ7J1wmj0Ho7d+7B9FKWxtsgdgEhbZAwBARxbZAzAJjz4yJ0phy+27tGGRPQAAdGSRPQDj99hxMBGiFCIiotb6JSLusudg9N5mDwAAHVlkD8DoPXocTIQohV1WSznWqfNKAZia5nxSz5NyrM1TbxCl8I0opQ2L7AEAoGWL7AGYhPVTbxCl8I2zSmnDInsAAGjZInsAJmHz1BtEKXyzzh6ASfBcKQBT8yZ7ACZh89QbRCl8s8kegEk4aZ69AYDRK6UssmdgGmqt66feJkqhUWvdhB14aYfVUgCmwjWNNjy5826EKIWHbHZEG1zAAZgK1zTasPnRG0UpfE+U0oZzR8MAMHbNtcxRMLRh/aM3ilL43iZ7ACZjkT0AABzJKilt+eHCjyiF71kppS0u5ACMnWsZbdn86I0/ff36tac5YBxKKf6joC3/r9bq/FsARqeU8ioi/i97Dqah1vrTj95upRT+7HP2AEzGInsAADiQVVLa8um5dxCl8Geb7AGYDBd0AMbKNYy2bJ57B1EKf+a5Utrigg7A6DS37r7JnoPJePZna1EKf7bOHoDJOCmlCFMAxsa1izaJUjiAlVLa5MIOwNi4dtGaWuv6ufcRpfBAs1vqbfYcTMbb5jYoABg8t+7SshdtICpK4XFWS2nLSXjFGYDxcM2iTS/6mVqUwuPW2QMwKS7wAIzFMnsAJmX9kncSpfA4K6W06Y1beAEYulLKWUS8zp6DSbFSCod6yQPZsKdl9gAA8Ax39tCqWqsohSO96MFseKFl9gAA8Iz32QMwKZ9e+o6iFJ62zh6ASTkvpVxkDwEAj2muUafZczAp65e+oyiFp3mulLYtswcAgCdYJaVtL/5ZWpTC09bZAzA5y+wBAOChZjM+z5PStvVL31GUwhNqrZuIuMueg0k5KaUss4cAgAfexvZcbWjLba31y0vfWZTCj62zB2ByltkDAMADbt2lbet93lmUwo+tswdgcl4358ABQLpmg6Pz7DmYnPU+7yxK4cfW2QMwSV6RBmAoXJPowl4bhv709evXrgaBSSil+I+Ett3VWl9lDwHAvDUbHG3C86S0a++fc6yUwvNefPAvvJANjwAYgmUIUtq33vcDRCk8b509AJPkdikAsrkW0YX1vh8gSuF56+wBmKTzUsoiewgA5qmU8jYiTrPnYJLW+36AKIVn1FrX2TMwWcvsAQCYLaukdOGu1rrXJkcRohReynOldOGd42EA6Ftz7XmdPQeTtD7kg0QpvMx19gBMlleqAejbZfYATNb6kA8SpfAy6+wBmKxlsyU/AHSuWSV9lz0Hk3XQQo4ohRdo7o2/y56DSToJq6UA9GeZPQCTdVtr3RzygaIUXm6dPQCT9d5qKQBda641XgilK+tDP1CUwst5rpSunETE2+whAJi897G95kAX1od+oCiFl1tnD8CkXWYPAMB0WSWlBwcv4IhSeKHmHvnb7DmYrNNSyjJ7CAAmaxlWSenO51rrl0M/WJTCftzCS5cuswcAYLKsktKlo35GFqWwn3X2AEya1VIAWtdcW06z52DS1sd88E9fv35taQ6Yh1KK/2jo0m2t9Sx7CACmo5SyCVFKd+5qrUedImClFPb3MXsAJs1qKQCtKaW8D0FKt9bHfgJRCvtbZw/A5F1mDwDA+DU77l5mz8HkHb3niiiF/dnsiK5ZLQWgDc4lpQ9H/2zsmVI4QCnlJiLOs+dg0u4i4uyY7dUBmK9mlXQTopRufa61Xhz7SayUwmHW2QMweSdh+34ADmeVlD6s2vgkohQOs8oegFl437zSDQAvVko5Cy9s0o91G59ElMIBaq03sb29Erp0EjaoAGB/l2GVlO7dNj8TH02UwuFseEQffmle8QaAZ5VSLiLiXfYczEJrPwuLUjicKKUvV9kDADAarhn0ZdXWJ7L7LhyhlPIl3B5DP/5Wa11nDwHAcJVS3kbEv7PnYBbuaq2t7XthpRSOY7WUvnjlG4DnuFbQl1Z/BhalcJx19gDMxnkpxU6KADyqlHIZEafZczAbrUap23fhCM1xHf+XPQezcRcRZ7XWL9mDADAczc8jm/BIEf1o9dbdCCulcJQmDj5mz8FsOCIGgMdchSClP60/viZK4XieK6VPvzTb/QNAlFIW4QgY+iVKYYBEKX2zkQUA91wT6NNdrVWUwtC4hZcEr216BECzudF59hzMSieLMaIU2rHKHoDZuWw2tgBghkopZxHhBUr6JkphqJrbGO6y52BWTsKLIQBztgqbG9GvTm7djRCl0CbPltK3N6WUt9lDANCv5nv/6+w5mJ3OftYVpdAeUUqGK7fxAsxH8z1/lT0Hs9TZplqiFFriFl6SnIazSwHmZBVu26V/t7XWm64+uSiFdq2yB2CWfmnOqQNgwprbdt9kz8EsdXpHoCiFdq2yB2C2Vm7jBZgut+2SrNPzcEUptKi5reE2ew5myW28ANO2CrftkuNzrXXT5RcQpdC+Tl9Jgh9wGy/ABLltl2Srrr+AKIX22YWXTNdu4wWYDrftMgCrrr+AKIWWNbc3fMyeg9k6CT+8AEzJdbhtlzwfa61fuv4iohS6YbWUTG9KKcvsIQA4TinlfUS8zp6DWVv18UV++vr1ax9fB2anlPIlvLJJnruIuOh6YwIAulFKuYiIdfhZgjy3tdazPr6QlVLojtVSMp2E/w0CjNLOc6SClEy9/RwhSqE7duEl23kpxf8OAcbnMiLOs4dg9nr7GcLtu9ChUspNuKiQ72+11nX2EAA8rzn+5d/ZczB7n2qti76+mJVS6JZVKobAMTEAI1BKOQs7qDMMqz6/mCiFbl3HdsMZyHQS280yABg2x78wBHe11lWfX1CUQoeac51sNsMQeL4UYMBKKavwyA/DsOr7C4pS6J4QYCh+aZ5VAmBAmrOl32XPAY3ef3a10RH0wIZHDMhdRCxqrTfZgwDgPFIGp9cNju5ZKYV+WC1lKE4iYmXjI4B8zfdiz5EyJKuMLypKoR82PGJIzsPujgBDcB0Rp9lDQOO27w2O7olS6EGz4dEqew7Y8aaUcpk9BMBcNZvPvc6eA3assr6wKIX+uIWXofm12VwDgB4133t/yZ4DHlhlfWFRCj2ptW4i4mP2HPDAVbPJBgA9aL7n/p49BzzwoflZNYUohX5ZLWVoTiJibeMjgO6VUs5iu9MuDM0q84uLUuhRrXUdEbfZc8ADwhSgY3baZcA+Nz+jphGl0L/L7AHgEedhJR+gS9fhzHKGKf36L0qhf46HYajelVJW2UMATE3zvdVOuwxR2jEwu0Qp9Kw5Hib9FSl4wjs78gK0pzl+6132HPCEVfYAEaIUsqyyB4Af+F2YAhyv+V76a/Yc8IS7GMhCiSiFBM2W2x+y54Af+N1RMQCHK6W8DUe/MGzXzR186UQp5LnMHgCesRamAPtrvneusueAZ1xmD3BPlEKSZrX0U/Yc8AP3R8UIU4AXar5nrsPRLwzbh+Zn0UEQpZDrMnsAeMZJRFw7wxTgeYKUEVllD7BLlEKi5qBiq6UM3WlsV0yFKcATmu+R1yFIGb5Pzc+ggyFKId8qewB4gfMQpgCPar43rmP7Ih4M3WX2AA/99PXr1+wZYPZKKZtwIWMcPkfEYii79QFk2wnS8+RR4CU+1VoX2UM8ZKUUhuEyewB4ISumAA1Bygitsgd4jJVSGAirpYyMFVNg1gQpI3Rbaz3LHuIxVkphOC6zB4A9WDEFZkuQMlKX2QM8xUopDIjVUkbIiikwK4KUkRrsKmmElVIYmqvsAWBPVkyB2RCkjNhl9gA/IkphWFYR8f/bu5vrNo4sDMNfOwHREQhe1VJwBIYiMByBwAhMR2AwgqEiEBiByQgMRmBiWSsDEViIoGdR1SRE8Qc/3X2rqt/nHB6OZzzyXcBofLi3bm2tiwAORDAFUDwCKTK28d4vrIt4DaEUSEgcgaRbihwRTAEUyzk3FoEU+ZpbF/AWzpQCiYkf6teS3hmXAhxjI2nqvb+3LgQA2rATSHkuI0dJnyVt0CkFEhO7pXPrOoAjvVfomI6tCwGAUxFIUYC5dQH7oFMKJIpNvMjcVmErLx1TAFlyzk0Vdj0QSJGrLLqkEp1SIGVz6wKAE7yT9I9zbmZdCAAcKr53/SUCKfI2ty5gX3RKgYTRLUUhzlPf+gcADefchaT/WdcBnCibLqlEpxRI3dy6AKAFX5xzC+siAOAt8b2KQIoSzK0LOASdUiBxdEtRkGtJF3GZFwAkI26+v5H0i3UtQAvuvPcT6yIOQacUSN+FdQFASz6Ju0wBJMY5N1LYsEsgRSnm1gUcik4pkAHn3FI8LFEONvMCSAJXvqBA2XVJJTqlQC7m1gUALXqn0DGdWRcCYLjie9A/IpCiLHPrAo5BKAUy4L1fSrqzrgNo0TuFBUhz60IADI9z7krSF+s6gJZdx8+M2WF8F8hEPPPyr3UdQAduJc1YgASgayw0QuF+8t6vrYs4Bp1SIBPxTebaug6gA78qjPOOrQsBUK74HnMvAinK9DnXQCoRSoHczBWWxACl+aAQTKfWhQAoTzw/uhRXrKFMW2V6lrRBKAUyEr8Bu7KuA+jIO0l/xbNeANCKnfOjLDRCqa5yPwLDmVIgM/E8zFo8XFG2lcK1MVk/ZAHYibsYbhQmMYBSbbz3I+siTkWnFMhM/JB+YV0H0LEPktbOuYl1IQDyE48C3ItAivIV8ZmQTimQKeccD1sMxWfvfREPXQDdi+O6v1vXAfTgzns/sS6iDYRSIFOxg/S3dR1AT1aSpjlvFgTQrbhddyG+sMVw/Oy9v7cuog2M7wKZipcj31rXAfTkg6T7uEETAL7hnLtQ2K5LIMVQXJcSSCU6pUDW4hKHe7H0CMNyK2nGEiQAcfnfQuG+Y2AotpJGJT0HCaUnqiqdSRpLD78labLzt4y0351YG4WNqo1l/H0v6auk+7pWMS88tMc5N5f0p3UdQM+2CuO8S+tCANiIy4wW4otZDM8f3vuirk8jlO5pJ3w2PyNJvxiUcqcQXtcKwZWwOnDxW+J7cSE4humzpHlJ3xYDeB3dUQxcEVfAPEUofUFVaaTQ8ZwohNCUzyisFELJUtKyrr/puGIA4rfFf1nXARjZKIzzLq0LAdCtuORvIb6IxXB9LPF5RyjdUVWaKoTQqfJ+s9soXBa9rGvdWBeDfjjnlrLp3gOpoGsKFIruKCBJuvXeT62L6MKgQ2kcyZ3Gn4nKPJOwVeig3ki6YdS3XHHp0b/WdQDGNpIuvPd8IQcUgrOjgKTwmX5c6tVogwylsSM6lfTJuhYD1wrhlA9sBWLpEfCADb1A5uKXrVeiOwpIBS432jWYUBrPiF4o/9HctjQjvlecQS2Lc24tXuOAFL5Vnpf8EAdKFe8dnYvuKCBJK+/9+O2/LV/Fh9Kq0kQhjPIt28tuFcLp0roQnC4ugfjbug4gIXcKI73FXDIOlCo+w66U9oJJoG9FLjfaVWworSrNFL5ho2O0v42keV1rYV0ITuOcuxFfxABPsQgJSFRcZHSlYR6tAl7z2Xt/YV1E136wLqBtVaVZVWkt6YsIpId6L+lLVWkdQz3yNVMYXQTw6HdJ6zgWCCAR8d/JtQikwFNbhSZb8YrplNIZ7QSd04zFh/z/rOsAErVSGOldWhcCDBV3jgJv+m0o2+SzD6XxzChnD7q1knTBmdP8cHcp8KZbhXC6ti4EGIq4VXchnk/Aa+689xPrIvqSbSiN23RZE96vW4VwurYuBPvh7lJgb5w3BTrGuVFgb0XfSfqcLENpVWku7mK0dFnXw5hvLwF3lwJ72yp8YL4inALtiWH0Iv5wxQvwtqLvJH1OVqE0juouxNmDFGwkzRjpzYNz7l6MuAP72iqM9C6sCwFyF78YJYwC+xvU2G4ji+27VaWzqtKVwt2LBNI0vJf0d1Xpqqp0Zl0M3jSzLgDIyDtJX5xza+fczLoYIEfOuZlzbq0wqUMgBfY3yA3xyXdKq0pjSTcijKZsI2la1+Ji+oQxxgscbaNw3nRhXQiQuvhFzlx8bgOOcem9n1sXYSHpUMrZ0exw1jRxjPECJyGcAi8gjAInW3nvx9ZFWEkylMZx0BuxKjxHdwpdU5aEJMg5N5b0j3UdQOY2Ch++b1iIhCHbWWA0E2EUONXP3vvBTh0mF0rjuO5SnD/I2VbShHHeNDHGC7SGbb0YJLbpAq0b7NhuI6lQWlWaSfpiXQdac17XWlgXge8xxgu0aqsw3TMf0p1yGJ549/Vc3DMKtGnQY7uNZEJp3K77u3UdaN3nuh7mFrGUMcYLdOZa0sJ7v7QuBGiLc26i0BX91bgUoDRbSZMhj+02zENpPD+6EG90JbtVuNOU8baEMMYLdGqlMNa7sC4EOEYc0Z2K5UVAl/7w3l9ZF5EC01AaA+lSjBEOwUrhnCnBNCGM8QKd2yp88XrFaC9yEEd0m+VFnBcFunPnvZ9YF5EKs1BKIB0kgmli4oePe/HBA+jDncJo78K6EOCpeKXLTNx8APRhK2nMl5WPTEJp3LB7I8ZBhmijcGXM4GfnU+Gcu5D0P+s6gAFpuqcLzhHBUtwvcKEwpsuXk0B/fvPe31gXkZLeQylXvkBcGZMc59yNONcNWFjpMaAyRYLOxQmZqUJXlGk1oH+33vupdRGp6TWUEkixg2CakLjQYi3+3QQs3SpMEd0QUNGmnaVFU/EFJGBpozC2y3v8E72F0niGdC0+9OLRVtKIM6ZpiCv//7auA8DDvac3jHfhWARRIEkfuTLseb2EUpYa4RUsP0qIc477goG0PARUSUu+XcdrCKJA0i6993PrIlLVeSglkGIPBNOEcE0MkLRmxHfJ1kZID2dEJyKIAilbee/H1kWkrI9QygIV7OO2rsWh7wTEbYxLMWoPpG6lxzFfzucPSHyfbjqifIkIpI3rX/bQaSitKi0kfersH4DSXNe1ZtZF4OG+ui/WdQDYWzPmuxRd1OI86YZOxJeGQE64/mUPnYXSqtJMfKjF4c7rWgvrIiA55xbiSyUgVxt9G1I5HpGRnRDa/HCvO5Cnz977C+sictBJKI1Xv/zT+h+MofhY11paFzF0cWHGUoyGASVYSboXndQkEUKBInGO9ACth1KufkELuComEZwvBYq1Vfh3uwmq93RT+xG/8BsrhM/mN++xQFk4R3qgLkLpUtIvrf6hGKK7utbEughwvhQYkI1CSG2C6poPVKeJHdCRHgPoWHRBgSHgHOmBWg2lVaW5pD9b+wMxdJd1rbl1EeB8KTBgWz0G1XXzm7D6rZ3wOd75PRYdUGCIOEd6hNZCaVVpIunvVv4w4BHnSxPA+VIAz7iT9FUhqD78LvV6mnicoRm9PZMepnmYDgPQ4BzpkVoJpfEc6b0YSUH7NpLGnC+1x/lSAAe6i7+b0Crp8UtG7/1SCXDOTXb+svnPTfiUCJ0A9sM50hO0FUoXYrQP3eH+0kQ456aS/rKuA0BxmjHhp3YD7aF2g+UuQiaALnxM5cu2HJ0cShnbRU8Y402Ec+5K0u/WdQAAACTi0ns/ty4iZyeFUsZ20SPGeBPinFuKbgMAAMCt935qXUTufjjx/z8XgRT9eC+xiTchU4UvCgAAAIZqJXHErA1Hd0qrSmNJ/7RbDvCmn+v62XNH6BmLjwAAwIBtJU1K3Tjet1M6pVetVQHsj9ddIuKbMPdwAQCAIZoRSNtzVCitKk3FeTLY+CW+/pAA7/1C0mfrOgAAAHp06b2/sS6iJEeN71aV1uIsKexs6loj6yLwyDl3I+lX6zoAAAA6du29n1kXUZqDO6VVpQsRSGHrfXwdIh0zhcP+AAAApVqJo0udOKhTGq+AWYvFJrC3lTTiiph0sPgIAAAUbCtp7L1fWxdSokM7pRfiAyfS8E58U5WUeNif874AAKA0zabdtXUhpdq7U0qXFAmiW5og59xM0hfrOgAAAFpyHpc7oiOHdEpnIpAiLe/EhcXJiW/a19Z1AAAAtOCSQNq9Qzqla7HgCOlhE2+i2MgLAAAyx6bdhyenRQAAEARJREFUnuzVKa0qzUQgRZrex9cn0jMTG3kBAECeVgTS/uw7vstCGaSM12eCvPdfJU0Uzv4CAADkYqXwGQY9eTOUVpXGkj70UAtwrA/xdYrEEEwBAEBmtpJm8TMMerJPp5QuFHLA6zRRXBUDAAAy0Vz9cm9dyNC8uuiIa2CQmR+5HiZdXBUDAAASx9UvRt7qlE5FIEU+6MYlLL7J/2FdBwAAwDMIpIbe6pTei/OkyMeqrjlbmjrn3ELSJ+s6AAAAos/ee46CGXoxlFaVRpL+7bUa4HQ/1bXW1kXgdQRTAACQCO4iTcBr47uMQiJHvG4zEN/8ucMUAABYIpAm4rVQOuurCKBFM+sCsLeJCKYAAMDGStzekIxnx3cZ3UXmGOHNhHPuTNJSnF0HAAD9WSlc/cKtDYl4qVM66bMIoGUT6wKwn/gwmCjcCwYAANA1AmmCXgqlnMtDznj9ZoRgCgAAerIVgTRJL43vfhX3kyJf27rWmXUROIxzbqwwyst7DwAAaFsTSO+tC8H3vuuUVpUm4kMh8vYuvo6RkfiQmIiOKQAAaBeBNHHPje9O+i4C6MDEugAcjmAKAABaRiDNAKEUpZpYF4DjxIcG54IBAMCpCKSZ+O5MaVXp+0OmQIbqWpV1DTiec24m6Yt1HQAAIEsE0ox80ymtKo2tCgHaxus5b977haRz6zoAAECWCKQZeTq+y4d4lITXc+YIpgAA4AjnBNK8EEpRMl7PBSCYAgCAA5zHzw7ICKEUJeP1XAiCKQAA2AOBNFPfLDqqKn0Vd5SiHNu61pl1EWgPy48AAMALCKQZewilVaUzSf/ZlgO07se61lfrItAegikAANjBlt0C7I7vMuqIEvG6LgyjvAAAICKQFmI3lI6sigA6NLIuAO2LwfSjwsMIAAAMD4G0IIRSlG5kXQC64b1fSpqIYAoAwNAQSAtDKEXpRtYFoDvxYTQRwRQAgKEgkBaIUIrSjawLQLcIpgAADAaBtFBP7ykFgOwQTAEAKN5K0phAWqbdK2G4oxQl4q7SAXHOnUlaSvpgXAoAAGjPSqFDyjV/hdoNpbVxLUAn6lqVdQ3oD8EUAICiEEgHgPFdAEWJD62JpDvjUgAAwGmuRSAdBDqlKB6d0uFyzi0kfbKuAwAAHOzaez+zLgL9+EGSqoozdygXr+/hig+za+s6AADAQT4TSIelGd8dm1YBdIvX94DFh9of1nUAAIC9nHvvL6yLQL84UwqgeN77K0nn1nUAAIAXbRUC6cK6EPSPUApgEOJD7qO4yxQAgNRsFRYaLawLgQ1CKYDB8N4vFTbzEkwBAEhDc+XLvXUhsEMoBTAo8aE3UngIAgAAOwRSSHoMpWvLIoCOra0LQFp27jK9NS4FAICh4g5SPOCeUhSPe0rxGu4yBQCgd5fe+7l1EUgHoRTFI5TiLc65maQv1nUAADAAbNjFdwilKB6hFPtwzk0k3Uh6Z1wKAAAlajbscn4U32HREQDom828LEACAKBdK0ljAileshtK+SCGEvG6xt7iw3IiFiABANCWZqHR2roQpGs3lLL5CiXidY2DeO+/eu+nkj5b1wIAQOYuvfczNuziLYRSlI7XNY7ivb+QdK5wBgYAAOxvK+k3NuxiX7uhlBlvlIjXNY4WtwNOJG1sKwEAIBsrhXHdG+tCkA86pQDwinjOdCzpzroWAAASdys27OIIu1fCTCT9bVoN0L6Pda2ldREog3PuStLv1nUAAJCgS8Z1cSw6pSgdr2u0Jp4z/U2cMwUAoLGV9JFAilM8dEolqapUv/L3Atmpa1XWNaA8zrmxpIWkD8alAABgaSVpynUvONUPT/6aOx1REl7P6MTOfabXxqUAAGDl2ns/JpCiDU9DKYeSURJez+hMvM90Jq6NAQAMy1bSeXwGAq14GkrXFkUAHVlbF4Dy7VwbQ2ceAFC65rqXhXUhKMvTULq0KALoyNK6AAwD47wAgAG4Fte9oCPfLDqSWHaEcrDkCBacczNJV5LeGZcCAEAbtpJm3vsb60JQrqedUokRNJSB1zFMMM4LACjIStKYQIquPRdKl30XAXRgaV0Ahst7f++9H0v6bF0LAABHumS7LvpCKEWpltYFAN77C0kfxXZeAEA+NpI+eu/n1oVgOJ47U3om6T+bcoDW/FjX+mpdBCBJzrkzSQtJvxqXAgDAa24Vzo/yGQq9+i6USlJV6V7Sh/7LAVqxqmuNrYsAnnLOXUiaiyVIAIC0bCVdcNULrDw3vitJHGZGznj9Ikne+ytJY7EECQCQjjuFZUYL60IwXC91SseS/um/HKAVP9e1uEMLSXPOzSX9aV0HAGDQ/ohfmAKmng2lklRVWkt632s1wOk2da2RdRHAPpxzY4WzphyXAAD0aaVwdpQv8ZGEl8Z3JUYgkSdet8jGztUxl9a1AAAGo7nqhUCKZLzWKWWEFzlidBdZomsKAOgY3VEk68VQKjHCi+wwuovscdYUANCBS+4dRcpeG9+VGIVEXni9InvxQ8PPYkMvAOB0K0k/E0iRurc6pSNJ//ZWDXCan+paa+sigLbQNQUAHGkrac5mXeTi1U5p/IB/108pwEnuCKQoTfxm+yfxPgwA2F9z7yiBFNl4a3xXCos3gNQtrAsAuuC9X3vvJ5L+UPjmGwCA52wlnXvvJ977tXUxwCFeHd99+JsqfZX0rvtygKNs61pn1kUAXXPOnSl8AfOrcSkAgLRcS7rw3n+1LgQ4xj6dUkmi/Y+U8frEIHjvv3rvp5I+StpY1wMAMLeR9NF7PyOQImf7dkrPJP3XfTnAUX6sa/FGjMFhERIADNZW0hVbdVGKvTql8QP/dce1AMe4JpBiqFiEBACDdKuwyGhuXQjQlr06pRLXwyBZXAMDSHLOTRVG2d9b1wIA6MRG0sx7v7QuBGjbvmdKm+th6JYiJdcEUiDw3t9IGku6FFt6AaAkW0mX3vsRgRSl2rtTKtEtRXLokgLPcM6NFLqmbOkFgLyxVReDcFAolaSq0kLSp06qAfZ3XdeaWRcBpMw5N1EIpx+MSwEAHOZO0pzOKIbimFA6knQv7i2Fna2kMV1SYD/OuZlCOOV9GwDStlEIowvrQoA+7X2mtBGDAPdCwtIVgRTYX/xwMxLnTQEgVVuF9+gxgRRDdHCnVHq4t3QtvnVH/7aSRlwDAxwnnjedi2MYAJAKzo1i8I4KpZJUVZpJ+tJqNcDbzutaC+sigNzFcLqQ9IttJQAwWLcKYXRtXQhg7ehQKklVpaX4QIP+3NW1JtZFACWJy5Dm4r0cAPrCEiPgiVND6VjSP+2VA7zq57rWvXURQImcc1OFfQHvrWsBgEKtFDqjS+tCgNScFEolqao0l/RnK9UAL7usa82tiwBKFzf1zkU4BYC2sFEXeMPJoVSSqkr34h48dGdV1xpbFwEMCeEUAE5GGAX21FYoZYwXXWJsFzDinLtQCKdsWweA/RBGgQMdfE/pc2JguGzjzwKeuCSQAna891fijlMA2MdG0rn3fkQgBQ7TSqf04Q9jGy/axbZdICHOuTNJM0kXYqwXABp0RoETtR1KzyStxZgXTreVNKprcZE0kCDOnAIAYRRoS6uhVJKqShNJf7f6h2KIPta1ltZFAHgd4RTAABFGgZa1HkolronBybj+BchMDKczcYQDQLnuFMLo0roQoDSdhFJJqirdSPq1kz8cJbuta02tiwBwHOfcRKFzSjgFUIpbSVeEUaA7XYbSM0lLcX8p9reSNOEcKZA/59xIIZx+sq0EAI52rdAZXVsXApSus1AqsfgIB2GxEVCgGE5nCht7eRYASN1W0pVCZ5TPJEBPOg2lklRVGit0TPkwgpdsFTqk3EcKFCpeJzMVS5EApInlRYChzkOpxEZevIlNu8CAxHOnF2LvAAB7nBcFEtBLKJWkqtJM0pde/mHIyXlda2FdBID+xdHeC4XxXqZpAPRlK2mhEEbXtqUAkHoMpRLBFN8hkALYHe29EMvxAHRnpRBEF9aFAPhWr6FUIpjiAYEUwHecc2OFcDoV3VMAp9tKulEIo+yuABLVeyiVCKYgkAJ4Hd1TACdaKWzRvWGLLpA+k1AqEUwHjEAK4CB0TwHsqTkruqArCuTFLJRKD1t5b8SHjCHYSpqyZRfAKZxzM4VwyuZeAI1bhY7owroQAMcxDaUS95gOBPeQAmhV3NzbjPdy7ykwPCuFrugNG3SB/JmHUkmqKo0UOqacGyrPSqFDurYuBECZ4njvTFwtA5Ruo/B5kfFcoDBJhFJJqiqdKXzjxUhWOW4lzepaLBgA0Avn3FShg8r5U6AMzfbcG+/9jXUxALqRTChtVJXmkv60rgMnu6xrza2LADBcMaDOxJedQG4IosDAJBdKJamqNFXomvItd362Ct1RHiIAkrBzvQwLkoB0EUSBAUsylEqcM80U50cBJG0noE7EiC9gjSAKQFLCobTBOG82GNcFkB3OoAK92yjcukAQBfAg+VAqPdxnuhBr/1O0URjXXVoXAgCn2NniOxFTOkCbVgpBlK25AJ6VRSiVHrbzziX9blwKHn2WNGe7LoDS7NyDOhHnUIFj3CqM5i65RxTAW7IJpY3YNb0S32JbWkm6oDsKYCjimO9EIagytQN8r+mGLhnLBXCo7EJpo6p0odA55QxQf7YKndEr60IAwErsok702EnlOYQhapYULUU3FMCJsg2l0sNI75WkT9a1DMC1QneUUV0A2BHPok4UQuovttUAndkqBlCFEMrZUACtyTqUNuL1MQvxYaALdwqLjNbWhQBADpxzE4WQOhHPJeSLEAqgN0WE0kY8bzoXHwLacKcwqru0LgQAcrbTSW1+GPdFijaS7kUIBWCgqFDaiOH0QmxMPMatpCvCKAB0Y+dMahNWWdwHC81iontxJhSAsSJDaSOO9c7FmdN9XCt0RtfWhQDA0MSR3yakjsWGX7Rro8cAeu+9X5pWAwBPFB1KG3Eh0kyhe8qD/tFGYVHUggVGAJAO59yZvg2pI9FRxX5WCuFzrRhEvfc84wEkbRChdFcc7Z0pbEkc4rmeZoX7ghFdAMjLTkd1FH+PNcxnGcLz/H7nZ00HFECuBhdKG7F7Oo0/Qzh7eqsQRm/oigJAOeIZ1ZFCV7XpsBJWy7EbPtd6HMHlWQ6gGIMNpbtiQJ3oMaSW8CBvOqI3kpYEUQAYlp0R4JEeO6tnYkN9qu4kfdVj+KTzCWAwCKXPqKqHczzNTw4h9Zv7xOparHIHALwojgI3wbX5LRFau3IXfy/j73tJXwmeAEAo3UsMqbs/KTyw77RzloQQCgBoU7xf9UyPnVYpfFGr+N+zeClYSQ/TSMv4ex1/vnLfJwC8jVB6pHjdzEiPD+jmd1vneJozJNLjQ24pac21LQCAVOyMCTcmO//56f8mpXnedfeZ27iXvjn6stz93zjTCQDtIZR2KHZYzw74v3yl4wkAGKKdzmyX6FwCQIIIpQAAAAAAMz9YFwAAAAAAGK7/A7Uqc3dpJWhjAAAAAElFTkSuQmCC;" vertex="1" parent="1">
          <mxGeometry x="310" y="117" width="69" height="74.32" as="geometry" />
        </mxCell>
        <mxCell id="qZVZ4k8KD6UxJKRXK_x_-16" value="" style="endArrow=classic;html=1;rounded=0;strokeWidth=2;" edge="1" parent="1">
          <mxGeometry width="50" height="50" relative="1" as="geometry">
            <mxPoint x="158.95" y="380" as="sourcePoint" />
            <mxPoint x="159" y="480" as="targetPoint" />
          </mxGeometry>
        </mxCell>
        <mxCell id="qZVZ4k8KD6UxJKRXK_x_-17" value="" style="rounded=0;whiteSpace=wrap;html=1;fillColor=#EDEDED;" vertex="1" parent="1">
          <mxGeometry y="480" width="560" height="320" as="geometry" />
        </mxCell>
        <mxCell id="qZVZ4k8KD6UxJKRXK_x_-18" value="" style="shape=image;verticalLabelPosition=bottom;labelBackgroundColor=default;verticalAlign=top;aspect=fixed;imageAspect=0;image=data:image/png,iVBORw0KGgoAAAANSUhEUgAAAlgAAAFzCAYAAADi5Xe0AAB4O0lEQVR42uy9C3hU1bk+nid/fojhKmLlWH/WY3v8WY9FRIQQwjVcQiCBAFJEQUVEbiJkNh7rafV4LFW5apUqVURI8FpqrbXWIgKCAoKlioqIXAJCSEJIQjIJybi7/8/ae+2ZNTtr7cvMnpk9k/d7nvfJK4aZZJjZ8837vev90tJQKBQKhUKhUK5XOvPVa0jzMAec/zumgYPHmCfDtQMcHLx1cBQKhUKhUChULBQsAICCBQ4FCxwcHDwBCpadCxwKFc3zBxw8Go5CoVBQsIBWqWCBg8eS47EABwdPaw0eLHwqRUHBAk+EgoXHAxwc3BPXJCgsAAAAAAAA7k9vLI3IiVKcvNqZojvHYwbubQ8WHhNwcPCEc3SZAAAAAAAALitYdsyikZi6Uv0oOHjkhj9w8FgpWHi9gYODI2gU1aoKTQA4YhpQKFSrfOOzc6zeyXH8VA6oRIfuvItHEwAeT78fODg4uBeiY1AoKFjgULBQKBTK7Tc+AKGZULDAU2lVDgAAgCdiGlAoFApqKTg4ODiCRgEAAAAAALyvYKXj0yh8HlAVwJP50yIKhUJ57Y0PAAAAAAAAiFHQKFQHfGKGggWe7K9HPB7g4ODwYCX5KUIAAPDaBAAAiErBctK9tYbVKohgQEwDuDdflwAAAIhpQGFECA6OkT0KhUrVNz63ZXa3FBAoQFCwwMEjabDwmICDg+ODHwoKFjg4LmQoFKo1KFhpLihabqpYQGqYj9EEgMeaQzkGBwf30vQGhYKCBQ4FC4VCoWKpYAEAAAAAAABxPEWIT5FQZcDBoWChUCgUFCwAAFp56Cg4ODh4Irjpcfpo1KtU/VSKT8xQ+8C9q2Dh4g4ODg6TOwqFQqFQKFSqKwtmxqxITF1ucK8b18DBwaFggYODg0PBQqFQKBQKhUqEgpXmUuCnW50gzLNYlQMOjqBRcHBwKFgolEkjDw6eFsMRIQqFQnlWwQIAqH7gyczxWICDg0PBQkHBAgd3UcHCxR0cHNyTOVgAAABQTcHBwcFjrGBB4oISA38MCq9RcHBw8Aje9/BpFwAAqFbg4ODgMVCw0m0Efdq5UXSt4ODgiGkABwcHx6deAAAAAACA2Gx9MVuRE+knyFSV/NGVI2gU3Ls+P7zuwMHBEdOAQqFQKBQKlaplx2/ltHuDkRY8XfD8AgeHugwODg4FC4VCoVAoFAoVmYIFAPFQ/dLAwWPMAQAAPPPel+6gEbPiKFQ0zx9wcITZolAoKFgAAADwSoKDg4NzuedVChQULHBwXCtQKBQULAAAvIHZaxrTi4obu/lKGvOkksb7fSWNTy1c37CaYIGLuM8FzLf6/+saVt/rFl6KHvPsYG0YVs1/qeGhe19qmDxvbcNVM19owHMUAFpB0KjdT4JWnyLdNjR79VMyFAPnHI9BHPm96+vb+EoaCqSSxnelksbGhesblLlrG5R7XvArM1k8b427bWDG76PHXTYwfbU7uJPguehxhxWe9Su3P1uv4o5n65W7Vtcrs9f4lfkv+eX5LzXsu/elhvlz1jZ0wkgFHBwjQhQK5eG6+3UlXdrQmCltaNyzYH2D2kz8/Gm/Mv7JeqXQiJX1SuEK+tWEj1tRr4xbScHjK+qVscvtoYDClC/TIOLk+/KXaWB5Pv0ewscstcZoKyyxRh4F+9/G/zfqiboWyF9ap0z+bb3awN77UkPZvJca7rhnjb8NnsEoVOqNCO0qDfEOGvWqQgC1BAqWB1UrfxtpQ+MDRcUNTUQ90Zoq8lWAlX5l/AoKAS9c6VfGraBY6VcKeXyFXxm7nPk+Dsau8CsFDMby+HLtdgqWm3Mr5C/zK2OW+pUxy6IEuY0lFBw+eolfyVvqV/KWaBjN5fUWqFPGr6xX1cR7X2rYOGetvws+/YODQ8FCoVAeqXkbzhPlahUZA056ql590x6/klGkzLCCUawEXFWrTLgT9cpUwVrGqFYCriPfhIepVcv4fPQyRq0ScVcULF3FMuFL6pRbV9Ur817y75mztqEbntEoVOopWIAz4xp4ZMofuIt87otNpLl6jPirJjxZr0x40q9ivB2wypUAhTYwboU9BWusGYhStczw1cALljFqFY8v0xSsfEaJEnGC0RRcvlRTq0YvFfM8itHMf7PcWsEizZWG3CfqlJufqlfmrfV/NPvFhgxcZwEgdUzuZs0XCoXyaEkbGgtmrfHLanO1UgNPwRov4itCatX4lXw+jlGrRHwshYgTFJhheUuVKhJoDZauVvmV/KV8HlKr/IyiZeBBRYrPw8eAfB70Xi2h4PBcgic0TPotUbIaVs37XTOuvyhUCihYAAAkIYpKGrvc+1LDiYlP1quKlKZc1TMqlQVXFax67auKllz1YanNmJ+iJdeUqnpGtWrJNaWqnlGtDDyoVtWH1CsDD/qsiLndwHXoPiwzGBWrMTzOKFUibgW9wbKjYIVQp0z9Xb0876WGbDzHASB1FSwUCuXh8pU0PHbLM/6gYsWDIx+WAONsQPdaifjYFSG/lZAzJwbHLudz9eTgcuYU4fLQKcJ85lThGAuMtoKDk4ROTxEakWsAMb/PfMG/Z+bvG3CyEIWCggUAWPYcT+4rabxq5gv+RtJEad4r3X8V4ppSVc+oVhwebMb4PKRg1TOqVTgfF1SkxFzzYWnjQC5XGyw/Y37n83yGF7TguoJVzyhWLbmmVNUzfiwOp+PCMUvFfLQ+ajThzhUsDUSVJPENuH4AQHIrWFZvgk4u/G43f17keJPHY5ZQfu+L59MXFje8QUzRalO1ksLAg+M+K25hch9nw+SujvEYU7uRj7WKaVjhpw2WeUxDi3Gg4b+DUQ1xMLmzRncRwjxXAuQyX3MZf9b01f4Tc15s6ILnPDh40nIUCpVMJW1oHDx9tV9WVaYnmZEgh6sq05PMOJDHXRwRuhY0KohpyGdg9t/BSAYLPtqMLwmFkoq4qkQtpeBxfUy4pC7c8M7wXAEnj8fctf7H8IxHoVJnZChSH+wEjLYGJQuFSlgtKG5sO39dw56J6qlBG+qUXW4CbUxoAodho0KuRy4sE/N8hhfwOB0RaqcG6clBDrca/9kdEeYxY0Eez6PGdQ3mPNfASbM19Xf1/jkvNvwEigA4ONQrFCoZmuSk5VJJw/Rpv/OHIhlYHxWHF1JeaMbJSUJ13CfmoZOBfB4ytvO52kgFje0CrjZJurGdz/ODHqt6xm9lETYa6bocG9AVKxEPGd3FQaO5T9RTg3tLPmZpnTJrjf+Nmx9WcOFGoZL0jc8tk3JrWZWDsEtn6wLQJLnASSzDnBcbyoh6NZE2WJrvis/NGq8WfKWYF9oxuZOGijZV4zh8rKHZ4vLl5tzc5B76s1DTJeahE4UCHlSqxFxXqvJMeGhESA3sHJ5Lg0ZzBZzsLZy7tmEwrifg4FiVg0JBwXKZz3zuLDk5+MQtT/uVidTMbmf8V0h5oRVfKeb6KLBQwIMmdzImXM7ntvcJmo3/mBFhviG9nf37+UyOVf5SPrdjYB+zxJrnLWFM7TzOerCW1EXGn6hT7n7ev2fWGn9bXEpQqOR783Oja4O6A26mYIFHwX0ljT8hsQxEnZpIlarxjGrF424pWHZiGsZZjBHHGiIbuFwPGl3GKFgM10eEwdT3MM43wotglZNld8SYZxgXGrka08BGNRi4mbI1ihkvkn/XuS82TMfrARw89RSsRBm6YFpDtfryvRJIX7i+YSNZ5MzGMdhVsAoZpUrITTDOpsndroIl5MsYY7uA59tEULUScD2KYbQZX2KNPAvYabCsRoS5j2uN1p3P+U/OXuPvglcECpV86hUAAB6EtKFhKIllIE3VxJWhESEv+yqiHCwbJwhNGzBB9tU4qwXPRiwLb8jGRjJitBk0OjqeQaNPMOGiBh5qsOqZpsrAKYiaN+dF/xNQCMDBoWChUKgo675if5v56xr2TWSWOU+wyL6yzemyZ6tVO+MsVu3YXZVTwKzH4fJl1jlYBSY5WGEjQDdOENpclWOa1K4rWALYWaUz6nENuY/XKVNX1TfS2AYUCpUEChaULADwrHrVOHPq7zTVSseE4NJmMVcN7Ib/bgE9xd1CwSq0oWCNY1QrHi8wfG3Bl4cUrAKDapWsClZo2TO7Liecs0ueudwQ6zB6iRrbsPHutY14fQBAEi97TneoYiFEDBWNAgpu4EUljV2DsQwUQQXrSUaRipSLlCyGqxlYuool4KqRXVetlvN5gZ0k92XW3xNc8MzhBcvtK1iskiXkSzSMXsLneXZgQ8HKdYjJv62X565tGIrLCgoFD1YqLi4GgJjDV9KwVI1loL6riTZ8VxNcSm93omDZTXE39V/pStUyxotl4GbxDaEU95ChXWiAt4Ol1hhtATsN2CgrPMFDnTLj9/5P73lejW3AawUAPNoviNSnSIMiY2kU81rQKJDcgbGe5lJJ4zUzn9diGdTG6cl6ZgRYz4z6+LzQ6nvU8WA9s9i5JS+kMQuhxc4teTBkNNhQteRag1XPNFQcHoxl8DNxDeFca6LqmYaqXtBgWY8Ix9gZEapKlZ+iJc9TTxLWM6cKw7no5GAkMQ0qHg9xNbZhrX8mDMXg4J7lKBTKa3XP0xXpC4sb3tRiGUIY7zZWMONADtcN7ONWMGNBIzcseh4n4I6XPQt4PjMGDOO8Rc9LzbluZudyZiQo4qwSNVrA7ZjYLceCj7eEFttQXzbnxQbENqBQSTAmFKk0Tru3uBjEPPJ4gdvr4qFOOeDShsZh01dr4z59qfMEXX2ywfWUdv3PhXyFuYplplwVBncU+pmdg2I+1g5nVSwD1/xVVKXi8OBXwxhQxDWjuwYuX0LHgEvM+WgTHjK5hxotHs/V87B4/AkxL9BiG5amhe8pBAcH9w5HoVBeqQXr/G3nv9TwWZip3WEEgxqfYMWDy5zFfJwDmMU0qAoVE8fA5YzBXcTzlzHGdgPPZ7gri56X2I9pEHEnCharZIVxg2pl5LdpsQ1X45WDQnlXjXFi7rZSrtxSQACg9cUylDTOIrEME5jYhQk2oUczFFpxG/sHCw07Bwt5fEXI4G4WNMpGNHC5VcK7Hr/AfDXy4H/bSXm3Y3BfYs/gnmfCRdEMIYO7ltgujGkw+K6MkQ3kK4ltuOcF/5v3PFeP1w8AJFFMAwrlZiMPbsGLShq7zXmxoXzCk5EFh7JK1XgRXxlSqsavEHPdY8V6rXjcLFyUVbAsg0aXWQeN5tsMGo1XyOhoFzxYkfivjPj5b4nhvWEYLjMolDff+NBtAkCCUVTSsHLy085UqwlWYaK8cFEX1uOwK3KiXpWzXBzNMJYTzZBvwuMd0SBUsGxGNORaRTQ8zsQzcHgu9WXN+L3/s1lrGhHbAABQsKDEgIOz3FfSeM3dz/ub2FN+2j5Bcz6ecs1f5Q+tsBHxFQxfKebBEFERD5rTqdGdw7Xxn+61EnC1edK9VmIeVK1EXI9gWEqjFpaK+Wi7fImY57FjQAEPxi08YWia7HK9kTIBWQQ98nHtuTD3xYZZuESjUMnnwQIAIEa496W69IXrG96++an62ClXT7oXLBpcj8MGjHJ4cAUOq1QZ+XJ7S57zLTxYrvmvWAVrCZ+TU4JBtWoJEy66hK9gjTLhzkNGwzFSV7Eer1PueM5fPvvFhq54TQGAd4NG00z+rLUrRm4Z+FsTh1JlwaWSxtw7n/OHohZW2ueFjGndkq+w2TxZYUXI4K6a3JfzuW0sczYiFHG1iVpqjqAKxYzzWvAlulLF/LmhkcoLNlJsUxXeYGlm9Tq6c7Al10zuJjD6sDh8JMET2lei5M1+0b/cENuAQqFQKFTrq6Lixnb3vtSwP7hf0MEuQWJqV2HFmVgGO3ASy2A3XNQUNiMa8gWxDGGBo0vFYA3upnxJaBfh6KUtuWpiX0phwqMOGbVhcB9JofNbtdiGa/DKQqGSZ4xoR7Fw+5O9F1UZKC7g7q7E2dAw77ZVfke+q0KOB8uUr7THC/VFzlZ8RUsPFo8XMHysiKsqlXZSUFOtwrmW3m7twdJX5ITW3fD56GUW3xM8bSjmodOGfrWZ4vKwUV+dcx40sotjGnLpeHAkw8n93vOC/+1bnqyHioVCoVCo1lkLSxq7zX6xoXLCk6FVONrC5pbcsZldZGy34LqBfZyI69EMy5mmSsD1BPYCM77Mz8Qx8Hloj6AZZ8zsS8U8NAo04Xpi+xI+12IY/BR8HmyG2IbJwHP1xkjEH6+nSlXIZ8XjIw18khbbMAKvMBTKOyqVVyMb0jzIob6AR8XzHm9O95U0PEViGYLG9ZXhnDWn60Gh+hocS74y5LuyChQ1eq9MORPBIOJsuKgpZ43sy8S8gDGxi3g4+MueLRc8LzM0ZEtacl2dGm3C81ooUvzTgrlmpwhtIKRgGbke2+BvCw8oODiWPaNQraqkDY3X6rEME0xCRAtXGrxUdrmbvqvldUr+bypVjFlsjdGLK+zh19bIs4lRj1oj1w7+1xwjbWAEwSPmGK6iXIz/scYwgof5yF9codz55Ok5eKWhUIlVrtJsKkYA1JdoOD7VhAJF0xesb3iHxDJopnVmCXNwpU3LP7fFdV8VVa7UhPaVYq6pUvUhJcvAyf8r+E25Mv+Zo8r8VTbxzBFL3EvwtDXm2cVvrTHXBdzzq93KvEVbrSFtsYEPhJhL4DPHHAv86lfvV24tWtwN1x5w8IRwFAoV7/KVNObd/pw/dNrPLfCUq5XWfNxKRq0y8LHLzin/u/6YXFp6XDl+PDlQWloaM/7tu2/LJ+feqZy9d7oY8+60gTvMMdcObrdE1dzbV+IVh0IlTsECACBOWFh8vu28tQ1fhqtPLmClc1itxCFN1oTHTimfHygNNhjkq1d5PHDs6FFl/5w75fLRA5WKMYP4IP/PCnkDLJBtjlH9rZHbXzlz69ims3OmXYvXHgB4a1UOpC7zxwQcUmkk6tX8W1cxpvVowTZFK5xhnAUKllQrq986JieLchUPZezYsWPKoS2b5W/ySKOkN1ODGE6bp9EmIP9/lN4ssQ0Vy/sbvhq42kRlmSM3S6nMG6BU3XPrO+Uzb8XrEYWCggUAqbrMufEHs9b4K4OxC26pViucK1fWq3DqlduXn5C/PVKalI1QLLgO0mR98fAD8inaXFWO0aDy0QNVVNCvXJ43QAVplMRcA2mquHxUf6WSQshz+yuVBJPyyLgwD69BAIi/gmVXdbAbDAoODm7gDz/8r/SFxQ1P//y3rDm9PjIeNLJTM/sK+7yQZlkVUl4o4PmPnVH+tA3qlbFx0xusI5/tU74aO8ygYOkqFmmSBjKKlYHbGg+yChaH0wZKhYiPDPEzd/38y7Ozp7aDpoBCQcECgJSCr6Shx4zf+5sKV8ZfsbLruQqqV8vrlAXPlsrx9DYly3iQVbK++t1T8gmiOgUVLKpOmSlY5P+PyqZK1QBGtdK5UbXKbsnVJipLU6d01crIaYOl88rC4UrVnNvn47UIAPFXsKyWPTs5it8a4hAA50GxrVbBmrO2Pv2+dQ3vTnyqPjrzehSNlbG5EnKS1P6bcmXHP0qhXgkarODXb75Rvri1UNYaKDoeVBss0igN1L624KEGq5IZC4Y4+RpqsLhcbaKylMpROvq35HoDlqtxVcW6fULV2dnTuuGaBACJN7mjUChXjO0NY9RYhpX1zrHCHYyzu8R5Wa3ymw3HZFapAUKjQbbJIjj4x9flI6MGMCcEGSO7iBODuynsnRDUkCXmI+mYcKTGK/MHK1Wzpz596NZRuPijUHEeEVp5q5wsQnbz5wMHT1p+30sN7eaubTgQWq4cWlPD5Ss0mH6PTV7oYCyoq1c3P35K+eJrjAZF/ivjqFCNbbj3bi22wXE8A+8UIeu1EmBUf3seLCNGZilnbi1oOjvn9uugLgAAFCwUKqmrqKRxwZRn/K4pUbFSrtTE9ieqlTVvH5OPQ63iqlei//ft9m1abANVqioZ1SqMB+MZQqcFW/JQFEMlk3tVycQzaCM/GsMg4qpqpSGMa7EN79bM/DneAFCoOCpY0S5cBgB4sBi+sLix+z0v+KsK2RU1MYZT1YpVr+5ccUI+chTqlch/ZRwPsvyLR38pnxo1wDymgTZYLY3tOs8ONlhCkzv1WFUwvqsWnPFdteCkyZo0isQ2jMHaKnDwmHIUKm6NfKviEyf+i+wbfHbSU37PKlYsyCLnt7cfk5MhsZ3HE40jn3+mfDluOFWrBtJohoHhPOi/GkBh5KwHS8QtxoKCmIYwrsU2HDg781bENqBQHlCwAABwFira467f+wOFK+KjWOmq1TjHpwb9ythldYpvNWIZ7KhXLTxYDP/q96vk40Shok1VKJphYPD0oL1wUSsFy0a4aK4JJ+PCcTlExVqA1yoAJIcHCytWUFCwiLF9bUP6/HUNmyY8yZwEXBk7Pi7Cv6ueGlxOYhlOKzv/WSonm2plVLBind5uNiJU+beHlP1TJ8hB43owdNTJ6UELBSs3tAaHXYkTxkcavnJ4+Yh+ypnbx1dVzZ7aHZcnFAoKFgAki3pVMO3Z+KpVhY49V35l7HKyb7BWWfIKGQ1CrTJLbreLg2/9UT6cmx1UryoZ/5U4+2oAk3VlgmD+VX8xcq2hG97JYuqq2VOfrb69AK9bAIiBgpVuoho5NSjHSsHykjoBdQ0KlilfUNyQMXdtw0E2liEarqlOemNUzzRV4X9ul4+jq3JIc0XUq5sfP6l89U1yqlZGHgsFy1K14vDP77tHPq0Hjurp7ewocJSIMzsHeZxpsIQ8aGzXk9x5nChYmopVOSW/6eycaT0QqwIOjgkcCuXpKippkG5xMZZhXAwwliL/8bPKur8iVDSSgFEz/u3HO+SDeYPCM69cCRfNsoeR1igf2U8Fue+qmVM2Vd55C94YUKgYKQturaiJxZFHr3WnAMDFguKG7ve80FDNKk12R3njDCh0k68IjQRDvF6Z8WRqxjK4oWCZmdmtuBrb8Jv/kU+O4ihYo3icqlN52WKu7x9kzexGbtg/yOO6/yrYbBEV6+ZcYngviPF1HBy8tXEUCuVGzV9bnb5wfcPqm58KGcjHrfAGD5rZGZBYhnc/gnrltnql8yNf7Fe+HD8ylM4ujGYYYF/BGsWoVCJuR70a0S8cJOH9rp8frJ41NQOvZBQqtgqWm+GS0XIASAo07x3Ra8nLHzWNWxG58dxN8FSr4J8tq1P+63nEMthZ7BwNvnpxtVyam80sdxYZ2/vbW/DMW+psXPA8MhQuyuNak9WPguHjcpSqOdMkvJYBID4xDZC4UCgb9f2eQemBTwZtPrr1Vnnik7Ux8U059lktD3mtWN+V+ueLTyuffF4K9crhihzH/PBhZf/tN8u6z4oY2jU1y8hDOwaFPDcrGCJayQSKhvHgcmcRp+oV8V8Rk7vuxaL8zLTx1VVzENuAQrmpYKXbUI+gNgFYlSPg3+8dNj7w0U+V5u0/UX7/2utyzLxUZtxEsWJRsKRGWf7aMRlKlb2lzpGMB1n+zTtvyd+S5scyXLS/mFuFi46yES6ayzZYrNmdGR+OVmMbVuOaBQDeXvaMY46otFRuqnT+/d4hGYHdWYeat/2b0ry1u3J2xzBl2jNlCVGsWK+ViE9+4qRy4BCUqUgXO0dyW/t9c+XTumpFv4a4FsOg8WwO78/sH8xidg4aOLPguXIknwfjGchIcASHE8P7LfmBs3Om9cQlC4VyX8ECAMABAnuH3d+8/cdKYNu/qWj+8EfKX/68Qg6mpgczqNzhWkPlZ5omPzMKNOf5j1cpJe9BvbKjXrmJw7s+lr8ePShs0bPzcNEssQdLHQ9mBXOugr4rdtnzSDvopypdVXffsrnq7lvb4PUNAO4pWOkuqBCtRfVAodK+3zv0ssCu3tVEuQps664qWASNH/VW7vv9VzKbZRUNj0Sp4vF7njouHz0KhcrOqcFoR4NG/sWSR+WTuewJQjvZWNn2ljrnhvxWYtB4hhF6PEMWh5P/n6lUThypVM2eNr41KNDg4OgVUCiPVfWWHumBPUPWNH/4f5XmrZeGY9tlyqd/XyC7YlR3CfmLK5RNuxDL4KTBchNHD3ylfDEhV65gxoAVjIfKlDNxDFyeGz4GFPEW8QwCkEbrzJ03Hzp7z62IbUChYqwaOTG5twYlC4VK+35vTu/Axz0CWkN1qaZgbdP5pUrzjp8qv163VWbN5zrCIhMEf+4mxi47pzy4pnWcGoxm3U6s1CudH1i/Rj6W21/gteJxGi6aa/BasTyX8VpZ8PKRzMlBIc/UfFljhxLD+/1QIsDB0SugUHGrwO4B6YFPBmwhSlUL9SqoYnVXSrdOkm9+stpVJSoSjPtNmbJ3fyj3Ktl3DvJ4NJlecVPHjhxW9k+fLJePyjYsac4WcMMCZxGnUQwizp4eFENvrjKDTdaZqYW1Z2dPvQyveBQqOnXILHYBHWk4B1p5TMP3e3MmBnZcoypVRLkKfQ3nzduvUl58fYOsNjnLqTk9jlwdDS6pUZ76Q2g0mAwNE/l68uRJpby8XDlz5oxy9uxZpbq6OoiqqiqloqJCOXXqlHLixIkWDVa0S51dycAS8G/ee0eLbQiOCLMFXB8N2ohgcLgeh8/JeDAzGDyq8tEDlKpZt62pubsgFiHS4OCpzlEolJOS9w7pENjd77DaRFG1KkDB4zU7Bit3PPNdQpSrguX1yi1LTigHv/X+WI80S6R5amhoUL7//nvlX//6ly3IsqycP39eqa2tVRuySBWpWI4GjePH/ffPl8uYENEKETdbiTPK2WocrWnqZ8Ez1cZKa7S0r5WTxwTOzp7WG698FCoyBUu06DmaIFG3OkEACpan+Pd7cx4kylRIsTIHMcG/+/YT8tgVsfNYaTEMIRTQr2Meq1Je3aTFMnhRqfruu+9UdaqpqUltlqItchukOTt37pzasBlHgInyXhn54b2fyAfIEmhGtapswW3AxogwLL09GC5q5LS5CvJ+IZ6bRWIbtpy5ewpiGwDAI0GjKFTK1fd7h14e2HVjrRbHcKkS+mrGL1XOf3SDsvD3++VxrKHdJa6joAXqlFm/LZWPHfPeKJA0VqQJIuoTq0bpTVI0nP0zooadPn3atNGK12jQyL9c8Zj8HTGp0z2EFcF9hKGTg9ooMMuaB83sLbkWw9DPBjKFqJwwQjk7Z9okXAFQqOgULK+pSF6brQKtFP/acXX693sGr23+8HJtDEhPC4Z4dyEnKe//3DRPLlxRF1SZWNXJKeepVWF/trxeGbO4XNm8+5injO0EZAzINlZuNFVm6hf5f/X19aqny+i7SiSOHjigfHFznqw2U8b1OKNsrMfJDSlVYg9WuN9KGC4aRCaXl2uxDYertdgGXA8AAAoWCuWqetUn8PHP5OatP1CCIHEMKr+U8ks5nKpZO65RHi/eJDsJCB3L4QWUF5jw/KXnlF+t9ZaxvaysLGwU6HaDZVSxjJyMDolhnmdsTxS+3rBOPjYypGJV5vVnktttjgeZRsvIxYGiLcNFK6gfK6hojTSoWwWDlapZUx/ElQCFcqZgQaEBABPInwxsE/gke3tz8JSgGX7AIPz/fbdtvDzpybNcJYqnTLHgKVY8Thqswt+cUvZ9WeqZlTjEZxUr1cqoYFl9H1Gz9JOHsQoVtY0jR5TP775VLh9laLDsNFcjbTZYdtbjWChYpMEqH95XOXPbuNqzs6ZejmsCANhTsJwcKXQSrJXKwWGIrHDOk9zYPnRyYMfVSmArbZrI1wh48/YrlXV/eElWPVIrYoP8J6qVZ/541DPNVV1dXUybKpGaZQZy6pD4wOLpuRLxQ++/Jx8ijc4oBycH9dODZrzFeJDH2WbKBETBGt5XqcjLVqpm3rq2dvpkjD9QqCg8WAAAqJlXgzoEdvc9qqe0B5PaI+FbL1XOfZSt3PHMCVsqllMQ9WrKkhPKocOlnmiu/H6/K6cD3S7yMzU3Nwd9WfE8QdiSlyr7HyxSYxvClaosPlfX4vRnFjnzuX31KtOgYhmgN1f0a+XPR5PYhj64NgBAdAoWlBfwVs8De4f8kihPuqcqwPirIuLbfqhseudRWfVLsaM9F/iYx84of9h8TPZScxUv1crMf8Xj5GsgEAhTshKFw//YKx8YM1g7GejEeyUAm31ljUxzHmywKIjhfcbk7ZV33YI3UACAyR2FitTYPuTywM5edVqDZDS2R87Pf3S9Ij2/Ty5QmyyXsKxOmfeMFsuQ6NBQL44FRSDGezYNPlHjwi+fWho4QXOnLGFTnWKbLD7PbJnebuTUf1VBofLxw5Wzs6dNxhUChYreWxVJx+ambwfR+8nNk/JnV/b2TQ/sGVRMFCfNS6U1SbqRPSq+rbvyxfv3yONIbIN6+s/PnBaMjOcvLle27UmsekUaBWJoj7dqFS1IXpYx1T3e/OjBg8oXk0bLQRUruOSZ4aqJneG5LXko+yrL4hShflow04Qb1CsK0nyduWPi0apZt3WA2g0ObunbRqFQBvUqM/DRf8rNWy5RAlsuCapQASamIcCoU055847/UJaV/FVWIxaYqAXHnMYyPLIuFMuQKJBQTzcankSA5HMl+lTh169tCBwlzQ01s1cyxvZKRr2qZJQqHtdX35Qza3D4nC52putxuJyqVkZU5KuxDb/ElQKFMlev3Ar8RKgnkBII7MxuE/ik/0eqb2oLPQ24RccloROCLMIiGqw5GReWfZivTHqyyr7Xiqa0B5PblxHUK4WLTyqfH0issZ2M2YhxPFmLNFlkvU4iG9RjR48qn98zVS5nvFgVjPcqLERUuPg5BuZ2DtTYhlvH1p2dNfUKXDMAAB4slHfH0J7i3+8dcltgx38oRL1SsfUSG/wHfOiq1TYO//BHyssbn9diG/SwUEaZasGXaRi7LMTHPF6tPPenxKtXNTU1cR8LujUiZOMbEv04HtryvvzNyHDVih3/6SNCHg9Tr0ZY8UxrCNSroIo1isQ2TCn+18CBeDNBoUze+NBtAgCJZfhkYIfA7j6lbJMUiITTxivANGC876/b0U+ZseqorO4UXGbAcnNOGqypS0/I3yY4loHEHZAg0WQv0mRVVlYm1ItFvu7/1f3yqZFZIQVLX9yca65guaZejTTfTciqWJWTRslVs2/LxLUDAKBgtSolBtwZV3Zenv793iGPBD78kdYIsepUrPjWy5Qtf31IDipUy/1BdcqKj158RnlzS+LVK3JqMFWKjDkTfaLwyD//IX+VP4SeGtQaKDIeNEdWyF9liUxzHlSvMjWMyORzOkI8c9fPP6q6a3IbvD2gUJF5sAAg9b1XewdfGdh5Q53QZxULbLlEadpxnfJfL+zRVCybKFhap8z/Xal8rBTqVaxUrIQFkJLYhlVPqrENLVbhmGRfqU0Wo1a15DSaIWyRM4fTEWFQqeJx0oAN66P5tAqHKWdnT52CawgARBY0CsWoZVMK7iymwdMKVvMH2emBPQM3NG+7LGRs183tMebETP/15jvlccvrLMeC+mhwzK9PKzv+USobM6jizVnvVaqU7sVK5AqdY4cOKfsn58t2c69C/ioz9LMBg3olRLgf68ztE0qr7rm1EzQLFAqFQoVVYM+Q7MBH18oB6puKO7b/WHlyw5+12IZlTAwDh+cvqVV+XayNBhPRVJUyqhlJQ0/WaAYzEGUusSt0jikHN74WODK8X2hUOLK/gGe5Z2y3YW4vp+qVhr4qKsYMUqpm3fYIriQoVGQqkp1YBTfVBS+qMvAqpSAPfJzVJrA7a7dmQCceqW5KYGvolGA4/0Fs+JYfKOUfjlImP1mpnhJUoapW4Zw0WRN+c1LZ/3XiVCud67lXdtfTxIO7VWwuVqIaLBLbsH/OdLl8ZFbLmIaR4Wtx7DdYFuqV7QaMNljD+wR55a0F/rP33HYF3jJRKBQKpdb3e4ZMC2z/CTWgd6NgebeQOT2W2PZ/ldf/+DtZz7fSx4EsH/PYWeWFP4eM7WyKejy5F6IZjDwWY8JEG96//XCr/I2uVo00rMvJNUYz9LM/BhRxy/Fg3/AGa1iowSI/T9XMKRtqZ03GCSoUyvCJ3quRDWke5FCAUoSrsQy7birVlSo9VkHMuykB2nCJv4d6qyLg9Tv6KPf87lu1yQoa2pf5gycHb19+XD58JLG+Kx2kCfGiguXGbZGvXthRqMY2PPJg4BRdcWNciRM6OZhFweM2Tg6ONCpYfflcHw+yXxmuxjbMmpoJ7yk4OArVyiuwZ/Cs5g+v0FSqrYxq5Zh3cxhMKuL/pux49xdymO9qWb2Sv7xeyVtcqbz9obZvMNENFmk+yOlBLylYbvPy8vKEjwnV2Ib9n8tf5Q81GNsN0Qy21+OYrM0J81llCjjrv2oJNbZh+qS3yqYOxxsMCsoVR7XyuqLllfAwcGfcc580Ap/0TA983PNTokgFGBXKfa6pXuLv6Rb6HtKs7fip8uCanbK+GkfbN1inLHy2VE7kWJDlZWVlnmyM3Lw9srg60c2Vzr9a/Uzg+Ih+NNmdba6yLKCrVDayr1Slqq+YB5srnffl8srxw5vOzpxyOa554Fj0jEK10vr+kwFXBj78dzly1SpGfOslyjebp8qFK2qVfKJeqbEMZcrH+0rlRGZesSBZUV5rsNy+XRKgmugQ1+Co8NtDyv4phTLrvaoYoaOfCbeXyh7aO9iXgsPJ9xCVSs2/6sPnqorVT6mafvMMXGFQULAAoLUGi+7qM1k7zaeN+LTTgt7gge3/rjzz8kZVxRrzRK3y2MvE2H484ScHdU7UnVSvhoaGMD9UonHwrY2BwyS2gapX1uGiobU45cwanBbcLFBU57S5IoZ2lVOjewtOVKycPkrlxNx1uMYAmHZZjw9RkDtTUioN7Lj6kbCTgl5RsKiJvvLD4cotT5UrEx/7TvnyYKniFfWKQD9B6BUFKxZoamryVIOlGt7nz5RPj2D3BmYJeD9m76AJguqVBdRGqo85iHqVo32tzB+8G28XKDQMANBaFaxtP3xW9T+F4RLPoHnb5crGN5+S175zTPZSc0Vw7ty5lFewvLCX0Mi//XiH/PWIcAUr1FxlmTRakS91Do4Gh/c1xzAGuf2P4hoDQMGyrzrYDQYFB08K3ry52xqtqbqYopsAlySGb+mmNO7opZw4/IknG6xUV7C82GCVHjmifDfndrk86K/SGyUjzxT8ueF77KpXweapjy1eNqzvCegXKChYANBK0fi3i1dqp/uMuNik0YqzirX1UqX+s/ny8VJvjQhra2s9k30Vq12IbIPlFZx68/VAxbgci92EDtWr4Zli7kS9ygk1YieG3nQA1xgACpbYkBXpUfzWEIcAOA+K9dy/Z/1bF89v3kKbqS1MU9WCXxyKUmDUpWAjFGu+4xql/Nu/yl7zYKV6kSBVNi4h0QrW8a8PyJWzpmrq1chQwGhLnhk0spczpvYwTnOvKphwUS4Pmtu1CIYKJg8ryGlTFdxLOKyvcnhI73dx7QPw3odCtdKqfbXrwKb3L1ZIk6WhWwTcCpdEwUPG98ZPb5aPlx7xjJJSVVWVkkueWfj9fk8Ejer89POrAhWjByVoqbMFcsKxf1CvxbjCoDAitFYaIlmE7ObPBw4eE177apcO/r9cXB2gTVNoDU6k/GLDn3dzgdPb/PBHStXXazyjYpGU81QfEZIxqFc8WCc+/USuvG2cwdzOGw1mBqMZhFz3Xg1nR4E87sx3pfPjQ29Sdg+4YSgUDAAKFgrVmlWsNy5e2/wBVaS2MmqW1/iWbkrT7kHKd8e+8oSCdfLkyZRXsM6cOeMNxfDYMaX88YcDFTTBXQ0R1U8LjmA8V2x8g5BnGkJEzYztfewhJ/SVqFdfDr6xdHe/n7XF1QUFBcu9hcsAkFQeLFI1L3ft5X/7Yrmlv8p7vHnbZUrtF7/2jOE9EAikrP+KNFinTp3yxHjw5Ad/D1ROHMk0S1kCzmRb6aqVkRvVK5HJ3crUzotmoOrVrgE3PGDzPQMcPJU5ChW3Rt6TvLakfXrNqxe/1rT5YrqwWVePPMo/7qmcOvKxnOgkdwLiUUrVmIbvv//eG+rV4cNKxf1z5eBeQdVnxeOZNpY6ZzLLm81AvVfDKcy4wXv12aAbT+zqf30nXPJQKKgrQCtXsAivefmiq+r+dHEjayxXFSMv8q0/UOr/OdsTKhYZoaWqB6u+vt4TJwdP/eGVQMXYoczi5iwD72cfjszvfRizO4cPYxY/U35kiKpe3YFrHgBo7zFmspYXVqPAlA0eF17zctfF5/9+sSF01KN8x38oFYfekhO9l/C7775LyQaL3B5ZZp1o9er4V1/KlTOnKOUjrDKtMh2sxLGZ2q6P/dgxoHEkmBPC6Zw+yqcDe+3elfmfbaBboFBQsAAgiOoNXbqc+0PXE81buiqBrV2ZxuZiG0nv8QUZFzbuHScfLz2cUAWLNAFkIbIXRoRsoxXtbciyrP5+uhcqUTj93FOBitEDqZGdGtrDeD8bae2suZ0xsIv4cMbgHlzgbODBBkzjZDR4cEhvedeAntnw3oCDhz64p5uoT07HO7FaEuwlxQPmtRRWIqs3dL2j4a961ELoBB9puEL8YgHvFkdOYhuuUKq+Xi0nUsEiXysqKsK8S6nQYJE1QGyjkwhj+4k9u+XKKQXBfKsKxoMV4v1CwaLUzM7lTOaVFiAq4NR7VRH0YPXlc6peaR6svsrJnD7KJwN7vbK7T490qOHg4CgUqkXVlnRqU/ta193NH3RVAltIU6XBml8czKuKPQ/db9Ou/sp3x/Yndox1/LjS1NTkiQbLrXEjiaBIZHNFYhkqFv9SLs/tHzKoj+zH4ZnBJkrInRjbmWYqGCAq4qTBosb2LwbfWLcru+eVuIKgUGJlIdpOrDV0gOjMU5zXbLgom8Q2NG+52IZqZcZpE2ZL/TKqZfrftfj+bd2V2i8eVg3vifRj6WZ3r5wojIbr5vaExjJseleNZeCfFszinBDMNOE2E9uDBnYL6CcHaaNFYxkefQif3FEoW00WCtVq68SKtPSaV7q+0vR+qNFp3uph/vHPlLLD2+VEq1hkb1+yB4sS7xUx7ifU3P7tt0qlb5YayxD0UHHBmtP7CTibZ2XBw1LZTcAY20mj9U8tlqEDrhwolLi5itXR/Gg5kDoxDUnDa17ucmXdm13r9NFc0OTuQU72FPr33ZXw2IbTp097YkQYzd+vrq4Oi0hIBMpeLQ5UFAwJJbUHTwpmcU4Nsv9t4HYT20cYQkPNuN5gBRc6q+rVbbjGAYDzVTlQtlCttmpe7vrI+fcYpcjDCGz/sVJxaKOc6FgBsrvPC4b3SEB8ZInOvDr+5Rdy5V2TQ4ub2XDRkUygKGNgF3J2NDiib9DM3oI79V3RESGNZdi5O+t6xDKgUCZNVLoN9QhqE5CyQaM8Xr2hc6dzf+ha2rzlYkFkg7dwfu8Y+UTpoYRGNuiG92QrMhoka3ESuRJH3Te4aoVckTdAbab0Bc7hPJR9Vc6oVi04HQ2WM6NCLtdPFuonBM04Va3K6deDg0ksww1ZuL4BAJY9o1DOVawNXW9r+CvNxFJP713sXf7h5crZA88kTMXSmwVyAo+smUkmBYuEiiZ6NHhi10dy5S354YuZuYGiFnyE012CfeztG8wJjQdpLEPxJ9dfgzcRFMqBggUAAEVtSQcS27BTj23wrB9Lj27Ylal8d/SfcjzUKuOIiz15V1ZWpqpCybDQmfiuEjkWVPnRo0rF/z4gV+T2D6pV4TA2VCZwmtjucJmzHsuwM7vnFbhGAED0CpaTEWFraf6SatzlsYDW5Fqhs6FLlv/PF8mBDy5SVGzpygHT8MSUd+WD/mxkT+G5/Q/KpaXH46ZYiUZf5eXlnm6ySHNVU1OTcN+Vqvr97S9yxYQRwf2CFcH9gSzXjO16xhWXM6NBkm1VEfRiGXgw8yo09jPl6olBDTSW4SFc28DBETaKQkVVza+0Sa955aLipk0XKc0fmCAehvYPLrLGjp8qZYe3yvForCxXvZw+rTZZXoxkYJWrRKL020NK5X0z1FiGYH5VC2QyX814ptjMzjO220FOOP456MajOxHLgEJFrBqJ1Id4K1joSFGeqJoNXa6o++NFdc2qUkSanYtURMRpIxRgmqKobzOMX6z4990uHy895mpTFQknX4l5vLm52fWFzNEY2vVFzokKEmWN7WUvvyRX5A8JKlbB04LBr7pSZcKdJrYP04ND2XBRAw82WaHEdhrLMAWqBDi4vV4Bc1IAsIGaly96iMQ2CMd0XsKH/65UfvOa7Ja/KmoD94kTit/vT3iTRRo90vAl2tAejGXY/5lcOX0SNbbHwXflyPwennlFYxm278r8zza4HgBAYj1Ybvp2vBRGic68lfKako4dzr1xUWn4SK6rN/mWrsr5PSPlE6XfRKxWxUKxIcqR8YShW/sDrfxWJKOLbSATamrXYxl+u0SNZdB9VqGoBZtxDLS5soxjGBHyZ1VQZaqCwhbP6aN8rcUy9PHgNRkc3KschULZreoNXaY0vJMEDRbBth8q1V89KZvtEExEg0HULNLs6N6sWDZY5M8bGho8pVrp+O6j7XLl5DGhUNGwr0ZflQtgR4PDDLsFjdzgvaKxDOtevxxvGiiUU3+T1Qk5rFmB1NmqVuWIuBbbcNH25s3kNKF+otCjnDRZO3srJ4/ukxPdVBk5Adn5Rxotomi51WCxJnaytJnERXjByN7C2E5iGR6S5PLc/ga/VT/GX9XPGnrjxPqvRNzuwudh9MSg/lWLZajdNUCNZYCqDQ7u0IeFQqFsVs2GLpn+P18U8LyCpY4KL1HOfb5ILi09ljAjtxUnzR8ZHRKPlj4+jDRctLGxUTl79qzavCV8BGjCT73zJ7micLiNJc52/FSZzPJmEdczryjMOEFOCKVaLMODeOWjUO4oWF5SbaBgAZ5C/doLSGzDOhLb4A3VSoQuKpp3/D+l7NtNslcbLGOzRVQn0iTV1dUp58+fVwKBgDpOZEEaMbKShzRlJMuKZG6R0aPXxoBcfHNQqbx3ulzONbXbTGx32oTZCRTlGNtpLMPhndk9OuC1DwBYlYPybiOfMrxmQ+fLg7EN3OYm/o2UhotacGJ4b/jHFLn02BHPN1g8HnbqzmBSN4adJgPK1r8gV+QPthj/ZZrzEZmGsZ+IM2M/PXLBjOf0CQaK6rEMOwfcMAmXLxQKhULFc1T44Pm/dVGaPyBNDFWLglwf0V3kAufdvkP+4Y+UyoPFste8SK0Nxz/bJ1feMZFjaO/n3LBumXeV6SxQ1GBsL8vpo+wd2Gvbrht/ik/iKJSLCoPoz5wYutyKacCqnNTgKfc71WwgsQ1dDqtNzAddlACFFzlp1s5/MlQ+fvTrpFOwIlG8PPlzkViGlb+RK0Zlc8aCmfbA5liN6GvN2dHgsL5izi5zpurV14N7B5hYBhQKFWFjBQBAJOGjJZ0nNfxFU4magyM5b/Lmrd2V6i+XyF41frvBvdxgfbd9q1z58zxDqGgMw0RZ87raTAm4bmofFuI0lmHt293xGgeAaISY9BirUODgKctr1rdvU/tql23Nm7tosQi0ofEkJ0rWxzcoJ498IqeqguVZHDmiVPx3kVzu1Myu82Dz1NcarHqlN01mXFWtQk0WUa/2D7qxdld2z8vxBgkAMLmjUInzYpV07l3/VhdZHxU2s6M5r/Et3ZS6z+6TS1OwwfJ0LMOfN8oVhcOiCxK1m2MVhe+qPBTL8ABe2SiU+yPCNEQYAIDTPYVd1jZt6hJcuuxN0HHhjv9QTh96V07FEaEXcfzg10rl3DsMi5wdBIlGlNZuM1DUiJw+yj4Sy9C/RwZe1wAABQuFSnjVlnS6vG5jl9pmOooL0FOAieW0oQryzkrzB53V/9+wd6Ia25As0QbJjNNrn5MrxgxSKkZkUf8VM/Kzw4f3tW9sH9bHfqBoDhMsSvHtkN5EvZqIVzQKFV+TuxMFKw2KGNDqVKwNXR5o/FsXG7lVbqKLAJ0pBP//w/+rnPn6pQDUq9jixL5P5cpp49WRoCNDe8SmdudhojpoLMOW3f16tMHrGQCgYKGSq5FPaV5T0jHj3OtdDjUzylFsua5IdY7odpp2D5KPH/0KJvdYgcQyLH1UjWWIuecqSt8VE8vQC5cqFMr9Nz4319UAAO/5k/LNVk1J5/EktiHwQWdrFckUnTno4iqat16q1HyxOIAGKzb4butmuXLSKFWNKmeUq3JGpeJy2lzp6lQ5o1S14FSVKmfUq3Im46oFH6bnXLHrcPqqsQy7B/Z6/qPr/x3XKwCAgoVCea+qi9ul177aeQuJbQhGJGzxKCfq10c9lJOHd8qp1mAlfFx55LBS8Yv5WiyDk72BbByDI99VX3uBojktEYxlGNCzO17BKFRsPVhQogAgqvDRTr3q/9Q5oJrLt3gbzVsuVur/OUeNbUi1yIZE4tSbr8sV43IYz5WNvCtek2XGW/iuTHjQd9WH8V1pnMYy3O+yfxYcHNxB0GgifDaefuDAW/eqHBE/+2K79JqXOz/f9Hc61mMbLc/xzkpg+4+V04felrEqxx1+/OsDSuWs22jMAh3/qSM9E87sF6wYEdolKORMHEMF48Picn0UOKwl12IZeh3cmRWMZcA1CxzcPY5CodyumpKOl9Vt7FxNxnABZi+gd9A5CDIubNxbKJceO5xSK3MSMqI8dkw5/cIquWL0wDiZ2vVmKTJOYhl2DrhhPF6xKFRix4hpNs3tqa5goTMHt2d439D5/sa/dWY8T10SyDsHc7A03klp/qBTkAe2/VA5c+D3AShY0fETez+RK28by6S1WyHSJoyeBhzex5rn8E8S0liGTbv6/ic+caNQMWyeACAepwhbFa/e0L7dudc7H9KamniO/jqHn2JUeScNtKkycvIzNu3qL584ul9GOGgUsQyPPSxX5Pa357uKxHM13LBr0IwP68sscQ73X5Gm64AWy9AT1ycAiM+yZzcN724qRl5tFgDAwvBOYhs6u3wSsHNIkeLyTpoqZfo9LXnz1kuUmv3/EygtRUxDJDi5+e9y5cSRjGm9n5g7PVVox8hu09RO8N1QNZZhNV6jAICYBhQqOb1YxRnpta903tS8ubMhGDRa3ik45tP+3A3eSWn+6Frl5OGP5FQ6URiXxu7wYaVSmiPrxnYVIh427mPHfiIeQZAoOxrMacn3D7qxalc2YhlQqHj7qxAgar8rBXfGW+W4sKakY8/6P3UKBLZ0EgSIdg6N7YLonBCQPYX1+2aqsQ3wYNnnZW+8LFeMHWJY4szhQT9VX+arCWebK3ZBs4jbwDEtlqEI1yRwcJwiRKGSW8V6vm16zcudVjf9vVNIffrAuzyw/d+V8m/eDGBEaA/Hv/pSqZw5JSxl3XTUF/RVWfDhnAXOVtwCNJbhwM7+aiwDCoVKkIKVBgULwKocd3htSYcf1G3sVN38QeLUKUt8oBnfyc/YuGe0XHrsEJLcbfDTzz0lV4weYL24OayBsgDPvG61wNkGDmmxDAW4JgFAYjxYXpO6vDzqghRqn7f6x6BmQ6eixneNY8AEcdpMhWFzxxC2/ptSdeB3gWTLwYr3fZ74ZJdceWuBpl7REWBwt+CI0GnBsL2BTGNkymlzZbpbcHgoOJTdLcjjNJbhve19r0XKNjh4fAPJUahW1yjHlVcXt88493qnA4kZ/3GwuWPoq5Fv7qQ07eyjnDj6ueyV9TNeA/GpVfz6v+WK3CzNY6X7q0ZGGSAaqaHdAgcG927alX1DD1yKUChvjxHTEMIJDu6cV5d0Kmh4W8+kYvOpXORW6pT6Z9ac7Cms3f/famwDTO4t+cm/vytXThhBR39s/ALDh/eNbCw4TByx0ILnWH+PFstwwyq8laFQ8W+eAACIRy7W+gvTa1/p9B5RiMJPD9rkvOZJ1EzZ+V5TdFSad1yjnPp2G8JHjfj2W6WyaJYayyD0W6kNE2twN+FOPVfBIFFr3xVRrz5XYxmu/wFegwCQGA9Wus1mzIlHKVU5VBnwiHlNScceJLaBHdcFnHDaQGljvY5aIxQz3kXx/+MOufTYUZwiZFD2arFcUTAkFCA6whAgOtxwEtAO108E2oGqXNk7OUhjGRbgzQ4AEDSKQqV81WzouOr8e1ozozZMH3iYf3iFUnHw9UAyKEvxMLcf/2K/XDljsvW+QDbHSsQj2S1osl+Q5836x6BeB3b379EOrzoUKrEjwjSX1t4AAGA2Kixu/4O6P3Ss0s3lgUjVrDhwgvOfjJTLvt0cKPv2g5jhlGew2RTlTz8eqMgboOjjQd3UXsE0WbY401xVBMNEbXC6X1Bvosy4GsuQ3XMMXnMAAAULhWo1VV3ccUHjX9mTex7G1kuVwCdZscHufh5BpiXO/2WoXDk5jzZLBjP7cINh3YwbQ0TtIofBMHNOYhn2DLjh3d39foYLPQrlcZM7lCsAQaMu8rPrL2xX+2rHL5tdMaR3csXUHkIHBh2Zr26ig4tor2Fze+dcRYYlmje1V6r/K1cuz81SKkZmRmZmD1vc3Nd1Qzt7cvCrQTc27crueV0EEwhwcHB3/dooVMwbeXCj4b24Y57/z7p5nc2mijUPGdpDvIPSvJki5ry90ryZQv3zSDn5mqHhAwabbXKC9y9UmjdTmPCGF38qV4wfLljYbBeM58qJ7yqHv7RZxL8bepOye0DPp/f2ugIXehQqCRQsAICC5XaD9UKb9JqXO77btKkjbYCo/8lVzpwKDHKt0Wn5527zDsx9hZqqANMkOef67WSE36YjUGXq/QuVwPs6zxDy5r91Us7OGSOHL2x2CMZPFd5omXAasxBa1mzFSYN1k/L5oF5Vu/r36IZrDwAk9r0vVjEEUD7AwW3wmuIO19W/2bFJbYo261lWkfCOoaDQME7HaEHeMQ68A3O/7RneIQquj/eY0Z2Rf2DB2cZqM4UNXv/UTXJF/mDDwmabMGZc6WM8OzyH+WrJiffqJuXokN7Kruye86AdoFBQsACgVUNZm5Zes6Hj0yS2wdobZcfT1DFBMHqiXPZXfZDB8AgQ1lxl2EbTW93kM7ePCe0THOHA0N4i48oGDya0s4nudvhNyumcm5R/DOy1f3e/69vBAwMOnnBuupjQ6XgnFp/yvaY8wNMAJdJ1TmIbzr3RsdJ8nNfBMNrzEu/g0vjPxijQjNMmrJnl1GsVUD1VmucqwPivTPn7GUrto4PlilH9g/lVWtSCDc4scNZGgza5PhbM6RuKXTDlfYKjwUODbySxDLl4bYGDe4KjUCgvVE1xh3mNf9VGYsHGxfM85H9yn4eM6HY59/+9r437mimc8MZXfiRXThrl0MieGb6w2SnP6cuY2u3wm1SU5dxEYhne3tn7p7jAo1AeVBai7cRaQweIzhw8Jvzs+nZta1/t8GXz5tamVBlVqwxrpYrDw8GeENSUqNCf2eEXKs2bMpRqKVdWw0SH93UG9hSgHThNaG+R2H4TjWW4/hq8paFQ3m6yUChUAqq6uH2u/8/xikpwwvVIhFhwPXIhIzxyIUKu+6x0JSoy3k7xP3+tXDEuh/FSZdrgTrKqDMhxgvDQ0RNDeyu7B9ywEq8gFMqbzVWsjuZHy4HUiWkAt+C1xW3Sa1/u8HbTpg6hk4AfdIwDZ0zlm43BncwpPtc4e/sZkYeE8gzsDk3sIeinBtspze92Uqruocb2EX2tYTwpOJw5EWjFc5w2Y+Hp7jSWoXwnYhkAIKlW5UDZQqHiXDXF7a+t/2OHJk1B0sNA3eSMMhXkujG8fRy5g0BQs6BQdqwXRIZDrqlWOupW9JUrxgwMLWYe0VfMGYO6I6/VMIOnaphdrnmuyodpX2kswxy8clAobypYbi18BgAEjUbJTy9NS68p6bDy/HsdXFCnOpioU8Y/jxVn1aaMKJWq6GMXRKqVzpv+dIl8Zupo2kCF8qxacOb0X5Azo0IhZ0aC5YwyZc37qE1VULmizdY/Bt7w2c6sHm1xnQEALHtGoVCWKlZG13NvdKjUT+u1DPDsaCOck0kuD+Md4siZ5HThz+OEZ7RsrNixoCOue67aaQ2Wql5dqNT+zxC5Ire/zR2BfZzvFLQdHNoyRJRkXYWWOt+kfDP4RqJejcArBoVKDgULAAAPoLqkw5zGd5wEcbYXBH3GixvDPaMMBuWFhLqmWIWrVjoaN1wpV96ca57WHkljFbH5vU8wRNTovTqlxTK8tavPj/F6AYAkVrCcjAhbS/OHsVbkAa3gNnh18QVta19t/1lzQpSnRCtVHNUqYqXKqFq1C1OtdK7GMiwcJYd2B4bGgeX0pKDuoaoI7gDsa5/n9A2FhNrimveqQvVa6TyUffXVoBsbd4ZiGfDaAQf3JkehUF6s6uKMEVpsQ3sPIyO2CDOim2CzFW+nNG8OGdmN3L/6OjWWgWtmZ/OtIsqpihQ3MQj9N41lWL7zhz/EhRyFSrKRoUh9iLeChY4U1aqrat3/Sa9+uf1bTZvaG5LTE8WZ9TWxTG8P5lFpAaD62ho7XFOs9HU3oVwrXb3i8ea/dlaq7h4TVKvCEtlbBIf2tcd5yezD7PA+Fvwm5bNBvcp29r++K9QBcHBvq1eYkwKAl71YxRlX19HYBvcWKDvxdbnsp3JxEbOT04EiqLEMyzLlitED3fFaRRM2GvRb3STwXwVjGWbitQEArdeD5aZvx0uhkOjMwePvxyppv/z839rT3Kr2ofwqVzkLPW+qfezAGwOq/x0h18eBKtrZxvk/XiqfuXV02JJmvbkqZwM9nXDGM6X7puzxm4LhoWyQqM5Pa7EM+3Zm/WdbD14bwcHB+b5jFArl1aouvrDruTfalyWtj8rMW+Ua18NC2dBQK36hUvurHLkiN4s/DnTCXfVb8fHN4BvlXdk9h+EVgUIlR9k5IYc1K5A6sSonwfxscfuZDe84iWNoLxj1ZcR+5Gc3ZuH9jCg5czJws3M0llwlV04caWiu+kaw3JmeAGROAtrjrMfqJlNOYxne3N7nKpzMBQfHKUIUCuVWVa1r17bm1fb7NMWpgzdVKbsnAV1TrTinAjdfaI//vb1SvSBPLg96rSiccGYkGBluojDnRL36clCvxl3Z11+NVwIKldwKlpdUGyhYABAyvA/1v0VP3IWpURkCQ3qcuVGpYhGTLCsD55rbebyd4n+2h1xRMCRBRnZ+eKgIJJZh14Abntjy05/idQAAWJWDQrVo5MGj5LUvpKXXbMh4s2lTnEd8TsZ/MWuqLuQ3Ve8zgaHG++eindL0Tmel6q7RofGevnzZCdfHfDlOOOu3su/N+mxgr7Jd/Xt0wWUEhUKhUKgYVfX6C6+u25jRqI/fiHKUEN4is+rCYPaU+zw0ChRx29h8gVL3RD+5Ii87AcGhxubKmh/RYhlm4JmPQqWGwiD6MyeGLrdiGrAqJzU4HgMXeXVxxhPn/6bFKOhKUsw400wFOaMwxY6Lg0HFXFe82hk4wQUqP7/xUrnyljwtUoEd95lx45JmRzD6rexDjWUY0PPTXZnBWAYUCpVkjRUAAEmEmvXtupx7PUOLbWCaIdc4q1DpTY9RuXKda1ELqioV5Bc65gHmdrTbuiDE32+n1Px3jlwxsl/IsK42Uyac7h4Mmtkdc+q3yjGY4i35Tco3g3rJO/tfPxjPeQBITg9WeoxVKHBw8Bjw6vUZMxr+EoORH6MiOV1T45yzo8B2Lo0U9WbqAhXsGLFh/Y/lygnDw5smK57DNE2OOHNaUG+wbHFNvTo1tLfySXbPN3b1gbEdAGByR6FQcfRitWtT80rGp2qjEmyY2ltzo3LEjOfix43NULuoeTguaPln72UoZ+8dJdte2pzjhtcqQgztrXw58IbGnVk9rsIzHYVKnRFhGiIMACA5cHb9hYPr32wv66NC7hoaXhZVQvKwjKtsLnQJobU3us+qWfddMbx+1fVyRf5g68BQNjTUMfpEYZzXGivytXTIjcqu7Osfw3McAKBgoVCoBFTZS/8fycba0PhXjiIVdrIv0UrVha4pVXx+AT90lPKmv3RRztw5hu4ZFASHGj1QEeEm51w3tQ/trVQM1UaDewf0PLoz62ed8AxHoVJLwYom8BOhngAQ7/DRdRd0q96Qcfj8u7pnSjd7J4qLAj/dgr7q5gIK83U4pMk691h/uWJUf3FYaE58g0NZI3uwucq5SSkb2lvZN+CGJhjbAQAKFgrlpJEHj5nhvd111SUZlY3vxGKJst1Fy7z1NRfGgF8gVKp4fqzzb/ybXDl5lGe9VuU5Gk4O6a38Y8AN8q7+10/fi4szCpVSb3xurqsBAN7zB81QDHn1+nY9q4szSuvfzFCaN7m5UNnImXT1sEXLxj93g7djbv+C8KXOIm5Qr2p+MUyuGJGpKlbljPJUnhMND6lWpFHSFSnbnKpWanM1tLdyZPCNyp4BPRtJc7W7z9W4ZgAAFCwUCuWlql7f7rLq9Rnv1Lycofj/rDVasUlX1yMV2sWQh/xVdv1YRjS89B9y5fhhLoSFRh8aykJVrob2Vo4NuVH558AbSFL7wV39r89+GBdlFCqlPVhQogAgqUNI26ZXr79wfPX6jH3VJRnKuTe0ZosY4Zveu1Bp+nsGhRW/kEE7w3/HCu0oLmB4ZDj/bnulck6efGpYH+VUjlu4KWKcHNpbOTHkRuXw4BuVLwf1UvYOuEHZmd2zbFf/ng/syrqug4veVXBwcG9w20GjifDZePqBA8eqHC/z2vVt21Svb5ddvT5jZXVxxr7q9Rl11cUZ8tniDCUM61lcmEC0cxWlj/YMfDKyv7JrYC8Ng3pFzgkG3BAdsnvKu7J7Nu7K7nloZ3bP4l39r5+0M+tnHfCcBQdPWY5CoVK96l5JS69Z1zajev0F3auL215xtqTtFdUl2tezxW2vUP+sOFH8/6iopl8j5dUG/vXsIVfszr7+it0DokR2lOhP0OOKXVk9Lt/V72eddvb5f7gAo1AorgphZW5PdQULnTk4OD45olAolK3mCQDicYoQHDxeH4IAAAA8tezZTcN7ql4scSEHAAAAAAAxDSgUCoVCoVCJGBGm2VSfAHhcouEYY4HH43QvXnPg4ODwgqJQKBQKhUK1JgUrDQoWgFU54EmokgIAAHjSg+U1qcvLoy68odnneAzA4yHHY1wKDg7utUByFKrVNcrg8DugUCiUp8aIaQjhBAcHR4OFQqFQ5s0TAAAAAAAAEAMPVrrNZswOT/XZKtQCcHBve7AAAAAQNIpCoVAoFAqVyiPCNJfW3gAAAAAAAEDBQqFQKBQKhULFRsGKdnkzACBoFNwLmWvg4ODgXvFro1Axb+TBwWPJUSgUKikVLACAggWOVTkAAAA23/tiFUMA5QMcHBxqFgqFgoIFAACQYqopODg4eMJ2EZotJnQ63olleKBXOD4lQ4kE97ZqhccDHBwcSjoKhUKhUChUqisL0XZiraEDRGcODo5PiygUChVRk4VCoVAoFAqFcqG58qrJFIDhGBwc1wwAAFJqVQ6ULRQKhUKhUKgIFSy3Fj4DAIJGwRE0CgAAgEKhUCgUCoWKvYIFAAAAAAAAxEHBcjIibC3NH0YykQe0goPHOqYBjwk4ODjiY1AoFAqFQqFaw8hQpD7EW8FCR4pCoZL9egEODt46OeakAAAAAAAAyeLBctO347UQQ3Tm4ODeVJYRtAoODu4VjmJrwYIF6UVFRV19Pl8PSZKGLlq0aIwkSbk+ny/L5/Nd5fP5MubOnYsHDoVCoVAolKU6ZXVCLqXXrJCGSpKk2yRJ2iBJ0mFJkgKSJCmLFi1SyFcD6iRJ2i1J0mOSJGXOnz+/DWRQrMoB99wnRnBwcHB4thNRc+bMSff5fL0kSSqWJMmvN1R2wTRcByRJmlVUVJSBXt1bJUnSg5IkHeJgIh4dFAqFQiVCwfLSChxXP+E+/PDDpLG6SpKkNyRJkp00VRbNFlG+xt93331QrDwCSZJWCv69puPxAQAAALAqx6WaN29eG0mS5tExnxIjvOLz+bqib+c28nHleoOl/9swfHqqydELFixo4/P5rpEkaTJV7p6WJOl5SZJWS5K0lD7vh5JxOFFvIcWjUPZq+vTp6ffdd1/bhQsXtiNf582bh+ccCsWWz+frJEnSxhg2VmFjQ5/PdzUe9cQWabAE/z7TU+H3W7hwIWmqBkuStEaSpJMmvkEWTZIkbZEkaSZ5Tdi5n0WLFrVbtGjR9kWLFu3RQR5bPMMifl62kyTJ+Hg+FcHtTGNvwyZ2SpL0tiRJT5DDOwsXLsyweV/XGm+LPIdS9d+IvLYkSRpBX1tfSpJUK0lSI/1K/vvZoqKiLng2oyJRGER/5uRTpFsxDVGjqKjoB9SYbmfU10i/l3z6f0iSpCJJku6nKsCbkiSdsHk7n913331tUlAlSJpVOTZGhEn5WBYVFZHx5zhJkj516h00PEcrJUl6gPEPcu930aJFGYsWLWo03MY7ULMiK/J4Et+n4d/jvQgarPtdsDaUSZL0S6tmW5Kk3py//2iKfhi/TpKknWavLWIJWbhwYVu0DSg7jVXKgp4Q3GfxYiH4iHwiXLhwYbeZM2cKb480TdQcT9SRWsHtlZOYB8yf4cFyGz6f70ryZhxpYyV47hPFtY/oPi0aLMAh7r//flGD5fT5fb+bHlISRWNyX6IGK6X+bXw+30DRdd3wuz+I5zJgx4OVHmMVKmG8qKiISPGbjKMTzinAvPnz5zsNESUvRqKMrSJmeeZ2y2hz1doVq4TzVPJg3X333eT5RjLZqiyezwqNGammY8Myo+dQ8HeJcjtdkqR0kYLFfr+HFSw0WJE3Wo0+n29cMjVYxE9IPvSyWLhwYaTN1eXkw7GNx6nJ5/NdhuYBaLUmdzpGecLCj7K6qKioQzT3QwyPPp+PzOrLGeUK5Q2vS0p4sEjzL0nSDD2fTYCDkiQtpkb27kVFRW3pm00bMgKUJOkn1AC/QY8l4YB8UFhgNPGyDRbTmL2DZ1h0I0LDYx/RiJDzb0jsDe+aYBONKpEFzwHyc2XyRoSc733UA6/xifSDBIuCCG/recFr4i3iNyOnxOnrsAjPYlSkI8K0KNfIeEnqDbCjFMMn9vsZ1cqN+/sJmd2jY/feiNBEwUqW3+M2PVKE87uQN9Rc6vez+1ztTpvPAOc2y8lYnTciFChYQIQKFqfBcqxgcRqCwVZ/j34oJCdO1wmarEPUlxemYAkarES/NqZxfq7JEVhJunBOl5Pm6ra77roLz1sAChZjUmxLTOYmzdVDVEZGpbiCZeLBSpbncjYZ3fDGOURtkiSpTSS3S0aOkiRlkUMbzG2S8XZPnuIi8GCholCwYmFypw2W3b9PGq3peqNt8GQtMCpYXjS505OUxp9rcgS3k2v0NUqS9BrNNUShXFOwogn8jMVi5Yg/1QjeXDc6+bQPwOSewAMa5FP1Yc7PX0UUWhdN8yQk96RIgYXJ3V2YNFhRe7DsKFgsyIEe0ihxmouDZLzsdQ+WSYPl9HbmcR6DyXi+AlCwmCKBi5Ik7RdI35XEmI6eOmGNfFx5spvcSTYSx5zu9/l8mW7eF8lso7ltpjENSWByT4oyGRG64cEa7PR2Fi5c2EHPUWPh8/muTQIPlmhE6PR2HuD8/gNx2Ua59cbn5rqaRHqvBpsYgRego07ouiM0WPabHmJKbzKeEPT5fNPi/fPgFGHsThEyj2lUChZzO4MjVIKeZm+H8ik8BYu5L894sAzjzUgUrAeMt0PG87h2A1Cwwj+JrBZlUxUVFXVKpt+FmPDJaTBqSM2lp8Am+Xy+oT6f7woy6rz55ptd/0e899571fwwopTQkzNTSLClz+frTQIJFyxY4Pp9klOfPp8vg3iAaIgmuc88qq60ifC54IoHiyamXyFJ0jD934Cc1iNHtclj5fZjMWrUKHLBX8X5ud+OxWNvxzPklgeL/PzkOU1ei+S55PP52iXid4pFkecwMYeT340kpJP/5r0+veLBMtzWHZzbklgFK1oPFvF8Ee8reYzIvz05wU1e27Nnz474399FD9YDRh8abbDcmKqQ31t9zhMsWLCgbTw8wHfeeWc6uT4RH1mk7xMPPfSQ+m9GVE76vG7r9PVKvp9sL6B/vwOZMpHXRmtSsLy45Nkx6HjwqOBN9elk+T3omoY8YrIkY03jJ0vmk9pR8kZMGh+6Xy5a9a87HTvsoStVREn324lnwXjaLIp/s1y6xqiW82lU/z0fpeNd8mK9mkZwhIEatF3xYNGl4FfTBP/DPE8fPWVExtH30/2TbqmwZK1TteG+Aok6pRqtB6uoqEhf6fMUfW5V0xO+AXpy6wA90TaRrm6x+zhdRsIxWUiS1NWJ6j5t2jRyO30Mt9PDrmJPn78kpmUtjT/w0+eFn/53MYkNoKnf+s9t1mDZnhRYNFiOpg/ktBzntu634cGyvH3y2qDxBm/S17L+GDXRbQLkerKYvH6ZN2/ubZLXgOHfezHn53rI+LyguJw+HztwnjerOQ3WLMHt9LB6PEkGI8kUo6t29tNrW4DJqNtHMxSHsc8Nq8eTXKONPw+5L/17SENFRrvUV7eZrvXZR6MmFuj35fP5unF+L/21l0aaXnoI5nl6/WuiP3stPblMrsdXin7OW2+9NZ0m4j9BN07ov38TzeZ7m56ObhcD77aXuO2g0UT4bBz9Mj6f7yr9ODunMRjq9gPnNqd5R8P05HneKUgepxert4nSFcn9kk8WkiQ9xh5Ttnm/JPRSYl/gNv4t05iLZW+aoG97tYvP5yO5NyN43+Pz+abwRoROV+X4fD5iLn+W12Sa/GwkA20ajf6I6rlAs31aqFdz585NyOgt0lU55JMzfZPZ7+BxLNOeUtbPKd2YbECek9+PmryrDD/HTqu/SxoBoiQbX6sm4a8kLZ98kFAXB+sNtMCDZevn1z1YhtsZHOE4fTHn55/O3Fdvzn09anabRJ2ki8erzR4fw3XsPSZLkPdzfsR5ziiG8bVp+rokST0Ezz3uz8b53t0m4dbk33aOJEmlNsJ92Qy7KaRZt/FanMFpBK9kPiBvYDPODPe1T78PovJxfv9rmYMv79j4+UmjfL9xJRxdTVfMxiSZvS4kSeqTwqHXKTUeLBAsu220u9g2UUWjJZ4yCQC0A9IgTV+0aFG6g/u9jj7Jo1luvZO+yG0VeeOlb45NEdwXeXze4P0/psEKjgidBo3Sx+NQFI/Fs8wFJ9Ln8Ro3jLtujwidBI1SFe6VKB7HPcSHZvE4iRos26U3WMbns8Xv1oaGusoRPHcfoqrXCa+Y3MnzlSodxtdTH3ZE6MTkTtRFfZ9fBCBv3HcYA2/1BiuK59SD9DZ62FiKbobdgt/5CqrGRXq7bxFlyeK1OIPz73QlvW6VWtz+LOZxnMz5/9fSWJhKhz/3Sl15JM0xVSkdvW/RNU2ttpyY2xOmYNFcIN4/4AFDqKgTVawLHSG4gd7MpxTjSp+3omxyWPzSMOPmciqNV7t0nyfsKGi0uXrUxd+V12Cl22iweJ+4e0ZwceFhjaHJsv2cnz59ejrnzU6mF96EKlicBkv0vOpGR4HRPo5EFewl+tkWLVoU9waLNkdrovy97uf8GyeswSLKK+d2yqiK6LjBKioq6sZr2Jw2oz6f745kabCoT/aEC8/5/XQNj5MGq5eN5qqWxL5YNFgTdZtGBJhED+aURfH+0bU1eLCSOfdosUDS3RzFbea5uOtLKSoqutLgI0nXE5UtRicyVaj8ZvI18/2zLPwr1xhHI4LbaaL3G7Aa85BPLkSmNvP1+Xy+eTZ+dv1TrOXvajIitOvBSmP2Spba+Dcopxczv8kIQTcIOx5BE3+IMViUjBB+8YtfpCfKS2DDg8X+/OTDwjaBZy1A17XMlyRpDPXezaDjhFrB3yHhp1cIPEjzON+f5zQHatGiRbwRYYvvJSNaokAJfk59YTw5jVZAfVnTqIelyjBeV19TXsjBIh/8eMuNifcwkl2E9Hq2UeDfrKbN6R10vRh5DkhU9eFZO/xG3yF5bi1atEim3y8L/h77/4Kc/NvQn7EH++f0K/f1Lridjzje1cOCa0EdVXJn0ud7HlVe39JPCXPu91Ofz9dB4Iecwfn+Nzj2jVo6mThIH/dnDY8jb0RYZfjvbXTcqf9bLdAVOt61X/9QZQhDXkubuWG0gXtMb0Q597841Zc9u2l4d+sC7+SCs1zwJH/LKw2WcWM9XbBr9ka9h16QrtRP31AT4/36pxaTxa09BSb6ttR4KPy7xPRJcmDIp4r77rsvgzYgI+iMP2Dy874jWrZKFaImk79LLghzyCchctpk4cKFnaj0/ZBu9rfRYDk2uZNRhD7OEnw/uUA9Qn+uNuSNlp6CK6CGT9Fj2CMCg/tVnItPQkM9nZjc6eiM929LDLfX0lOXvN+bPL9WG98w9b87f/78NrxwyHg2WFTxDXDu85DP5xtm8rt1pWqqbHJtiGuDRRvhWYLmqtr4QclBgzVY8O9frB9S4Ty/yN8bxvuAQ7yHNE1d/7m7UqN3d9rYzOf8nZns9+ige2eJf66t8f8ZP5zTa3UB73bYAy3UN/uW4HdepxvrOddgPYrlHcH1YxVvlZugwQprzkiDT37XqVOnppONDeTfmp6gFzZYnMZ2Ch3RGp836fQDkmzxXref5qjxXg/E4/o278MU471ETIMHPVii5c7vRnGbeS6PsvIMUnqV4PvIp9x5NE1ZdCy8E31TEt3XdsZ0zf5OC0z+zj42YFDwmGTqJ+sEmCgYrZjJ+4+xIwnO79qdvknbGRE68mBJkpRt4qfZSRUU0c/V1mSn26Z77rkn3eG4pjdnfLEmka8rux4seuqS56tbTU8v2fHmzeD9Wxj/bePtwaLP390Cr1g3q/uh+/+mmTzP3BoRkufiIyZYTBXDkyavpds492VrREjHww8aRlZr7BztlyTpSs6ISaYhuKK/E8ug0Wwbr9cxAq9dEc9DZix6Ynwp5zYCzHjcdETIPs7kYIHN33ey4DbI/Y4x+7u0qVxn8nMcpg16msl1swtvnJiK4a4iH1XSxTawWSYGqXJPpIudWQXLJZ9QAeMZe8jEDDvJkLEkOrWiKncm9znU4I/JMLm4fsZ8OrPyb11hMvcnt5NuOBmXa3KS5MEZM2ak2zju3YFt0oyf4EQjQrNlz1S9elN06obxLXB/NhLnUFRUdJk+8jHejkGxTLNx9D6LczvPxnssyBsRmix7TiM5O3QcZnwM3yVNqN37omO4Rzi3s5+qWC1GhG6cIhQ0WOzzPVfgEbvM7n2R17OJ/zDiU4Qu4xEm8iXNeIrQpMEynkxuR/Pi3ma8NXZO0E7h3E+RyfebLXt2cnJX1GAJ/y5RoQQfGnXTt91Q4TaCgzuv0fyqdBsN1nuG15nV7ytqsFaR14SNn7mniXdumM2fgfdakHCK0LsK1m0CubLSzidokYLl8ohwBP1E3NYss8tJMBxVUXYLbuuV22+/3TQCgBkpXuvwsRks8qPQdS5pzJvvW6LRCMlJcqDwXG3MEOJ4sIIKllXQKD1SzFumHOAtPmaVDzqqfcrosTHcTjF9w3KkYBluwxMKllnQKFVTqznPqasiPFF7QDBeD1OwBCNCRwqWYERofK6/xhnNzHD6u5Exv2C/pCtBo1Fcm0gDPUe03DjSoNEbb7zRaSglaczKjdcwMwUrUUGj1L5gHGmX0lGk0+dFd+O4lvybkOuTUcHiXauKioqucfj7TubcTlNRUdHldv4+Vd5Ocm5jC/1wbed1PpAzWl3dWhSstCRUsHqZvOFfG+FtXsMLtbSB/YKfow/9BCD6WetEXgUL784wwe1VseGN5A1fcIF91ul9EvWGeAgEt/eYYWmxn2dGJQ1FBJ/cV7uVg2XScL5B/AvGn2HhwoXtaLr9Zisfgr5BgPjJ7P6O1JfRwoeSyE9hdnKw9FG64edeZ/ig4CSXiec1ecx4ijAeHizqWTQ2j2VOQlEN15SiWHmwImis9Ay96yzuK6plzzR4sydVThZQxaiIhk1mkgZ90KBB+n1tEuROxXLZs6jBcuqBk6J4/3qa85yfYubBot+3KYL7mhzt7RALCs//5uA963J6eID9+xtT3YPlNanL9kWZXPB4aeD0a5GLbzxWP4d6keAF6VHTY5pxvMHw1yL5mWiWTalgTNWTMSgeEtxvRAuE2QbFcJv6J5kW+yGZ7/3M4M2wK6kPtDEitLWLkPgfBN+jX9jSyAk+8u9G4i8cBAiSLK0HiBfBoGBZNVidqJrA3uYBKtsnPKZBtItQN7cbHocxkd4vNR43GZ9Thn9fqxGh5UhSb7AM14ydhvTwnpwA3rWRjl3ZJtqwizDN4TiZt4uwiT5/RPDTk7Db6MGNa+1E2JjsIhT+nDRoNpN6vipFIcbMqeH3aAP2lqHJ+NIkmsdsF6Htx9NiF6HoMXnTaB9hFNtIIoEGcn6Xp9nv0UeEhu95IILfdzLndh5xmP7/ltGOY2jUTW+Hqt5NxkNSqZbknjJFR1HvCGbDn8Zr5xn1H/DylCpJijN9cj4t+DnnRDEiFQU7TqI/Vwf2zZvNSKGfxiP5XS8XGHdP6FlQ5HcSNCJPR5g838G4CDmKBmsjL7mZHOWmpuuBdGVRo42mKkCff2MMI2nbvyP1IB003H6AWUvk1QbrNU5j3z3S+6WPvfFxONm7d+90o4IVa5O7z+ebZBbaGMFrpi1tcmJhcs9dsGBBBxGIB5O8Lp3u0IwgaLQ79RXJEYYJh+UYes3kTv10xoDmct6hIgfPiy6c6/N7Nkzukfy+PA/WDIe3YfSNyeTgloNxcIv3o0h3nKbaGDEtTkGjaRGYFaeb+J8Gx+NnoMe5RXlcwWZI8HOOieJ3f0xwm3PSQunKvNyYQ3YM9SbrMHhHvUnT1o7+XI8Ifq6iSB5nogjx5v8Rjgi3CL6HGDA/s5H9pdA3S7IL8SdkbOrCc3gd5z7Ge3xEuMV41HvevHltonwcNhtvc/78+W2NClasPViC+xkT6cWUNnX7vbTs2U6DZdeDRTP2jtrNr7MxxjzgNQ8WeW5zvGKfRvMY0w9XZYbb3GfDgzU+kgaLczvTnDZYHC9YF6cNlhtL5L3ePKUMyCd9o1+CeQJ8RJPUY+0Fe9ZsFxb9ntcE35Mbxf0+KrjNefrMW9BgHZgyZUqkj3db3uNNvGS6R8UkAHZeJPfZvXv3dN4BgUhysGhwIbdxsuFdISeIbhOFAkbx78i7+G2cNWuWZ3OwjDviFi1aVFtYWBjt4/Cu0YRLm/a45mARzxDnuTYsyt/tUy8EjTq4L1seLKrCHBK8ZgJ0fc5T1H81jypHq2l+U8CkwfKUB4ucaOXssPwomseYfnA8YcyTsuHBGu/SNWaaw9sQNVi2/r5Jg5WSHqx0m82YE49SQrjJG6uq5jDHkCO9LzNF53JjSjPzgu3BdP/PC37GaVF84je9Tdp88tKDyXHziEZaZrfJLBa9XzBWezQShWPu3LltdNXMhRHh2zaW0LKcJDM/T8z5TKCqq4oRfUzrDPfbZMgD8tqI8D3DY8U2Q5E+n42RHLVM4GiLEWEkDRZpWgXLntk3kpmc5/fESC+61KN5MNUaLGrRWCkI3SR79q6hC8u5Kfk0ZHel8XrixQaLjrBPGv7Ol1GKA205z8XdaLAQNOqpoqOwOpNFopmxuF/6CWSjaH8VO5+nYXy873s6ivv+VHCbangb/dRVJsjn+kmEj/VgkeeNZlsFT+px8A694Dq9z5+4FTRq4oUzguxWm0+9UDFXlQX77l6zE17odtkJGuX9vHQ3ZaR+FN5z9aBxdBdt0Ch9U2s082AJwoYfjOJ368C5PiVsF6FbHixqWubtsnvWSRQL+dDjdQ8W/TvGfZtkhN0uivctnp91ow0PVkQjQs7tOB4RGkNKIxkRproHy8zxnmhPVcRqlkUIXxlz2iEaBStY9BPNg3ZTxkkeliC8tNQs0dzkxXmNwFDayDYFdBcc734fiPDCu0pwe6uZn+0qwc/mZyIpnCgbRTYe43QbDVa64ALNpumThnkoTdSP22uAZmwFLFLyXbtf8gZIgwp5S5XNGiy9iV5gYgSP5KRoD87tvWH4950jONBh+7VcVFR0NS+933CK8ApesKMhkNPJKcKBJkGjjk4RmjRYrk4GLBos/XtGcL7nKMn+sntfNPj3AKfBMj1FaBI06ugUoUnQKO8xWWPSlEXynsULWX2Ed4qQ02BFdIqQ02A5mRSJGixbP4NJg5VSpwjTUxH0JN9uk1FhJVFfmMTxiEGTeBebhE1+ZvR+6Z/2BD/bDCf3f+2116bTpZq8+97GHPFP5+3u0k9okR1RDh9j7jjUKFvTi+Z+we/6qGiHm2C8kiHyeETiwaJvngHBSHcyDWm1BboO5brs7Gy3xjKrOeOWajpqdu21Qk7X0mZ0I28XmB0PFi/XjTQq7B65aPaK0ufKPBvjoQcc3g/PxxU2IqQnxg4Z/WCGJdS2QLKeeDluqTAiFDyWTzm8lvLCOz03IqR/5zbOc35NJF7JO++8k9zee4KDWRgRJvmy55QEHSVVmhiViULwqL4ENML7uEK0sJNJBG/xQn3ooYfUpkjwd6qo38buzzBOYF5vsdiYjk8bBd+7bvbs2XYbnba670YQrplhFa7IpH1n2rlP+kb3mOixjqTBoie6NokaY7vPDeI/8fl8s6hSt8q4XDXCDwndjKZXPeSSBrS69UGE3Wf5Jmskt9tg0V19BzjPqXERvKauNAbT8hoa3iYBunfU1qdM+hz+zKLB0j/xP8b53Z5nglTtZh39RBC6G1UOFucUoesKlskpQv17JEHDa+u+6Ov7DROTO0+Juc2kUXCkYJk0WCIlspvxAya9nl3n9HH2+XxDOc/lEyTZ3qhgmTRYjhSsaB83Gw2WLQXL5HRySuVgpdSI0PDE/f/bO99ILdM8jh+PlWSMrDFWsjIv5kWykjUyknWMrJEtOVJjJEkyxkjP4xinxDhWxtgXa6ysJEmSI+nFvhjJGllJRtKLjORI1hj7IslIL45Zv3zv5pqr67qv676f+znP/TzP58uPr+M595/r/ve7fr/v9fs9DxW4c16UD9WBfbXX+ynITUulfPl8RHPg2nGnt5Of1tsQSQMVDTM3lKXnFBnaKV1ZaBuPFZ5/hR07dnQSDaK/TqUopSG5VLKNucC5/rao/RMQJpvIfrPN4mL3g1KwR9xUYxMi9ymvz1wgbXtVldijx2Yfhm63e8i7lg9spZnTY7FuqvCDYrvesVnF//1WPLbu9pUeuxE498tFiY1ckXsRHQ0c5w9e8cWUwH9VcUzedhbk/LvH/7Y75o4jlqUntBSmX/Az1ipHjpFfFNEKB+90SnOktFe/OrdIodFaZRqc7Qy8TEOg0Gjxm/2B31zMqT8okfuhUDHShAZre+D3J+tqsKq0yjlw4ECnWFjk3a/fWcHgiprhxcB9eCKghwwVGq2twfK2U6tMg1evr3aZhkmugzXqove/RAps+vZEeeXDVsvq6NGj6yyKYH2ipHHapgfxmltluqy7ubQ7dTRMxYq1E6ZT0oq1V3ovHc/ZRCG/jyLj8btAcUXXTLz5Z9PkFKJqcyLUJmYmoJH42XMs3oyc66GS/3uuWlJrA+e6IdIMtW+R+9QvDbP/VbLte9Zh3vpHFu1zzBG3D4dSY5dLCibOVy3q6MKciojWqDC7F9+P9ZALvNSKmfd8yUKQRyoSmi1ydxyIxdhkYe/evZ2EA/KWuxrR1cKFJhtyum8Hfn/dn1i4sLSvHNfYxOQ1B8uuu4m1I4tmdh07dqyTeAetDoi3x0rkHtHN2bXbUtZbVRPFz0omm/cT2tPQ/baq4vlVFrlr/+si99EN9xkq+X+b5NwL6YRDC2oQuY+vyD13djzIY6zNFcn6X5XGzKEK37n/azObHGG0tFj3Ett6oQ+JfcivysFZSvzPeWfmGBqPmYxt/KgP3iX13ntSNhYKj28pEVJ3dPxl+7SX7B2d65XCmcsZ9zqFRp3UzVq/cGBItyeH5pIcssXEeCz10y6m4DMzMx0J+5dKjs3uj56lDu2eKrRP9mGzVJjOb0ZtS56VHPOik57+lYNVVmjUua+2RTRt9hH6qx2Hs1S/cKxWy/n+b+SYTpQsePgkMh4WKXrPd27l6MyFSouURbD0v28V7agC1/mcLUzwV3lajTQJsRcT74yRLzSqBsAhraU58p8qbe46yL+R4P9a4jmKOlhaGb0YuP7XNUm2CfIai1KXTXbrNHt2/vdITCphjqNF793f79mzx96Fa9R661mkrMVMaF8UGh1NB2siTGH+m01VGC7RdR13nKuc43on9OLu4xiup7RDmjXONlht2c7745TAUx+4W4MY+zoaLO/YtoQWHvTRRPdTp1ZWX2bbsfNLOEduNPCxWs08ULRyKfERe1koUb0yK4vcPZ3c57Gm65os3JGTekGO0LOS318pKw6sdPXDkmvwvRz18/qQ+71Kfwhox26WSA7ej2ioiv3d1+TAzu3foUmJHPPFcdNg6aO7u+RaPtFE7YImWo8CY2P36p1cDZaObS7ipPwsZ3/Jie41psFyV+Cag11y3j+ppttF3fe3iwxI5Pcnnf6lHTRYo7+KMBXBaqQJck3e9HL0lXIsnlUoLhms7h3SclmkLDdd48103ylCxbHt53CtBHsjZ5+mJVP66UWf+zU90ExuFFKRgOtVx96th9SkBss7ti0lWrFcbpG8A3I2G71/Vb7hZk7D6Qrcrv+8q7uqWmjU5SqkOVdE3Ooem73AnR6ZZWPyJ7c3ZYX92DlNBxqz30zo4j4MFILNPSdbBWrpttve37+pei+4E6RIirCx+65IEXr7mvd/r3YvZ2pe8xca2wXv7/czepPezdj+xZJI6OeBXppbKn5XzvbzXBbOlXq4xor+Hgz8b+U2Wm6K0NNgZW/H1WAFUoTJ7bgpwpz3yojyidVlrZFG52mNZqSv5cvtZVem+8gUwb6hNhIvahyDzfw+KaqnVxyLzYoq1Dn3b+2jX3WfWsH1RaY2zrXThbC1KQ1WYDzWFqnMGmbj+MdB3rs2Y+52u/vcZsg1zaKOC6mCoLkarIgA+XGN4zLn5WhKv+hds10lmrLYMzut47yW0mAF9rdJxWernNf33W5341S4SOXIa7Cc+3NFQlsafH+ZzjGi7bmfcT3WlhRafuXAmZ62SQ2Wr2/UwoknNb8hM67+NJYiRIM1mhqsJjyxkfMAtbrtkCIqP1V4IJ5Kh/Oxk47r+3wl6l4vRyLnQbUw+xd1CnZ6OpgVKnR3s0Rs6qZ5rtnigX4KcKq0wbs616ex2Z/srq3Y0ktsWySCtdubYc0pRebbTOrYtJ9pCZOfJ45tSR/MfSrWuSyzJNuXFnAsuKmoxEy5SGOZHupdL9oam+2ukjPhjuHpzPvqTTkCDzJm96Zx+7sJh+uMiZ6bq4n715ywU64AWekd99wWMh3dVdLGPcr4eB53NUhKI7r7PFvjI3kwcG8PpEtFr9f7Q2BfRxLOhq3OvZVYiGPvkvPONS+6K7j7+SbzeqxURP5O5B6w1crbIud32D8/lUKpO3n/qoiEZ7y/j/s6rZLrsDtwHbbVuJ7bA9vZVXEb/nW67+vsEg7WKmVt/PfKWGuwJkqXVdjWrVtfNiqV6NJacPxNuo3LypufUQ0mc8Y2O2m4geVxJZCd1uzqtD6kl3Rjf6Z+eCua3K+KZa5TEb0vNQYL+ghZMdXdJtDUaroq209qs+QszDv7PCPh9nuuDsdKU0Q0Nx8OSLtn5QB26djO6dgu6B454DgqQzNLpSkSeVgv93PO/fJPCWpnLBU9jGNV1G2Tnq2vdVwLuq9nLbXu106rY7Ozs8X9e1DR4EL3YvwjEz03fW5Wq0jvjTmliYrnxT6cH3iVzCfKtGp1g677KV2LS4ou7zNnpOl9qmzK24q6TVskyp5Rv77bMjyTxX3R0zNYnLtF947Ye817f2PjZ61ulUN+dTwjpf3qQWLV6DdyT8IBAACAiYWlFi2l4zbArhCavhDRV6xmZAEAAAAwcVDNI9NJ3NWqofU1/j9UJPWuqqYDAAAArQApwvocZKLX662T9uCpJ2y2iscrc8bcRPFaeRhKD37FPQnnSQMAtM3BwrBBF3ldH6nw/bI+TUqAqqbMO0MVuNUTbhPjjGEYhrVJ5F41ypVaKTYpzh9RggpcBQhPlSzRv2VVsp06MH5h0pOFgxb432s55QbgExW1YkzgcDjRdDAZUJuch4m6MPe0dP9LpRSvJ4qRviiKNwIAAABtTxmGIlfDiGDhkY6fk7UxIlKvaz1GFbT8fQGHwyeTkyfFll2PZQUxf+yzmfJLYXtTzZQxDMMwbFQ0WE3wNnbJxjNvgKva9rehRtoprpWIB9FdwSOtvjpwOBzeAg7AcGDFRtX/8G5mOtD67f2j2+3+ntEDAAAwCujU+F1qFtnUjLTt4wWvFo18jVs1d/Wpm1XvuBu9Xu+7Xq/3n16vd0UrCLerkShjCUcbCQAYGeeqE0nL9bO9qTENr/ExGzC3iuzWsHX//v0dxgTepDMPh8PhyznpQ4iGYdg4ikvhcDh86BosUoREsUjhAAAAAAAAAAAAoP3oZPytSpSiKS0FrXLGgzMGcKKlAICJc6wwDMMwDMOwBgMxnQFHoeBwOHy5OIZh2EhVcgcAAAAAABVThFMRj6tOy5pBHFvbZshEC9DEAAAAAEknBsMwDMMwDBuCBmtYEae2RWOIyoxPNBJOlBQAAAb+4WtC5D41gCqovMRxsOBwnk0AAAAAAAAAILIQnwlWjSJNWooQDoe3hwMAQOscLAzDMJo9w+FweIMypzaL3FvfJRtO5A/OvQaHw+FE1QEAAAAAWoLc6M4kRLDwzOFwZo4AAJDlPGEYehj4uHAMw7BW9iLMWSW4XNokZsjjFwWFwwf5TOJgwuHwtmm1AcDBgpMWBACA5fwQDlufhFeKgwWH42ABAEbuw9dpqFXOJBQahdfjjAF8uRwsxgMOh7finYQQDcMwDMMwbAgid1KERGKIRMJJEwIAAAAtAw4AHOcKAAAiH0eKcMLhcBwsAADIdJ4wDMMwDMOwAWiwOpnOWA4f9wJiRAvg8HYXGsUwDGudyB0AAAAAADSQIpxqaT2ZtkewQL17DQ4fJKdNBxwOb0XFAcJ4GIZhGIZhDacIGQQMw8ZR+wCHw+GtaKtHipAUIelB+LhwAAAAAAAAAADjGllIRbCGOXOkaTEcDh/2ewgAACo7LxiGYWiw4HA4vOFVhKkIVtXl0U3PRNsawQKjGYWEj3fUivGAw+FD5/8HHJf7ad6fM1YAAAAASUVORK5CYII=;" vertex="1" parent="1">
          <mxGeometry y="480" width="177.89" height="110" as="geometry" />
        </mxCell>
        <mxCell id="qZVZ4k8KD6UxJKRXK_x_-19" value="" style="rounded=0;whiteSpace=wrap;html=1;fillColor=#3799c3;" vertex="1" parent="1">
          <mxGeometry x="87.5" y="590" width="385" height="190" as="geometry" />
        </mxCell>
        <mxCell id="qZVZ4k8KD6UxJKRXK_x_-20" value="" style="image;sketch=0;aspect=fixed;html=1;points=[];align=center;fontSize=12;image=img/lib/mscae/Docker.svg;" vertex="1" parent="1">
          <mxGeometry x="97.81" y="600" width="85.37" height="70" as="geometry" />
        </mxCell>
        <mxCell id="qZVZ4k8KD6UxJKRXK_x_-21" value="&lt;font style=&quot;font-size: 17px;&quot; color=&quot;#000000&quot;&gt;Flask Application&lt;/font&gt;" style="rounded=0;whiteSpace=wrap;html=1;fillColor=#999999;fontColor=#ffffff;strokeColor=#000000;" vertex="1" parent="1">
          <mxGeometry x="200" y="637.5" width="160" height="95" as="geometry" />
        </mxCell>
        <mxCell id="qZVZ4k8KD6UxJKRXK_x_-4" value="" style="endArrow=classic;html=1;rounded=0;strokeWidth=2;strokeColor=#000000;" edge="1" parent="1">
          <mxGeometry width="50" height="50" relative="1" as="geometry">
            <mxPoint x="320" y="637.5" as="sourcePoint" />
            <mxPoint x="320" y="210" as="targetPoint" />
          </mxGeometry>
        </mxCell>
        <mxCell id="qZVZ4k8KD6UxJKRXK_x_-22" value="&lt;font style=&quot;font-size: 14px;&quot;&gt;Response&lt;/font&gt;" style="text;html=1;align=center;verticalAlign=middle;resizable=0;points=[];autosize=1;strokeColor=none;fillColor=none;" vertex="1" parent="1">
          <mxGeometry x="324" y="380" width="90" height="30" as="geometry" />
        </mxCell>
        <mxCell id="qZVZ4k8KD6UxJKRXK_x_-23" value="" style="rounded=0;whiteSpace=wrap;html=1;" vertex="1" parent="1">
          <mxGeometry x="-440" y="637.5" width="240" height="120" as="geometry" />
        </mxCell>
        <mxCell id="qZVZ4k8KD6UxJKRXK_x_-27" value="" style="shape=image;verticalLabelPosition=bottom;labelBackgroundColor=default;verticalAlign=top;aspect=fixed;imageAspect=0;image=data:image/png,iVBORw0KGgoAAAANSUhEUgAAA4AAAAJWCAIAAAHxQU4QAACAAElEQVR42uydd3wcxdnHf8/sXpFO3b1IsjG9g20wvYWEQEIJIfRiOqEmBAKBBBJIIEAIoYdeEiChBBIgQCgJHZveq20Vd1tWuzvd3c487x+7t7dXJEtnGczL8/0Ic7e3Ozs7++xvn2nPEDNDGD6UFIEU6BqNPZidgrJARMxMRFJ2JSHRUHnkpUClQAUpUClQKVBBClQKVApUkAKVApUClQIVpEClQKVABSnQr0WBuk36/r/Swl9OgTKz1jqTyXjFx0wAmAEQUSaTMcZIyZaksE/J/eo4jm3bRITbbbAuPOhoZuZMJhMKhdwilnIsXaDuE01ERITbCABmNENzsLyhDd6aDwZmZqBsrbVSSsq0RIEyszHGsizcGgI5mN400HGWhVfnYteHuHnf3D0QggVqjCEiutUCMaY3YTDlM7uVv/sMjdvVGKOUOAyA/1JiZsdxiAhq0KUJYFoj/Xs3NjqdTss7Kmeh7sOulKLb1Uqe9GIM8EYrzzRaa9u2v/wLWNOGsXhFoLW2nK68gjKYfmwzM968vSW3NWqmHjJZEc++tTVn4gwCXEeq4NoyGYcIzAiFbACO4wAgIsuyhiHrsQmaCAD3tpeXgpufvDRX2SZULqF7RmNGMwAQoXXJ/c9Vux+1ye299t5TADZMANCyBG7xja3Gn1UoFCp+6sPhEaG6SeHwCO92jFgrVDfp+FN/Piy24MTnA0B8RdkpRBvWCtVNCv4Nj4V6rxTWnof0aTuAH+3aE6sw39s2Htz787/PBbC4SwFAOoNP27HOBDTWYVEP8seUrZRMxgFgWUop5X52rRhZL9jfx93um7+/UWudXjEvmJptW4bZUir4kvQ/+/sUSoTjwDNVyn9G8960fgb8D46jbdvSWgcfOOUemZfSOhOwzgQiFJSmz5ha4+/mWTSBiIwxgy/QSMPkcP2kv/7tHwDC9ZPC9Z51qNj4UN0kqppIVRPd7cz8/EuvqerG4EYAv7r4inD9pOiItQCEI2PC9ZNmnvBTu6aJqiZaNU1aGwBWdIxV0xQ80NGF9ZSfnXkKO8vYWcbOUgDuzm4iZI9y97n3/kf8DNi1zQCIYqG6ZvcrUU3hIw+YUnqPh1+I5W0BTz26aeBXRImtsWo3K1qblYmaZlIATE+bax2mp42IdvrO/gBSHXMPO3h/AE8/el/Jw++85/6NNljP/bzbXj8CYOyQmwjiPa7ahopU8oorriVrJFkj/Wv4wyUXPPnwXwEgGmFmx9GHzDzZ/fH8n5+uu1sBIFYPZu5tJyLEanT2PtlZAy7tRV50+8iLbh8Z76Pp6/d93BI2TMBqdI+CzyJlnzv/gbIstfW0Lf5y74N/uv7W3XbevsTx8Z73Zz9D0bGw7f89/d9AsgRo9OcShGyEcqXsdLfadgNi1f6WHx52vFfU2bcfUTVitQAo5j2jvjgodwCtV0ivtmJ2KxR5vwCKGEAoyh/Oi8AQgB/s3Ov+6v07uxWvtPq2WdqDifdwbzv3tltW4W0ruDmWZbkvGVXdqI2xbNstTfdK7NrmU888H8A//377IO/Qb351lvsUI1aHfiT+zNNOyHTOy3R6cmzXNiNWvdakJv9mfPjxp0WXZru/WbbtZtL/1XadUAJAFiyN6U14Lecnzb6VHz5q0r7Zr+tZfN4RHZjdmkt5ehNmtyIFCjapDMoYiZlnHnvaoT/aN18f6pHJcGpxUOxV1UQAurvVGDMkz+ZXv7ncvR/uC6S/nPhpEtUgVhNS6pO3n/df+p+89byqbvStznH0R5+8vsGWO4G5r2MOgV6Z9XqupLXWkUjEawpxhXOrJsxqxfQmzGoFY987WlBh0BrGCOcTBbDxynFWK7ZugmEAiAC3q4qZJjPoMj3j5GOvvOYmQ2TXNkNrBD3TUIiqJmatu5u5W9mWdrRV0+Qbsm9QK4EZRLnU0mlOLxlw926qmpgxJuhCEZFFpJnddAgwve2kFBsTqm32XkE9bd5Vp1Ip1g7fCn6nkd9p5FvB7zbxzdmvt4Dfbcr7uxX8diO/08Q3w/vq76kzfX19roc/GF58edaIxo0dx/G3GGOouhFVE+2aJqumCbEJiE3IZDJQ9YhNsGoa7ezG31x61WBOgdAoVI63a5v9AwdzVPXY9UpexajmTc889zfBn+onbHj5VTdorf0t1NfXF7EM7qwEZRvrZmfNc6smzG6FAbbOvtlfa4XKPub+v5bCq/MAYKZOJPsqKirKrgtqY+yaJqT60omFoaydmp42Vd0IZo7P9wRxcLUjZlbVjUSUXjHPti2KTQBRpqvFHo56Wn8oYwwe2wEamN4Ex2B2K6Y1AsBWTd6jTfCeR0UgeJV9999pjZjdCm0wvQkaeHQbt8m5bCz3XRmJhusnuwXndLUQEVIp98l1N77y3D8HKdO2bTOz6zCCiHvbV2tpAqBEIlEx/348fyQcoLEGE2oByqsyOAavt2NGE15txVaN3vs9KFILE2hZDhu8w+2J8QdUVlauemtFSf+m7HaQL7MBRRER1j4CDMxoxIRat9qTx+x2VEUAIBbCa20l0hhXiRmNYNA6R7nv7mG4z6Wuv+xC+TKbo2zLspiZjujC3bUAMGUk6ityHjYzbCCZ8lwl23tv5n5dkcIXSwDgyF5mDnpk30xIa51OpwFEo1EA+DMhTwYJR2WYPP+f2OCOUJ4/ngFOYADGmFQqFYlEvuFN914DcyaT0VprrauqqoKKw8y9vb2ua+m6NUGJdPfs6emxbduyLNu2pSOksJNOax3sc1dKWZbl11jcHVy3y+2Yc3egLN/w0kTJuZ7FW4Il5Q8hcTfKXNqVF6iwKkjfrxSoFKgUqCAFKgUqBSpIgUqBSoEKUqBSoFKgUqCCFKgUqBSoIAUqBSoFKkiBSoFKgQpSoFKgXxtk5IhYqBToN4ohL10BCYMzIKKh8shLgUqBClKgUqBSoIIUqBSoFKggBSoFKgUqBSpIgUqBSoEKUqBrAivpAglGIfU3ShfIkAvUD5cRDofd7270BgCZTMYPoiwlW0yJpSu8iOEwuNmGhcIwTlWTcMAcEDmOI0GFVlKg7poqtmXhZgUbUApbTsiLksqMV9tgAwY4ljOZzODjW37jCtRdGyBk27hdwQFmNGKAkprdCgaO4XQ6HQqFpEwLC9QrzVAItxG2nAhrEG//9xcikcHRQ4gZ+k0gF5vctm3cSphYN6jSBLDxOGjgjpBt20OKD/7/v0C9hUDmPwECxtUM4ehtmmA0AbmlrL5EdFEA9TXlkffWRLpdYVpON6cf02SYrjx1yU5bJP29px7dBNAbf5mLdNaKFeG1Np7plFwLxF0bwt3ungjDsTyEl/VsuNayY2AW3JJhyZi/MAAD2bDnH7eBvfUpfnbtqEAO4PpQmx08Gcz4pA0ADAPGXQukOHV3PQhfpodreQgv60phFR4LPz/DuG4F/Cjh+O/h0NlisxR6km/cN5fjKi+wPOGN21pYMRmgOwn3etx6VD+LqwxAcFmKgqUrgjsAHIyam92IUMjuWz7HLxrH0cUplEqt1D59fQUFXbBEhYvrnvvLavS3m7cWCD75G7Yc5xXb2uNBhERpr4ncZS5qKlGdDTNqgBdm8vQbhnQn3eUn3FDK/mettZ2Nu+0R7zKmW1VNLMgN97a7R5meNj8F/wYrY3RigS8LPpZlOV0thabqLMsVR21zUAec7lY3inEwHdPTxsx+yHIAurs1tzAA3BpkCKgM5UwRADDlR5MLdb/SIGoKdkNtBPOfUkr1915yV9EI5qDf56W2GcCs5x/zoqo7DnNPS2u7u5SBH8i6v4jWyrIQ7wVglAKgKscDQF/CW2wCKC5NAO66Fe7SFU5XCxJJ7m1364e2PQKAl3PmhV+8VV8dIyKruhHALddd7uYkeGm2F548DfSkvNDA/v1UvNVxzUQ8qk63LApFw0yE1++dW2i4nSls/EOt9SpGtPZpbpzgZSASARCLVSIrKQMf6K4c4F+eHQ5nHCcUq15JVNOKaPDbjTdfZdc2u+8UVVWN7OvB9LYTUcfCTzj7HBz7458d++OfFTw6thf3c9pZePNyhAADL3K14Y/vnTf9mGZmWtJhqwh7xyUUwO4OmNUGBVigba5GItGfgLov4uCl9ocbYX3M5M2DBjVq5AgQgVlVNwKwi1aV6o905zyKTcho7T6ws194vLS8BtYYcPdUSs087Ee3/+XvA6dvlfIKbGNMJBLB9Mvw3uXYdDzeWoDX28AAQW3dXBkxzycVAGIwmP46D1rhNW8HMLDpeLy7AEBFRUVwIZSVmFJASqyAaN51zwMA0ivmBpe70lqD+eVnH9lmq6lDjlU6iMD1vrfknzHTOc+yR6Ayb6UeVdOU6ZwXio7lzFJ3y5svPbHJRusX5If6+void0a9ZjwNzGjC7FZs3QxmbwELAyQVRjjoUwDyFgOY3oRXW+HmVpM5ximIcxt0FX0LdXUnJ/PuImsA97Zvu9s+r7z2RtCvyHS2MCNUl/emeunZR7bdaqqfuCvTbgr9nsUtMHeRsOxbO7ind8ZYtjGI2RVu3d3qODqYgeKUTzz28BuuusQr93A4jJDCxuMwvQkMvL8Q0xrxUgsYYMCyoICY8UrTUl5A6xfnYVoj3l8MANObsHEjLFJKFXij7iI1bhG7bxU/97q7dfSokX+/60buafO3P/7QX9yLsS0LzMwI10/2/M1E0rYsVw2323WfYOJE5KdQcBbXY7LdZsbgoiAl9wQ4Pn/dtde6/KLzTG8797a7bzPbtri3/bKLflFfV+vvb3razjj52BEN9dzb7pcmADLG0G0KBG+JCm2wuBdtndhkLCpCeL0tV31i9r7G03h/MSaPwsgILMJrbe5Sf3z0qq6d6C9LkclkwuHRiMWittXXtQKxmhXzP4xVVra2z197k+0KbK1fjatpMsZwb3sm4/zwkGP/+e+nXYvD6oSYGbeRV2qzWrF1M4zJvbkswist3jIWs1qxzaTcon/MUITXWrFVk1fWR69qa97pP/vl1TcG1krqS7GzVGtt1zT5WVKW0l2tQ7pDHsmkcZat7lYxMsbQ7QoT69DWiemNnnQFcUXTLbKCVT9dFZ/dhsY6tHeueoEGXw4FiQy0ANbQU1t9KABgYFEPtmqCrfptVC5dbSLYCls1YVFPtjFgGPJdMoJ72WHdv+R48BSPxysrK3GbAhgOsF0ztMkTzQKCkmopvNTieQhHc29vb0VFhbWal4NZw6FMJpNOpysqKgjASyfg01vzVlCMTsAh7f6zQ/dMRGpBnoGvewy2+zMD8Xg8EolI073XHuo4jtsqGolECkokkUh4K0IaE41GC9YOdRwnnU6761ZIJyiCfUpuyRpjgg1xwWJyd3DXrfDsU6ng0hXf8KLMK1Df4nJPd3ZliuDeBTvIuhUrKVBh1ZHBYlKgUqBSoIIUqBSoFKggBSoFKgUqSIFKgUqBSoEKUqBSoFKgghSoFKgUqCAFKgUqBSpIgUqBfm2QkSOCPPGCIAYqiIGWwJvJLAirB/FBhTUaecULYqCCIAYqiIEKghioIIiBCmKggiAGKoiBCoIYqCCIgQpioIIgBiqIgQqCGKggiIEKYqCCsNoY8qI8wRjrPsYYIvJXB8itnp4FgVjtEpBdGGYD9ZddcBdccJdBVEQAw7Lx4bV44zz0dkNlV6TT4JGTaYdbMW4XGAfKclPIZDIqiywdIAyGgeYkBe2SmW3bJgDL38Aj0wF3OWQAgAPURTC2GrEwiGAYKxJY1IOkzrP/FHBSbs16AP5qImKpwtAM1N0Y1Eu88Uu8c7H3c0Ml1hoBEAZvV4rwSgsIIDDZmJkhZhC5KwS5voGYqTAoA3XdSsdxwuEwmHGjQgRgYHwNJtat6gmZ8VobLICBLS/EFhcg8OoXMxUGMlC/xqO1joTDeO10fHgNGJg6EYowvKbz9nxkNAA+mglIp9P+CmFyV4QSBuovPWfbNoFxqw3FcIBtmlbXyf2lLKun4IefMeA4jqxiJ5QwUPdf1z4UDO4IA4zRVWhuKD7GGFz6l4bXPow+fNl8MkA/rigzqMIcdu74qkq+8ReLOF3K6hh4tRU2gDBm9n1zbNRd6xpAlW31dLaIIQ5koK51uguiRqNR3EgIA9EQNhlXfMCsD6MnXTEmaIWv39qiSrX3r3/IpFg05z/UVelnrm4vbciz2qDAO9xB6xzZ19c3yFVVbbsBlVXel0RvJrPcP8QYUzFyina0+3XmEQfefO3la1ChUx1iVf7lm972L/lpNMZUjJiitR5gH2c1rww/SGw/x+5SvDAOwgCAjcfmDOjz7ILH4xqmb8pEbAy9ee/czmX2xXeM6K9sn/hDe+uS0I7b9k4/eLLW9J/r2qAJvUks7PD2WHs8iECEbZrxWgtePAZrHx6NRlOplNvsP/Bt01rDGP9L8a86+6sxa1Z4H2NWEFEmkwmFQl9Ve3CwfNZk7KwRsvvGwS0h2MDo6lyViAhrj8cn7bAtxKLk0Ou3tgJAn6qrMlecsrS/pCeNcyaNcxC3Zt/SCgCaACAWBQBtsP7EnG9gGA7I1rzkVRqzrbustVKrpRs2XD/Jt9c7/vzHww76gVcQtc058ehqCd7IjTbf8fPWdk9vmFW+ulO8O53p8FctJqqlqho23pLxBYu/uyn/6qIrLvnDte4WS6m+jjnu4aHIGFRUALAtq2fxp47RlfVrQfmlZDixoOByHv7nv/c78GgEzhI8o21ZPUs+Ddkr6Y752eknXnbxecXbXau49sbbzzjtHKqs8KsrlqWidqhryacFV5ctgWqrpl5r4+dnvz13//s9N/sraF/+x+vPufBSNn5q1rqTGt9783nLKnHHbb+7EgDYeJ3zk+oRFB0irN84PAZChHUmlNheHUEyhf8ejANb3Mt2szRYdQlHDzzypEBR9auajqOD9cI8PS7O1Nj1envjuTdJooeq60yB8GjHTcqubTbGIFbNzGBGoguVtSWTNWz87Xl5cLT7KtBah+snAchZJwClqGpiprPFti0AvfFE9Zh13TsMAPFuwEascuAX96DvkteBYtt1iNWiIppfViauU3Zt81WX/fr0Hx/jblzesWJk48YgQqzWt04A2nGuuep37ueqhsnxdKZYyz/6Yp5d23Taj4+56vcXFtxxVVgd4cC/A72ksPlRzVOPbp5+bNOlf60vaE7VGiBe98DJU49umnp0cyozCCNjA4BUqOCeDZZQ6P6HHs39/ePRVY/ap7VJJvtyGYzPZ+52Ouch69oqpXR3K3MPEV32xxtyhhvvNPH5zL2mN+dzb7TButzbPoTTZ9Lpznnc257pbAkKVajaU4rqqrFBCWTuZu4Y0VCfexS7W52ulpXKJ4Ar/nSjqm4M/gVEsYd7201Pm+lpc7pauLf9yMMOyJ33FxdlMg6ATMYZ2bSJ/9YdN3oU97Z7B/a2jx0zmojW33In3zpJa6erxf0bP867kKuvv7W0grrPCjOzf4bPl2LtUQBAgOHiFlCl8PNDO664t8EYuv+ZmvufqSkhPzHj9s3bVj+2wgxFYIAZ8Qws8LcfB7PWesgV+b7k3Xff5LsMzDjq+DPMqtmoUvT9PXd/+F9PeGVa3Ti5eeLcjz9DNOo9pT0rfD/kzNNPOO83l2nHAYBYnVI1E9Zeb/6ChV7RMb8/+9mhnT6dcm1LKdKpFHw7y6Sz19hNsQlu+ldcdcPVN9ya7uxCRUXOtRj05fdX1Mzc0dk1ZtJm/amyMSYUsgGMbNrY32gpNf+LN4NK7O75yXsfIRL2UrasoE8VPGNBTuzgi4aIcBzjNkJHErNbwVkvkYFpjXhvIdKOd9xm4w/6Vk86Q1c/UMegqw22A4ixtcLLDAa2tzjDRODXbm61iJEhvJ2tFYZsbN6MWV/kEifAAsim6rXc0vK9jsHaqHYOPegHweKYeeJPoEt0kgW/vv3uB4cfvP8At+2he25Wqt6tcSuieS3tqrKSmUfX1S5qez+vHC3L6ZynqhvdU6jq+gWLFlu2pbu7X3/z+albbIrhhpn/fO3lJ5xyFoiUZTmOo2IxEJmeLuauIdW9zjzthMt/e37x9hFNm6xY0Zl9YNLp+Hzbts/79e8vueLagj2vv+qSw4451bsVxsx64+2tpm4ezIBSKq8im+jNpJeVEgVVQkG11qFQKGQpr4EJWbvcqsmTo9fa8EYbAIypRWMNXmvDOwuIceR3G4/cswutYfxyvHvUa64BEL9KMDdnm5/eWAjjQANbN6KlA0vjmP0FDLB1I4gAhdnzAIAd3BFCGpXHO0wqk8nYto3h7vzkZB+iEffzldfcdOU1Nw0oonWIVbuFMLl54hGH/gjMIBo/bszyjhUjGup9O2Dm3JtR66OOOKi5cQKAcDgcjycAOI62LDWM1zLr9bdPOPVsVy9NPH7uL8+ORsIA6utr3/vg4002Wt8d8bgqp4j7/jeAUChc3WiFwyXr/oceuN9hBx2JmPcinbHz98FsWZa78y47bffMo/c5mSWRukna1YjKqlDdJEsp3dOFaAyWUkqlV8wt8Yp336cwDu6MIAzMmARHozOJz5dhdiuUwtSJ2LoJy3sxtwOT6mEMtm50Wy7xzgJsPgFNGdxZoqlZucb93iIYJ2eOa43G0rlYawQaKkGENxe4lQysPxpVEYQsvDIPd0bpyEQ4HHaHkhRUFVcFItLpxVZolFtZ9orAtjOd82bs/P3XXn+rYH/H6bDtBsSqQfTF3NYLLr7C/+m4k8/y37mmbzGAjvYPGiZuBACWddtd95UWvfj84bqWradvsdmG673zwccgQkXFJVdcU+IWWFZq+Ry3UlUGqRVzJ607rWX+Qq810LaZ8ObLT245dRf/ZR24uG6ttW2PRCzmlrVnyszPPf4UEVmWleluJSKielRWejtkn3/T15fOZCqK7jX19fUppUKhEO5fBz2fg4FxtZhY4zlPrSuwqAfVEWwwBhbhlZacqb3S6jkI0xpLd9P7PZkamNEEBl5rhQK2mQRt8EUayxdhXDUa672d27uxsAsEVE3Gj+YA6OvrC4VCK20QXX34r+x3Xn1qow3W8zwEov8+/8ru3z/IN/r0innTdtzznXc/cF9SfcvnBPMbqproe5BXXnrBT045btUzZgzbkVEciQJAX1Knl/pVNNu2qWpibs+etq91nxwlk8loNIr7GpFoh62w+QTP+CzAUthyAgDYCi+3YKtGALAt+I0IivBaS84Eg7zaCvdh2LoZfouPRXAMAMxqw7bN3uc35sMYaGDbJhjGW/OhDaJjcMiidDpNRLZtf1VFHLzTcAewAk7Al7ItK9kxx1Iq2rBWOpPxn0y3rTTXugyAec89dnvswbuGJWNa61BtM+fnDUWNZV936wRAiUQiGo0SEW4jz9S2afJq7sxo68SSHkxtHGgo0xttMAwQpmedsNmtAEDA1KZ+x4wy4402jK5GY513LpV9MAAczQDi8XgoFHIN9CspaNfFvPLqm848+1dIJQEFOKG6kbffeOWhB+5XUBExhpWi9bfY8ZO3X4c3QjGzxbY7vPHiv/12ieHNmzHm/Q8/2W7XfeLLFgE2YGBHTj3t+Kv/cPH/mwkLWQN9eh+0/SsnhBbhxRbYwEZjURleSRrJDN5f6NWBXFN7tQ02sPE4VIRWcmwf4b0WOMD2zXAMiDzpnXQAdv17zv2QcaLfVKivry8cDhMRnt4PLQ97gldbgfVGlWwBLUqA8FoLCAiFUB1FSCGZQm8KhsHA1s0rb41ztfOTpehKAgADzT/Atx5kZtcHdV9eYqDfUAN1HCeTyWitY27lizW6PsN9G6BANx0gZmNkDBVRpFJY1I2UcadwwAG2vRKf3YGOdwFAhTB+F2x4Ov69F2yAAQYiCmNrEQ6jrw/L4og7hdP1MsAB76B+I5DFzPF43LZt27b9qaFyq76hBupOiHNH0btjmoiosrLSc2L83qUPr8F7V6CrFQZQQF0zdn0AI6e5bd+pVCqTyfgtgm7SVVVVboculr+Jp3+ArpbssZOw6c+x/omAO2jUG2bhJuKOqw+Orhfr/EYbaMHICd9e3Q/Bae/u29adMew4jlvFdhXO3w5AKeVWXbXWwRmhoVDIrdhqrTOZjJumizt2yU9NZtALJQw0SME8ENdwicj917eeYFyGAnvyB+oHR0sFey/9KXJijsKQDbQ/htY/XnSs7wOILQqrxUAF4UtGgocJYqCCIAYqiIEKghioIIiBCmKggiAGKoiBCoIYqCCIgQpioIIgBiqIgQqCGKggiIEKYqCCIAYqiIEKghioIIiBCmKggiAGKoiBShEIYqCCUCYSWURYoxEFFcRABUEMVBADFQQxUEEIYK/KwW4o2oHbASRorbAqrPZmJjFNYY02UEFYFcQHFcRABUEMVBADFQQxUEEQAxXEQAVBDFQQAxUEMVBBEAMVxEAFQQxUEAMVBDFQQRADFcRABUEMVBADFQQxUEEQAxXEQAVBDFQQA5UiEMRABUEMVBADFQQxUEEQAxXEQAVBDFQQAxUEMVBBEAMVxEAF4Ss3UDesffDfgu0+wa9S1kIZDHkRhf6sUCnl7+BupHyQXZJGEFaLgQaN0hhjWZZlWb4tIphOdvEkIjLGOI6jlCowVkEYHgMtkExjTDgcZmZXEpFYgGf2x4JXwYACGDDgiKL1T8C217tWywARZTIZ1zpdrRUzFYbNQF27dE0TzCDCiyfhoxthETDQ4QxFacM/eAUjpxMpBlwztSxLXvrCqhqo+5NrmqFQyDPN2yJAJmeXBiBgXDVGViGkwEBfBot7sSwBK3geC+ueyNv8iZQFIJ1OW5YlUiqUb6BB4QyFQgTGswej5X6A3fc41h+F+goYRn8WxgxL4ZMl6Ez6ZsoHtlPlWGb2bdSvXQnCYA3Ut05mDoVsgHAzeYqogW2boQ0Gr3zM6E3h4yWA65CGMDMJstzXvV9/kpshDMpA86zTtkGE2y2wAYANxiAWRnnGxIz3FyGZAQEOcGwGynYch5ldl1RsVFi5gbpftdZa60g4DCLcRgDAwNZNnsdZPgwAs9sAMCw6qg/KTqfTSinLsiD+qFCEKrZOZtZahz3rVADgANMbwatonQAIIGzdDICg+fYwjBMKhRzH0Vojv19KEFDc1WmMca2T2MHtNsDQwIxGDKO2GfZslBg3hUAUiURcj0Luh9Cvgfqup1trwZ/DYA0AWw+rdfo2OqMZDIRBn9xCgG3bWmvptRdKG6j/cncNFL0tiAAMzJiE1eQXOgbj6wDgpRMAQ0SugUJe9EKxgSKroOFwmNjg72sBQCwER6+uMxNhQjUMAMO3V9I36UXvX6PjOGKCgzVQAG5NBYtfAAwAbDi2lHwyFO911oQr7q3XeuDbgKdmV+52+sSP5oW5PxvdphkMQhrZXqtvgoFusPmOVDWRqiZGR0wRExwYCtbcmTlkW7jFggWMrkJzQ/EBDzxX9bu7RmTtlmfd3GpZpa1z7QMn11UZ95ulMOuWlhKtAMx4rQ0WuHY92v9jV1EG2eQUlB/btguetKCh+13/a0qhV03MfYl3GdP9JWevoHxK3D4glF+kXxU2AiOVbLdZ3jW4UtapDS65uyFQmDRnQWidxkyJhGO6rkpnLZK0YVhAseISYdpEvNVO3Z/BOLZtp1IpdzTJSrMebVgrZ6zdrcGfDj7q5Iceedy33Z7Fn4RCoTXEOpnZG9XgYb78POy1/5FPP/v8QHskEo6zbE0orlwlyRgDAE98GwAc5MZ3MqN1CT5pA5Hbux54zDB/aennzJfY3N6KvR8+aUPLklz6FgGAMazsgnHQK5EBY/y/gp8Mm8Cvek0o6Pzb34HseNlUasWXr+7GBMun1J9eUwpNBYd7EoCW/wDA+iNzj3hPEqkMlMKn7ZbiiggD6E3QG/fNnbFRcqepidJF0GONrtdv3DtvxoZJgHsTCmkFZnzaDqWQzqC3L2fLrtQ+vZ97q/5/zxIhImMSHJ+f6phjetrWHGlfM1G+QYRCIbBG2AKAkbHg45YrXOC/17Zts3Hyw3vmIWFdd+YS4tJPv1L49x/mI6muPXNJ4xjnw7/OK5SJoOyt1QCAPnsYzOFwePVdreM4mUz2z3H8ZyCTyeS2ZzIlu399Ans6mYxTsGdBxTx/50x2H53JOEQqk3G0Nv6x/p4lm9v6G9ZjAiWZd4EZZ1BCyIy+FPr68v6QCp6i4DKNMQPL88DZHsx1+eRe0J7b5zbOO4HBSrUxLOuGo7F+o2uj1/50yVAEAw9fsiD3ZZ0J+LgNlkJNZW6n8XVo6UAYzEYpyx1BsjpefJM33GbhYi/ztm31Lv7Mti0AlRUjOFbv5THek84sz3/Y6qmqKueS5PvHTleL+0Frvcvu+738+tuey8FM+YMJKd6TcTq01lVj1vHtcrttpv/viQcAGOaKkV6l/pc/P/38n5/eMG6DnmTSnzwzdZMNZ7/8ZPC+EpGyRlrVMT8127KCd3vf733ngb/eNHCZ2CE70dnilkOxJRGRqhhnRSJ5tu446d52u6jqaYy54aY7T/npeQgOoYz3MHe5SXkJqhqqqsvZZSrFmaX93fGcggbyVWRia4/HehOHzUzWm4h1JuQ1YBkNgJXlv+JXl4LqHI6j/UvN264d//bcetffKDYBsapgjnQ+/ka7cvwLs97MOcREbttIIGWdvb8lUgDnUr7wwksj9ZO7Ewm/KJj59Xfe/+jjzwK3hayaJlRW+NZZcCFa64GlLniHqQhmVsqm2ATYdqES23a4tvnTz+YE75TjaCs06pSf/RIFA3xj1ZtstaubYG88QdWNiNXm3eJIhGITenp6S973/CpOvB3op1o5jHpWnJQxAIgNqMzBywcfdXKwMvTa7LeGI5t03Mk/y+XWcZDqRWVtcf6ZeeoOe8L3JpmR6M4TiaESDhfX/EC04YZbG72ciAyzHR7NkUhW45Xp6UEsVt7ZuEgUsjaqKTahv9LZcPquqeVzXOk1xoTCo1BZWWLPVOqdV59206wdtz5KlglRQ+PGqY45xa03Kk+0dN+gS9BsfVwTKjWjvwH50Bq3PlqzwSGTVn6buFC4h3pr73vgkfsfetT/a5+/cNUN9PEnn/WzQUC6p425d+uttvR3+Py9l7i33c3tO2+/52+/8ZrfG9MdLG5FpLtbmbuGYjWMeGKTjTbIu1tVVd4bH/CtE4DubjWmg3vb/dtPjsO97Q/de8vK3yoZJxwZq+xRuT8VqLclepRSlRUVS1veTa+Yh1TONzVa+47B3x74Z9A6laVuuvayRXPeQryXM0uzc3tqcre1L8W97dzbPrK+zn8FvfDyrOLsqTxTCNUMsvTmtYQdTVMPmrzeQZMR4sBLBsyAxeffMmKbE5quf6g+3ykaSFOpXOtcTTyYbUkFwPFety/gL7dc428889zfeIVrjBVo1j5+5qFEZNu2jsezF4ihzmz54oNXmDveefWpX/789JxNuCMl8nsxbNtyHMebhOhHJ0ilB1uMRKiI5v2hInA3uzOd83qXfFpfVxsK2ZxZGhS5i3//J/d+HXLIcUH1zayYd9xRh4wZPcqYFbnICdW1/j6ZvoWuE7Jo3jv+teyy8/eLc2f7iQJAxWhgUNFGmienmUFE1ZW85WGTFHEqQ5uvk1q8wm5bbMeihrP2NqjajiIATIpYg9aU0fWHH7z/bXfdl31jRNyCvuiyq/0dNtloffeDpZROZ5CVkzfeenfqFps6jrZiMdd7I1KO49hD6ZtZa1KTe1+OOOSHF/3+TwNJoKODUTOym9PDVQ5Kqbox63X19JBlscmb6vP0cy+c//PTmWFVVvg+CScS/u0L3kdjci3rodrmYoWCKVE5tgPPSvY3yiqhUl5jUJG5mLiyLdbGmxzPoHAIH86LAKiMMge6NO88f2G/rzAAloI27tudtGYQypLPe26/NujI/+n6215/851VvDE7bre1ZVlesqGQZdWNmjR56ZJlXmkwX/TLs/xb+Mvzz7zo0qvcr9N33GvK5OYv3v8IMe+tp7tXDKZvbIDXS1HhMeKdiNV5T0hN0zprT/5iTou/w1EnHDf4h7xQ3bNftda2XY/KahBBKebCCZLu86AUBWtju+7xreJTd6zoHPiKkLO8fAX103IcJ2QBZIE1QhZemeftErGxyTi4sUPcfiRtlKIt1k29/nHUS5iRILhf4kAseypL8RbrpgCAAZuAbAMWM95bjFT2KR/bAAAZEEibcrr+Dj5g3+DXhx99ctUNlIicrpZcv3msZunS5X7hNo4fG9z51+ededGFlyASdXf4Ym6Lb53KsjR3D6+6E1Em0xmKTUTIk5jPPp+b+zmVuuW6KwaZlG1bPYs/tUs9P7Y9ErGanKAkes+94NzfX3m9KVWB85Xl3fc/Kk6qrrY2+LX042qVeHfbvouQTqdDsRj6NCLIWSeAlINX27BtE2a3ebM+HNCMxuvPXLzNCU3aUB/wgQEI6yicyDiTAebpijTwx9OWKAKY8WobbHiHb92Ml1rz2g8WdQDA9HNBlEwm/Yg6w040Ggk+/4EHnUsagV/0uZYXIt3T9clnb6+79uSCnUPhSCYrSP7rqDoa7Vzy6Wpp1iWC0YANZsu2jGFFpFOpY2Ye+ufrLh+SYNuWVdL9oGydDMwL574zZtQIrfVlf7y+YDfXA/Zv2bJlHVprPwPZts+8y08u+7xkgRRvVADcQEtVsRjAmH5u7pZNbcSWEwHABma15jTYBma1WRZm/WVeSPE72Zl0nxicabw7P5u5aUxmu02TBMbsds8c3cNfa/G+bjkRUxtztjHtd2BdFYtVVFSspt7OraZu7n/Wjr7lznsBbLjlToiVGBnjONqubXaFYfHct52uFtPT1tcxx5jOAusEMPuNdzJKudacXPa56WnT3a3pFXNXLP4Eq2cyYCg6FpEIgHA43Ld8julpS62Yq5MLb7nxyvLdiXxy5U80ZtQIdzhRsNk1K7S2SacCVoZIbAIAR+t33vvwptvvYWbDDJO7m+HoWNu2lWVZlgWit975wK1Wlnh43NAMkXAY85/Af77nTS9GVu1IYcuJeKPds61pjbAVXmmBAhShT718S4s6fBJsBpPyTJBJE/9p/sMNDkBQADEY2KYZjsHrbVnrnwhFAMHAGz91G4EUvvMkxu1mWZb72Ayv9txy3eV/f+hffqGfeNo5J552zgDvPt+vHT1ug+NOPGri+HGuDG+79bTtt93K0dp/M261017+gZM3nHHicUewYRCNHTNqr+/sNiHfH1h1tNbINjOlHWePfQ/bcbutXZPaYP11fvSD7+eCug0Tdm2zSfYhHCrtE/ctpqoJvhOpbduqbiQibYyy1LFHHmRZ1nNPPrDLdw/wDqioUNWNnEjCaKu6Whtzw58uOeHow4ozbHsRl4jw1J75apt1Zi2FkAVHQwMgOMYzqfcXYoMxigh3zwMTogZtYVRrNGjElWetzPi0BwBM1vvMACEgZHkOB6m8RgM2eGJ3zDRuWDw/0thwUVFZkav35L9ZSnYZK6U8fysSvvn2ewp2sCz16TsvTW6eSETHHHnQrXfe56a1YNGSX11U5ALGuzKZzpI9imWglEK823MQmZ/574vP/PdF/9cDjzhJKTVjy01f+u+jqySf8V7EqtyvxhhEwgOU1aW/Oe+cX/7WN1/jjioEjDa1o9fpXT5n5x22QV8fotFc+hVRAG6t45Sfnn/cUYeUaKj3bsBbvwYAB5jWiBnN3sDN2a1uAxA2H+/JHhhEmDoBAOLpbG4IBKQURjuoYCQDNkdAVycATMv2bbo/uQkqYNY8ANDAjGZMa4Tby/jupa6BDvsr3lLqvVlPFxRtRCnd3VrySXjrlacGaFXQ2kzZeBv3803XXIZ4x0DnjtWGQvXDdSFExNxN/T+9xpiXX3/7/n88umqn6LRDdrCsEO9c3vZ+yZ1//tMfv//GcyUsTKkTT5jpJeAsO+bQA4qLWik1emRDyVtAyWQyEolQyz/w7P5gYHp2DmdG4+35ALBVExgwjNfbsM0kaANmzGqDAhxgm6aBrvLVVliAAbZqBBFsCy/PxbRGKAJl/drNJyBkuQ8dXm8DATv9FVMOSSaTtm0Pe9AR12fY8weHv/jy7I03Wu/lZx4Z4B5bVp2nUomkVV1FWW0IVmP/ce8t+3zvO8aYcMNk4/pnxtjhkBvDKqjWllJ9K+baw+QgnnLGL667+U4QwRgo5SbL4DwfMR5nXrEqZzHG/PGam35z6VXjx4356M3/rXR/R+vOzq7v7nf4J59+MX78mL/ees3ULTYN+mmu6Hzw0Sc/OvzE9gWL1l17rUf+dtu4saP7u8tZAwVwuwUwDLBNEzSDCAS81goCpjcBwCutsIFpjSCCRXi1BQCax2B0uHREh8VxtC73vE/NIBuz5mRtmr02ga2bwAADFnmuLQhHG2ZOJBKhUMi27a+q3X5k0ybLO1a4hep0twbGbSDSMNn/+tiDd+2x+86hukmu1d5501WHHrif9yvRsmUd46Zs4Rmopfo6hsdAe3p7a8as50qJ6Wnz3zZEVDN6nYTffrfKBvqVoyzLIgA3Ka+pRQGvteKzZWD2BNUBZreCGds1A8DrbWCGYzCqCgDmLUavU9hKw4zePrQsB4DRVXBc0Z0DANs1gxmz26Cz0UqYMacbr7X4o/vxZyIgFosNu6c/JKFdvmCh/wJLpdOWZTHDtu3XZr/JAQX97rd3ybmqwJGHHufW7ZjZtqxxE3Kd6bq7a7jkc+8DZvre3hk/+5WbN3eqTDKdm4Hz2JMPfq2tE4BXF8FtCmBs3QwGvliG5XEgK5bMeHchbIUNx3guqW+Ob7R5bQczmqEDRurrKxGmNWZP5b4zGB8sAgMbjwURKIxZnwNAQwxrjwARXmvxRTSdTrtv+a+maEIjEKnwDVZZlls/yL3fmc8967TfXnA2EeXNg8s2RAff73bITi793B6mmWhvvv3e1O2/m8tqtjaZV/+LdxgT/7qHuyJmBhvcEYIx2HYSMgZu0/o7C5DWoICZUqk5mW4LfNAZDW4sGTPHTYoZbyyEcRC2sNl4b4vXg6Uw02EglUqFQiEv0smXjtbajk1ASZNiJst659X/bLLheu6GS/9w3S8uvLTfWl28W+vOYWyRYGZlj0RFRclflVI7bDX12aceKmge/zqijDEgBUeBgFfm4YtlnvJtPgHbNMMBPlnibSlh3oRtmwDADgwxUcprh9+2qd+jAHyyBBkH2zRjs2wF/9OlXg+W18VPJVs0vjQsy9KJBZnOeZOaGxHvQDyOeC/iXTvtsA3H56dXzPWtE8DPf/pj09N2w1WXQGvEexCPI95lW9ZN11zGve3GdA1vexkRsV7Ove0H/3BvxLsQjyMeR7xj1MgRH735X6er5bn//H+wTgCktVYwuDMCNojasBQSaa/dJzA4fIBn2avRb70WjONteb0tV3Mf4EDPoMmr7FeGYRjJDEjhyBSU3dfX51fkv9piyg0MHUROhrTzl5+9rxe28oYsue2dE6AZzJjfhVkt/b6jC43c/Z/OKSgGEajRfae7zsD4GkysDTQOkD+0fg0p8SFl48vP8//juKq21tqybG+MyKst2KoZACbUYUItkpnBWLj3ITDazzNQW+XVnEqy6VhUZnvPlMKr8wCgT7vOscSzFSgej1dUVBAM7oiANRjQbsjFQcxDygauAQPVlaiMQvchnvHifOvBhW5kBhRebYHl9q9aOCoNUslkUikVCoUkOvg32kDdDhvbtmE07qqGSeZ+DFnYYmLpMcuuTLre5wC4Ntrf4UrhzTY4wdExYRyVgLIA+D1JsgzIN9pA0+m04ziWZYVCIW98/H3NSM73Jsi7Y5oMoICGStRGQYSuPiyOe1V1Br79GD6/G/OfQqoDAKonY9IP0fQ9PLaT54k6wJgq1EbAjM4+dCah2VuWzuvMtxAZhUMWui1QfjeSa50in99oA3UCk7Srqqq8ADjsIBPHnfWwB1xLzgDHsluHDJpRbqHEW2hAiSU4jKM6YcdAlquyPT097iqgtm3LSl8CmSzuPH9jTGVlpef2MYM1lI3eFrx6OuY+AuP2mwMbHIvtb0Z2JntPTw8CLZfMXFVVRUTeDi8cg49v8wIwWcCk/TDjKlQ1wThQXng9Iurp6XHX9XINVKxTgFtZDi4q5+J+jcViwdkLBbjb+/r6tNYFAzf9/kC3P72/w1376+3tBeC+yv2156RiJOQMFPkx6n0DDQZDdJ1U13SMMel0WmutAhS84v2IuG5fvzsuCYAxJpPJuLNYfNzDg0t2Q7RTCBooAr0RBevCIz94k6+Ivj0Vr7cZXKsuOLrCjyDlv75LriMvpimUMNCgeQU/BOevBd/XBS9iKjVjusA6/cN9E0fAcxW7FAZloCWN1f8aNKOBTcrXy+KkCg4U0xTKNNABLG+oh4hFCl+SgQrCl4b0IgpioIIgBiqIgQqCGKggiIEKYqCCIAYqiIEKghioIIiBCmKggiAGKoiBCoIYqCCIgQpioIIgBiqIgQqCGKggiIEKYqCCIAYqiIFKEQhioIIgBiqIgQqCGKggiIEKYqCCIAYqiIEKghioIIiBCmKggiAGKoiBCoIYqCCIgQpioIIgBiqIgQqCGKggiIEKYqCCIAYqiIEKghioIIiBCmKggiAGKgg+xMxSCoIgCGUgb3hBEIQyEQEVBEEoExFQQRCEMhEBFQRBKJM1RUDdvixmDn4YuINLur8EQfhq+cp64fs770pFk4jyLiD/a8ktgiAIqwMZxiQIglAm0gYqCIJQJiKggiAIZSICKgiCUCYioIIgCGUiAioIglAmIqCCIAhlIgIqCIJQJiKggiAIZSICKgiCUCYioIIgCGUiAioIglAmIqCCIAhlIgIqCIJQJiKggiAIZSICKgiCUCYioIIgCGUiAioIglAmIqCCIAhlIgIqCIJQJiKggiAIZSICKgiCUCYioIIgCGUiAioIglAmIqCCIAhlIgIqCIJQJiKggiAIZSICKgiCUCYioIIgCGUiAioIglAmIqCCIAhlIgIqCIJQJiKggiAIZSICKgiCUCYioIIgCGUiAioIglAm9ldyVmYmImZe9aT8dIhIbqcgCF8mw6NiK6X4LO4Wf3vBDgVfXZUkIv8D8hWzv8+CIAirj9UioCXV0Pc6jTH+RiJSSimlgqpXnKUCTXQTMcb4ibgEdy74KgiCMOwMs4AWeJTMHPxgWZZlWQioJ5gBBhuQhUEqHWswQAqUy7+rklprrbUvpgXCmrtmkVRBEIaD4RHQkrrpepqhUMird3v7GpCFdDfe+R0+vBaJOEKAZYMNwMBKMsMgIgXWcMAGmLA1bXkRJuwOAKwBhUCTaCaTYWalFPoRU1FSQRBWhfIFNHggZwFgjLFtWymVFU0DsrD8HTy5O3qWImyB9SBSz2opBf4dYGciMHMGmP5LmvobGA1S2V/IGOM4Tn9KKjIqCEJ5lCOgwUPchkgXVzezO2lkenBfMzLdpeXPASIK42owKoZICIZhzMrPrQhEYKC7D/O70NkHApSrlH7+AGVxSmPby2jTs8AGINczZeZMJhNsdZWmUkEQymZoAlrsdboCGg6Hvc5x46BvKe4aj4gFoz1Rc9XNAUZEsc4oKIJhABgWzXKzZCss7cVny0sMbNXgDY7D9jeR27wAEFE6naZ8vOIQGRUEYdAMVkALWjn9HvBQKASwV4m+fwP0fpanmwAiNjYf7ykmCKtboJhhKSzqwRcdhYNcU+DDvkCsiZTtXojW2hjjeqMio4IgDJUhCKgvnW7vUDgcBhjMIIUbCWHyJNP1N0MWpk6EY/BVihFjRR8+WQortwEg3vJCbPYLX0Ydx3HdZ7dqnysakVFBEAZkJQLq/+qKpquekUjE6yAiwo2EsL83YIBNxqIyhDVEffwK/uw2aJPLJ1m89RXY4BTKDp9KpVIFg1JFQAVBGJh+BbRkT1HeoPf7JiHZBjYAwIAGtm7MdpqvkdJDwPuLkEhnrxBwwDO7EYoRiLPeqCujUqMXBGGllBbQAvXMdzwNuufg/vVADMqON9pkLCpCwJoqnUEswistuaZYUqhoxIFz3GFPAPr6+lQWcUUFQRiAgQTU72TXWkejUYBhDP69C5a85DmeAKI2Nhn/dbpityveMXhzPgjeOyADPpGRnWzq9tEXzDEVGRUEoQDqL4pHcL55OBz2pl3eFgWlgWwP+ybjELW/Bl5nSRThtZbcV0N8wCeomUKkghoa7KAXDRUEIUjhsEk/4pHf7plTz1tUTj0NMKN58OrJDGY4GlAMxY72tqwKDNYGAMNiZhjjDqcaNJoxrRG1VdmSYHpgPXS8y6yJyB3ZGgxZglJRToSvF/96/D81Y9cjNYLUiOiItW6+9S9yZ4VVgYrVoajmDjDj9giQ8Q5ygO2boQdpc6yZbv1X7R/vq6+uNMabFoSehPrt8cv23bHXUoyhjA51w4/A5g0PnFxVaRhg9sbmV4T5xTtaOKkG6ykyAIPWJJYs97YY4OA2VI4HKWZOpVLB9lDxQL+mOI6++oZbf/7L3zmOU/CTZdvf2W2nf91/e3AEmyAMEuovDogxJhwOAyAw/r0LFr/kzWHXwDbNMIMa4MkMqjTr7D2lutIU786MnoT67J9fIEmD11BjcOa1o156t0Kb4kNYES49adnOWyQsa3DJuU2iHy9Bb8r7mgFOzMUqTaVSlmUVD7ZfFS6+9KpQOFS8PZPOnH/OGX7A06Li4n89/p9PPvvCFM15VUptvOF6395tZ8sSFejH0KkOsarSv8V7mLv6K/b/NzDz3x/6V0vrfGZTbhrkZDLn/fx0MadciQQDG/uz2o0xRGTbNsGg82M8tHFuclHJdk9Xhoig3Pghnihrg1v+VXvrv2pLiR0AKOKzDl2x/849g3zwmUERs+4P1qqu7M//5bRD7/1tLlKq4Exexkr6u4rwSovbnsEgROro0A5kZys5jmPb9jA2hhLVIlY91CfZGPOjI058+F9PaF34ANi2dcQhB9z4p0tCoZDYdDFam30OnPnEf/6rtS66FzRh/LjWj1/7f1+9MMbsse9hz/73RW1M+anE48wrxKJyj55vRsGed2OM1+3OCvdvnJsTGQuVbvdUhI/aEFRBY7B+kyI+8rvd1z5QF/C3OJ5UACIhDoc4mVL77tyjBm+6BBgaWavTDoHRGbdsxdWVxmSj5SmFb01LmGS2QqYIH7UiWDvTBhs0Fba/aoNpE/F6OxQIjNQKXvQiRm9DyrIsK5PJuG8UN5ipVOS/dihF/7r/DiLabNrO777xOqwKEOCkRoyfOH/O26GQLUUklIc3ndH94s/X9ILRscGi52Bn52hqYONxvneZgxkLO1DgQyqFRR00ui4Swnt/nztl7ykjanVfmp6+ev7IGh2UIKIhtIESwBl68YY2ZbHWpAhEjAre+IeTK8Lcl6YrTl22+9SElz4zFq5AQduWpbBgGcY2ID8TsAhV4dww+3/vSjO9z6FQyPVc/KD6oqEDU7wiy7AnO6Q0/Z3fnv3cas3YKiZY9gV+QwxguFIexnK2kXU/gx5oJBIBAGXhf4fn9o1aXtCQYiaMwIctCLY7aoOxDTCGCNynPr9/DpgMo1SX0dAugAhEAFNWsYkT9N5dLaTYaPJ+9Xcd14COHtiBjDkaE0aWfg2sOwZvtrkVecpk2I2DB1iW5c5Qckvpa6Sht955bzyRLA5TTUTf2mWH9daZUtBzctkfr49GI8XppNPpn51+UsmrDq4IcNlVN1x25fXL2+YDGcDyWpTD1dO3nnrYwT/sL1p2OpX+2RmFiXvJAiC64ea7Lvr9VQvntID7ALcuk4FdueFmGx9/9GHUjwW5eXY/G2NemfXGm2+/V3K1mPHjxv5g7+/6Z3fv8lXX3WzbdoGBHHbQDxrq6/wD333/w4MOP+mjd94Du9drAEzaYMNHH7xzow3WG8xjrLWxbevzOfPO/sVFjzz2lOldDoQABWhAVzSMPeWkoyeMH1PS2IhorUlN3/32rqve/WXb1qknHn3xr862bGtleS5x97XWtm1nMs5V1918/c13zft8LtLdgA0owAAOVdbvs9e3b7jmsrFjRg1+CUhmEMFtQHv/w0/Ov/DSfz7+FMc7ASubsqkcOe6sn5x04S9+6tYR+0vZcbRtW/c/9OhPzrlw/mefA8bPm4o1HHXID//0x99VxSrLWJ6SCsbMB+rvAJA31X3KSNRXlBZQt1xVNvqxP0bpK1eZXMayfvQAkfQU4eUWL/II2djqCmxwMpQNIJlMBrvjV9Fkv7Q20HFTtly8ZGmxaliWdfuNVx58wD4FGkEUQ6y+VMa6mbuLM+Y4+uFHnzxgv4OpuoZ1uYFj4l3MPX7ibrvzG2+/N2P6Dqq6wZTdYBfvYe7K5tO54Ld/uPQP15Xsf9tm66kvPPVQUECNYTs0CpUVBYK1/rpTPnj9uRtvuevHx5+BqqoBBuLZIXvbraY++/jfC9b7Cr5ymtbafP6yjrIv0LKsvffc/W933xiyB9UEMUAbqG1bZ5x83CW/Pse2B9ua4d6vn/z8wqsu+4NV06C19gRvJaYP9Pa+9OozW03d3LLUAFLlOLqjs2vMqClWTU1xy3Vxbizb1t3L4/GlFRVR35Dc2edW5XgKhbTjDJw9Uop7ls9r/XTi+LHFd63fG41AzT14g8EGTiI3TtQA9RUDSALgexhrhnQWZozztvSntlELGbe2bvDFPbThaf1ZD1ZPJSu44l6Jk64xoxWNMb3xRG3dJEQjiFWz4WG54654hUL1qKxBrM6sSnfHcMPMH338mV3bZLRBLDbwMGYn47zw0mu1Y9fvWfJp8MXj+ig773HAK7PeKK0Lrgwxr+HzU4wxx55y9t33PIBYrXchg8kwA7Gq7XbdG4lu5p6Shay1/te/n9n/wJlMhFhs5eoJgEh3r2DuDaZDREpVI1YHpaD1SrPHxiBWP2mDrRHvDCY1MCqoBX4V1fsxuTgvEJxa1TvqOaYVBiGjNVZlKD0zGKw1EDaIDHUMfX9GwchWYAlMiXYUzeNcvSOuK6vC9ZP6+4s0TH7okceL3c+vREqUUrW1jYhGisZjMOK9X7z/Mve2c2/7FRefr/qbMhHv9f4QDxq9bdciVlsi2b7kS8887CZ7x5//CMfpJ9lENtne4b9yIhN4VSgi1f9DwUBfOn33vQ8Gb5kx5qgTfvLKrNdLjAdQaqstN+P4fO5tz3S32swlmibcwoz3It6re+PJvr7heqcOdYieUuqWay/79fk/s/IHDCqlkMkg3ot4ot/GOSLEalV0XMlshCKjf3DwMaxUf5KnFMHRcBxLKTBblvWLs0/LZDr8Z9NxnOtuutOubUasrrgAlVKId8MYaI14d4mrrqwlqh7kw64G0gUa5kGFzPisPbTlQZOnHj5pxglN6x00+a4nalDpuf8rza27jzFAhbnkLw3rHTR5mxOaph42adMDJ/elaZgsKdAMhxItzau36ZNIazPA3xrigGptzr3gUrumpoSJJ7qZO9ea1OR+O+PU455/5hEqavGwLevyqy7NZJYZs8IY7Ras1ubuex+kqroSp0wkTGbZNltNdb8dfvD+8+e+jeJR8Zb60eEHptNuss5qensg2ff7X5/Dve26p013t3FvO1LJkvsaY356zq/tQMOiZVl/ufXu4regpdT3v/utV//3qPskWkqle9ujkWgJ6Ul0G7PCmBXGWfr4Q3fbtrXq1+Q4+vKrbrBrm6lqYr9/VF2gdJZl/fynP7739usQT+yx+y7J5XO4tz3VMUcnFxqzwpjlTmcL97Yj3l3y2WZLvTrrzeCLhJkpMgYVlf1J9gkzD+He9lTHPJ2YrxMLksvncHx+pnPexb88yx1oCEBr/dzzr5z2s18WvqKYifHckw8ml33B3G3i801igTFdpqcN8e6CQlbV9TN2+f5gis72u0SC/UielFSOg86OdCLAMavohBJhSmM6laZoBMagupKv/nv91X+vUwrdcbVuY/rcIzq23TIBBaSIDQEgixFhaDz9UtUldzcsWGZXVRqtiQjVlawNMSOZomi15tQqy70iJNO5zNau79ektNYFb9pvdkc8998KXNjDVhGNFL+eDfNLr77+01OPH/Q6qcYfaefuVlWqEs2Mjz75bPUOS0r0ar0imE+t9YvPP7H97vuVEltevmDRIJ+NqqqYv4isSyhkp1LFV2m7JbwmWKBtWQf84HvGLHfLAYBt22+/98G9f3v4/ocfmztnHpLdsEsLomVbf7zu5ntvv879mnGcu+95QEUiJdptmJFOda5oiVVWAPDfGf4ykcECV0p9e7fvF0+aUJa13957hGzrjbffLUh7+92/9fKrrwfPa4x57b/PDaoEgqIZHA1KAKwo/DQV0JHAyNgqCqhlY2SdjicpUD8hY1BVwQuWhU69cox7UUHb8PtjAVRGOdvbls2X4ukbpDk9HOakCKmM22rBRFhnJrEDKj00fbV0xDOrAWcUmDXDB7Us67cXnP27Cy9CZZETGquJNUxOrJjnflvR2T116k6IFvY9Gse56Jc/KxBW27YOO+gHhx98FCqri5KtJmsk62Xut1Q6XVvXVNJV+fX5Pyt+2w0vBS8PIhozZhQcB6V7YPKu0XGcX//uV7++9CqT7x9px7n3vn/ssdtOhx/yQzfNPfY9tDeeKOG6Dbp/Y3Xj99IcffwZd9xyh1VTZ4zh4BxFpUpUogPP9aJFS/xrsS3rwt9dWbIqrJRab7NNqqsGJT6pdBpklXp2zIMPP/7gw48PWq0iqXQ64kYCGUBAgx4oAsFEPGEfvSE6P3bHZ6BtBUZVQRGWxdHeibSGTairRFM9FIG5xJJH/gwlf0OG/ndzy3r7rxWLcv8ZI8ODGtzEjO64dc9l8ziuik7dX34AYhigdQVWJKANwjYm1GJUFeKO32lGaY21D0d+91rBYzP8JpnoTTkd6GdcLBtz0FE/fuTRJ7/yZtBsi3kPUT1ihWadzDhUNdHbx5himbNt+5wzT95gvXVKyhxzd0VtU8oUlXxFlGITlFLsJltZeF7Ltr/33W/tvefua/Ksdsuyzjv7tG22nrrH9w82CHS8EDFwxPFnHHH8GUpR6TclMxKdzPFhf3krRTOmT9191x2o/6LLpPoK9GhFZ9fIEc2I1QBArLq4K8kVk4F7AoONYz09vaXHuhGNGjliMFfNzKm+FFbdAJjBqWgkstJmUDu/2u59SKfTkUgErLHbw3hgXe951ozXWvPiN2UYS3uxpBcEZICtJ3rLDhPQmcTny5E2XszNkTGsMxLaEMAp9dH9czc4YHJQQ12lbQTuYtQyfqwwG9CENPCyQQ3jr4RfK9S4zjFl1TOhPv/XF0gQUXbEkqXwxTIsjnuJhhWmjEB9BdygI4Yxq71osTkHc5ZjzvJgmyeqGjxrYE6n0yhqJl5NQ0Fty+p3GNOw1toyjpPX4Dv0y2FmYzqIiKiq2NHgonFsRMSO3nr65q8+//jAySY6W4iI7JGIRgseJFNyeBzz5MYJcz6etfpGRwzju8eyrN133TGxYu6fb/vrT87+VbFWFm7JjtF54+1XN91og9VxgUqpbWdMO//npw9yGJPj6LvvfeC4U8721LNQ5eO33nnj0UccBKCvL/Xr3115+VU3rHT+qDFmj913uf8f/yr2D4wxzz/5n8FctVKqpqYaug8oMZy5ob7Ob0Zf2X0CtB5MUdsFFu8+SBFPehVq1wEp+DV5lVU7A4ysRG8KKe1tDAFvtkMD1YH5PH7yHXG8GocGZjQSmBx8/Pe5+5w5cVGH5RikQY8bjAcsd7gm4VpGC3AO8DfjXc8hwCEaBNpJIQ5WCttunLzyjCVIkDfyFIRXW70krFzZ47OlAFARQm8GViBLBohYiIXRkfRU3i8rw9jvfbABKbc0tNbpdLpgsO4aPpyemUeOqF+ydFmJJkhjfn7+b4885IcItN5M3ebbVD2CBz1yiIjC1RMc5KppRLTW5KaDD9j3P0//r33hIqXUiIb6raZtcfhBP9h+263c8w7GiZg4ZcvFHR2+ehJQXV31i7NO++ejT7bNX8jgEQ31G2+4/pGH/nD3XXcEoLUubg5bY9HGzJ3bss5GM2BlZ0Uzw3Fuvumq/zzz/DvvfxiPJyqi0QnjxuzxnV0P/dF+EyeMW6MukJlt2zr6iGNQWThYgojqGuqX9bRnL4stS0Ui4cFUJ4nor7ddc9/df0NFtMTPsWqieuYVBe/I4uYaZt7x29956ZVZxZLd2dl12MH777/Pd/0ep8JbM/Ry9saBuuPnlVKRSISIYDQR8J99MfdRT4+CCRpgm6bcZB5b4cWWnHIlAhGXx1ajJoqPl3q/2sDrbd6AfE3/vKwdET75wnHXfhwlyvZcZaVsMvC3QGWWABAz8FyGWneJTzphGRxvMxjoIXzSmieO64/CiiSW9HoHJ73GTW/5pu2b4Zi8/PvHMqCAu8aBgEl74Dv/htGWZUWjUSJyA9wh2Naxpj63Wuuzf3LSzBPPLPkMLFu2PFQ3iXvd/keLqqt4iIMuK0etk2HKq3Mx33nTn7abMe2Cc39asLPjvs+zj8oAyW44bZfFy5ab4GQ7pX59/s/OOPnYM087ob9kvy5zw4wxPT2962ywNcLhoHhA62OPPHjmYT8KDlkOXqP7eK5Jl1k6YFhnx4rv//DIa/5wUVVV7LEnnjn6iONLzxkpJaBamyv/dMlZ511ceuxnLEbVE9Hbu/ZGG26//Yyly5Y/9s9/w7ahVHAuhlLqf08+UKL6Ahjmg488CcZMnDj+2j/+btedt6uuqgLw8aefX3n1TTdffwsqKpBMsBlCtBTbn4DkTmIhMHrbcU+TJ3kle1AsoK0TE2q9e+8YzGjE0l60BE6sgW1dkSVs3YgF3VjgTQvBZ8swvZHcttEUXXfOYriDQ7+I4LYReD8KAmz2HFsDOAQCtkji2GU0NkMpNYkAJ1j5V/hoXq5tYVwNJtQChNoKrDUiN7nIZVI9RlV56y27T2nrirxKvZuwa97zn8CtBA0+pAWxiQCFw2E3tsia7/JYlnXYQfsfccgxpS3YVf/sTzn1HNwQbmZOxuMFjU0MbL/bPm4c/xKHuPczmYSTrhkz9rqrLjnsoB+4PmlwmG1b2wKT7zIbY35y9gU/PefXAyWbSiHdZ9XUXXnxeaederzWxg1AuAbel6XLlqM4aFY0SlUTrX4a7xgwWiORAPR239rtwb/ePGb0SHxFrw0i0lqfdMapN93212KlY+Dxp559fJNns6pXPfiULUud9uNj9tpjt/U33pYtq4QdMhCr+nxe6+fzWgHkXkKVNWSP7OyYW10Vcx9MnV6y0ZY7fzq3paCzDkSwrPaFi/c96JjCxCsrAaCikqim5Ly7kihXPT05ACPehr81wc7qiCJMGYFRMRQU1MJuzGrz5pi7889HVWFGM5ysRatsQxUBRJhQi5CVU6hZbTn9IkABKYWJGfxqEf42D/fNw19acGcL7mzBX1q8LT9fjBEaGQUVePm5NffX5uW2RGxMrPPaYZGbwOmuwYmtmzGqCv6EeVthVjsW5I8C08DIGKaMyOXfBt3XTIn5YOMGq3ccx4/Yv8YKaNZH7kK8c6WDbIkI8W7ubcdgJn4AAJIr5pYY4kfEzNqY4j8XRCKIVXf3xg8/9jSKTbDskfMXLAz2M8SXfoZ4x5CTDYXcfozTz/0NxSbYFWNnv/GOHvS1fJk3Za1JzQfsv3fJ1saSF+heI4gQiyFW89Irs8dO3syum1Q/dr2v6iqUUtdccdExRx2y8jZTZqTS66691iALx1Jq3bXXSvfOv+Q3vyge5zvAkYhERjdv8uTT/9PZtssP3/qf7mqpDIVs2x7ClB0iqqolCmGQA+ldFfDaEdjg3cugskpngOlNqK/EpBGY0YRpjdi6GSNjXouoAl6dh/cXZoWGoBnbNsMi79dFcW/NTrccN58AW3mSZAGzWpHUJS7Mb45UyNPKkvcm6WB2S66FIWxh0/F5Oyzq9bxLS3kesZ/b9xfi1RYo9q60IYYZzZjWiBlNmDwC9ZXYqjE3isuy8N4VCIxDXDUBjSOeKPGXnZPTH6m+tI4niw904slUKt1PIbHjdH3x4auIx13T9wObKqUsSyHefc6ZJ5ueNmO6Mhnntxedh76+oowlilMOh0LM3Xt+e5fye72JUFnZOGnzZF8qPyRY4rQTjy7ftyJCOLz1jnt+8tkXvoam0xmTKFHmJp7o60uVKrgh3CNjGKlE6f11olAjLHXfHdctmfcO+vrKvkDtOJ298bpx6w/puL5USidK2086kxnSa8CyrD//6ZJM57yjDz0A8V7LsnzLUoosy0I8vuOMaRyf7/Qt+vit/yG+uLDkE/2UPGDb1s9/+mMnsYB72y+7+DwkkkinC+Kae2cxjHjPVltululuiy/74rvf3sWPOenaT3zF3L7lX3B8/o7bTEe8C9oUpaMsy0Img3jXNltPXTTnLdPTZkwag6tfUiqVcuvvyp2Vxho3hRDK+m4G2HwcIoEYoK6h2wpvtCOjvTE3sTA2Guv1dAP4YhlWJAGAgW0mwQk4Ap8vQ2dg2kZlBBuNzgrnkGB8uAzxQFJ1FVh7JPzIz7bCq62eftdXYMpI79EC48MliKe8nIdtbDnBaw8NXmOa8Va7p+B+mPps9TYej1uWZVmWHyQUQ6nODyC7AycysF6v9Fi3vuzrneu7uVex0lMU7GMM23ZNQee7Dc70zp/9xtvt8xeu6OzKNlDSsuUdjz35zEvPPo9otLheZtv2DX+65MhDDrBti4iIKhAbkf+66WXufOvd91ta5/f09Cb7+txkl69Y8fRzLzzz+H9KJmspdcqJM6+45Fe2ZZVRdEO6R4NM3HWiTzr93Dv++ncnnQlOFL7pmsu+tesOc+e1Ll26bEWXN79QO/rDTz77yz0Pdvb0lF4DIhAwZRUND6sWGs4NK+VvdBztLo6w0jnQgwvL5EZ5Z6Xy4vi4b8fBB/5wE3GngfiHGONWwctcb4JSqZTjOJWVlWAGG8w+Ex9cAzaBanJWRKZmRykFcoR4Gu8v9oSmodLTKWYsT2BudqGh4BpKzEg5eHehp5luqa4/BtXhPAkbsBgQBz5sy0th04DKWwovzss1azY3YFTM23NOBzri3otho9GoihReDiu83uLtnFcChI1/ium/BxQDjuO4HXbfwOXjs9NgalFZVVB6H731v7XXmlwcZYeZMxnnpVdn77bXgSUepGSfzngDqpWqLRgZQ0QP3XvLXt/Ztbjn1A08sWTp8gmTNysxiN1xWj9/c8L4sWvOsNCM4/z05xfecMtdBSN1SDs6sbA4TKJfVlUjpySKahhENHbMqAWfv/lNsLo1Fkomk270T2KNWWfio+u8tY8A2AoVIfSm4GSjOxLgAOuPQUMUwU5bRXipFSHAAFtmq+qK8Hob0oywhWkTEAzYQ8Db85HWOYUywNZrAc5K6uwMzGrLq9qHbWw+Pq/j0j1vyiBEmN7ojRbQBm/MhwIcYJtgRHqCYnQafDgfdvYaNWATqsJIZnKd9WRhw1Mx/XI3wF1fX5/rfvo+3TdMQBsQKzVFL5mEHdpltx03WG/tcCTc2xt/+90PX3/hZa+Fvmj8ptJ6zqevN04cn61RVZWeu5JKgWj7nbffeIP1otFIOpN54613X3v+FYTsEtLJrIie+Oc9u+603WqdkjRUHMc5/NjT7//Ho8XTtJVlmZ7O0ZPW2nn7GRMnjgPQ0tL+1HMv9CxaoKrrTHEwIYLSWicWioR9xQKaSCQqKio8efrrSKRXeE5dTRTrjvIm8/hj1D9dimUJr1NbA+OqMbkBOr/+6/cO+eLYn7BYhFda8n4dVYfm6tK9b2C0rMDS/BA7M/pfHLSgNzmYK+9yCC2dmN+du5wRFVh/dK467570s6Xo6vNsNlSNwzrdDg3XCXXbU3wf5xuioVrrBx9+/JCZJ+tBRAkbIJVzf376Rb88y9c4rfUHH326+Va7Mqkyk2UG8IO9v/vgvbessaWnomMRCpXZes6sbNt0r0gklkQiYVkp9isnIKBGY/Hz+Pe3csPmDbBVkz//MaekitCbwnvZYHcO8vpnhmANABiJND5YnJPR8aMwPloimllwIBQDG45BLFxisuZgnjFFeDk7aFQDm4xBLJKb+hkciTerLTDzirDHUxi7M5TNzOl02u18C654/I2yZmPMnHltm03fNdHZZVfFtDHM3N8oKPcdY3p6Y/V199x94957fbu/kUZa62UdnRtP3XlZ+wKrusoMnCwRKaV74yoa+fN1Vxx71MFu08oaeyP8gcNuKGJUVFvZBWNKGGq2l0On0+jr+dZ393zskXvCtsXudBORzjVBQJPJJIBIJOIKAG4krwcpoBtwgFgI645CRcjzN309tRTmLMeoelSifK+hI4E5yz1l1MB2k6BN3lgl28pr1lxrBBoqyz9dbwodCUweAT+Iuu9iJ9L4bBniGe9cQS8hBZzE7hNARMF+pG9aM2ixIjhaDxwX3W2vLOiwWvVkAWQcx/4aLvbnXqBhpqLoJAVorb+Zb+ivBTYzewt4sMZ/9kbE8tpAGdimGY4BuQuxdePNBTmvrSaCjcaAAW0wqWFVc9FQic+We6ORFEosWJTRgXmWQENl+eciQnUU1dFcy8MHi9CdylXk12rAuGqvIm+rXCND1MIzP8CuDxApBIz+SwoVuqbiXvVKZc5dJXvYkx3kPmtsuVmDsJk1qhlXKCDf+NY9FvOfzN5h4JOlWGckDMNhjKnGmGrP5fxsKZYkMKsVSmHqhGHIxRfLA7PXAQtw8mwNdjCAHTBnOdYasaonVYQ32+EYOMDoSqwzKueQOtmWis96Ao6wwVqHuBPk/WegIJ6/OAiC8I2Cksmk64S60cfw2R14+QSYgMengbFVmDIib7BksBe7bNFwE1nQlTcXaAO3cbOIgqbSCbUYVzMMZ/cuInBRtoU5nVjQmT873sZ2N2Lto0DuyHskk0m/B0lqWILwzYT6+vrciXRusAxPR969FK/9AsV1IwNYhEkNGF0FswpLb7oHhiy8NC8vPt7AS8RzUUyT7Sa5a8CVnwciKMKSHsxbAc1QRWdxgK1+i83ORdbNBJBIJHz1DAqoIAjfKMiN0uavZuz1h/jisvA5PLarN5+9ZKxTDSigvgKjq1BbAYvAgDGlVygigqWQcvDpEvSkc9LpahapbGA6LjoXeRVn1siFbQIAGKA2irVHImJB97OyEpE3N18zutNY1IWuJDRy8Znyg3J5iez5DMbt6heFW0OPx+Nur5E7AywonaKhgvBNgxzH8cPZ+avDV1VV5Vr3XEVz9ev1X+DNS0CAbeXG269aBpBiHPA6Gjb15sCrfprMmcGO28eE5W/igRmI9KPpQ86C5U023eIcTLsEAFgDCoGWzXQ6nUql/D53qbkLggDAC7gfVE//gztH3u2jD/SQsDfpU9kwGXxxLz66FotmQwNhwB0CzaYfaSOQAmukgJHrYc+nEZs41HYAb70m95Deefj3d7DsU0QAslZ2XgYbpAELGLsVNjgZUw6GCsE4XraRq6S7MbvcBmLf0yyIQZDNhainIHxDya1YElyV01dSH3iRqG034nJhIGHOxoxjM5AXCcBkQMoLbR9w8Xp7e1FqSFBwnTsvAWOi0WgoFPI03dtuwAYq1P95HSDbSoCcXgcvxHEcN7QKBQiKpk+u+EQ9BeEbTKE8uXApgtsBuMpLRKFQyA3m5B+7klNmFwpOpVJ+RP4CbfKrxgWLNRWcnZkjkUgoG5528EFxHMfJZDJ+6MBgZbxAKPub6i7SKQgClVwrLbixpHoWfAguK99fOsFgMyXVauBKcVDoXR8ZuThXpnjP4pMWnx2BuIHZaECqeAcUDfkUBEFAsYAGCUpPcONK/y1OIe+URco1mHpxyTwEvVHkry1aMpGgGhZIZ8k8yNh4QRAGgAYfFaZg1k3JX4s/F55vwEE/g1myEflV+/5OXbBPQeIDnEgUUxCEQUKrvqpPQd12gBp0wW6rKFXFKZQ8dVBSkS/BopWCIKwKtCYviyYIgrAms6asdiAIgvC1QwRUEAShTERABUEQykQEVBAEoUxEQAVBEMpEBFQQBKFMREAFQRDKRARUEAShTERABUEQykQEVBAEoUxEQAVBEMpEBFQQBKFMREAFQRDKRARUEAShTERABUEQykQEVBAEoUxEQAVBEMpEBFQQBKFMREAFQRDKRARUEAShTERABUEQykQEVBAEoUxEQAVBEMpEBFQQBKFMREAFQRDKRARUEAShTERABUEQykQEVBAEoUxEQAVBEMpEBFQQBKFMREAFQRDKRARUEAShTERABUEQykQEVBAEoUxEQAVBEMpEBFQQBKFMREAFQRDKRARUEAShTERABUEQykQEVBAEoUxEQAVBEMpEBFQQBKFMREAFQRDKRARUEAShTERABUEQykQEVBAEoUxEQAVBEMpEBFQQBKFMREAFQRDKRARUEAShTERABUEQyoSYWUpBEAShDMQDFQRBKBMRUEEQhDIRARUEQSgTEVBBEIQyEQEVBEEoExFQQRCEMhEBFQRBKBMRUEEQhDIRARUEQSgTEVBBEIQyWSME1J1Oysz+vNLgBNOCz/7OcvMEQfhq+SrnwjMzEWHV1NBPoeCDIAjC6uYrFtDBbOlPGQcQStFQQRC+BL7iaEzu2UXvBEH4OiLh7ARBEMpEeuEFQRDKRARUEAShTERABUEQykQEVBAEoUxEQAVBEMpEBFQQBKFMREAFQRDKRARUEAShTERABUEQykQEVBAEoUxEQAVBEMpEBFQQBKFMREAFQRDKRARUEAShTERABUEQykQEVBAEoUxEQAVBEMpEBFQQBKFMREAFQRDKRARUEAShTERABUEQykQEVBAEoUxEQAVBEMpEBFQQBKFMREAFQRDKRARUEAShTERABUEQykQEVBAEoUxEQAVBEMpEBFQQBKFMREAFQRDKRARUEAShTERABUEQykQEVBAEoUxEQAVBEMpEBFQQBKFMREAFQRDKRARUEAShTERABUEQykQEVBAEoUxEQAVBEMpEBFQQBKFMREAFQRDKRARUEAShTERABUEQykQEVBAEoUxEQAVBEMpEBFQQBKFMREAFQRDKRARUEAShTERABUEQykQEVBAEoUxEQAVBEMpEBFQQBKFMREAFQRDKRARUEAShTERABUEQykQEVBAEoUxEQAVBEMpEBFQQBKFMREAFQRDKRARUEAShTERABUEQykQEVBAEoUxEQAVBEMpEBFQQBKFMREAFQRDKRARUEAShTERABUEQykQEVBAEoUxEQAVBEMrE/grPzcyrmAIRyS0UBOGr4qv3QInI1UH/AwLK6P9UcIj/mZl9IQ5+FgRBWN3Ql6M4wbME9Y6Igl+Ld0a+XBYrLEr5oeKZCoLwJbDaBbRYOl0/0ZXOYtEM+qHBA/1jlVL+nsiX1AJVdc8i91gQhNXEahFQN80C7zIogv6/SimlVLFoBnNV/JOL1trd4kpqcTtAycMFQRCGi2EW0GCtvLhpkpmNMUop27ZdXQs6nu6u/eeU/NSCh7hKaoxBVj2DjaqBo8UhFQRhmBlOAe2vtg7AGENErm7mFNDb1YAAsgZ5DrAGKYAQkGA3WcdxXJUs2TGVu2aRUUEQhoPhEdACxzP4gZkty7Isy98tK4KW51TOfxrz7kf744jPRx+DskMDXJXj7J8CYnXcsBlNPgCTfoiKMQBgHE95s2cnIq214zh+vT6op7nLFg0VBGGVWVUBLehJB2CMcXXTGGPbtmVZzEzk6qCBsgCg7TG8fh4WvwMF2ABZYAOsNCcEEEhBO8gAsRre+Ce06VmwYzCaSbk+p5slY0wmk/EbWIOVelFPQRCGhWEQUP9DENfrZOZcPV1ZWPg/PH84VrQhTAABZhVODBCBFBwNBjb9Cc+40j0RgXwZ9b3R4uZRaRIVBGEVKVNAi5s73W4cVz3D4XBOOmFAFmadjTcvRxgAgRkDCxcHnFECBqNyZCGtUdfE33kKdesRGwRkNJPJuOOfCqrzIqCCIKwK5QhogXr6AmqMCYVCSinPuTMOlI3nDsMnf0XEAuvSyTkAAVEL1RFURVAZRtiCIsB1UhmakcygN4XeFOJpOIAqNYXK9UmZYVdjn1moW98T8WwLQzqdLumKihEIglAeqySgBdX2gOPJIIU3L8Cs3yBiweicF8nZujsDDVGMr0VN1E0LZmU5IQIRFKEvgyW9WNyNFJeazU9gRsUYPrAFZJPK9V9lMhl3j+LBp6KkgiAMlaEJaLHv6Q/AtG0728lu0DMH962DUL50ujjAqEpMakDYgvbbQAlDki83G4pAhKW9mNcBh6Gy6uynmWFs/GPe7jq/Rg9Aa621dvvoXRn19hYBFQRhiAxBQEuqp9tfpJTydQjP/BBzHyysYrvSts4ojKiEY7w9Vx1fSTXj86Xo6IMVkFEGlMUZTUcsRbgOyvavwq3OB/1QEVBBEIZKOR6oX2d3Gz3h6pU7Dum2CCzKOZ6uljGw8VhURaANVodOsfcfLIWPl6AjiYJR+Q6wzWXY5KzgVRRrKERGBUEYCkP2QH3pNMaEw2G4omMcdL6Pv2+BcP4xDrDuCIyqWl3SmZ+/7DUBby3whjdldZyVQv1U2neWfyVElEqliv1QGd4kCMIgGZSAFvQauTV3z/ckgtH4+Aa8fGpuyJGrXJVhbDoOzuqXzvy8AgARelJ4f3FeFxNZYAtHp9x9XA3t6+uzLIuIgu2hEFdUEIRBsHIBLVbPPN+TNV7/Bd67wpvS7uIAG45Grdu9DnwFWsRgwLYxuwXa+HlgENJMJ7Kvocgf3lQQK08QBGEABuuBBts93ZggXs199s/w4bV5ve0GmNEEw/hqNcgVTSK0rMCibsDXUFAaKKWh0h4qCMKQGJQHGlRPr8/dVc+3f423LwEH1NO2MG3icPazrzrM6HXwwUKonIYiDc8PzcZ1dhzHr8iXjOEkCIJQwEACWhD/2G/6JACs0fZPPH0AEKi5V0Ww0diVj4f/8mFGhvFme0BDiRDG0X3+lbpj7IunKgmCIPRHv4vKFYz69Js+iQAYxFvx5P556lkdwYZj1kT1dAkRpk1ENuQTgZkcfmgzZm8igDuNyn1JID+EviAIQklKC6gvHMHYdK7EgAGy8JcpsAK9QxUhbDAGa6zauL6kRdhyfE5DWaPrA7x3GYyDwFRU92LF/RQEYaWUFtDidYOD6w7h7gZEApMvFWHT8WuuemYvCQBCFjYeB2Q11Gh67VykOgD2NNay3Mmp7r+CIAgDUEJAi1d/c2ccEQDj4IM/wunOxZtzgK2a19yaexAigBCzMa7GU38CLODOMUzKjV7vzuj3/W7IWvOCIPRPCQGlwPJtLq6sAAApvHgmjAYABgyw1UQ4+mtzue7ApqY6hHKTPTli4dkf+hX5SCQSHHggJiIIQn+U9kCRP3opO0uHcc8YhCnnvjXVQX0N2woZmDoRTqAi//mDcBIAF788gmUiCIIQpFBAi9XTnXQEo7HkZfR15AWLn1Drxej8esGAY7DJGP862Ca+r9HvFAuHw8HueLESQRBKkiegxQHr/KUuoSz8cweQAQAGNDC9MRDQ82uFW5GvCiMazm5gZHrQ8Q5YB6OKQAT0/wvB8LUFJi6FI5RNnoAGK7Duvzn3s+URWFlPk4BRle40nsGaL1gbAAyLmd3p6au4mB2Y4WhAMRQ72tsylCQIm4+HzrrUxPzIVvDCMsMfFor8CQXC1xFmNoaJaJ8DjyZ7JFE9WSN32G2fRLJPhlsIqwIVN/P5w+aNMZFIxFvJ/RblBdl03c/tm6EHJShe51PUvPxG5U2P1LUtsadMyBy/d+e0TZOccodGlfNEGEMO4+LbR8z+KGpbvMeM+MkHrtB9yrIGHbzEzdmcZehIZrcQ9n0DDZuCLGb2g91J4PqvNa6bOa+1fcrkDa2aEVp7fZ5KKdPb+8/H/r7nt3d1J6BJWQlDpYSAus1/Wmt3aWKCwYoP8I/Ncro0rsZr/Vy57QIAhc1mh0wO2eyuEacIDGhNb907l/vU0O2WmfC7O0fc81RNLGpMdrWOzh51w1mLd9kyqYbUKmuH8MIX2UkBxKFaOqwD7sKgzO7K8hK4/v+DoVMlKusLLYMZiR5juuTOCuUxUCeSbdtEABSe/E7O8hyguX6QEkXEVGHW/+FaIYuZYZgAMkzMsCze+IC1qMIAQwqJD2Pomr/VP/J8VSTE2hCDmMkYqq7kn10z+qN54aFVtTNpjK7MvhuYkp1w4u7j5C4vWtBMtooVeffN5PSD1rq/9N3tmUzpAzMZR0y5P7TW77z3IWINJYyWyKqp//Otf/Hd0v+vDGw/g8fvXBVc7JJl7UZlz63t3r0IoezPIysGHyNZG7rsphE1MaMN8mvWxMyVUXP3w7WH7N5jWUPIsYqaax+qq6rggiwQQSkccP74j/4xB0kaQhTSKSOxtNVtoOCQhRePo53/6uawQENX3Ulh5n/9++lPP5vjzsHPuy6lNt5w/e/svvMA5/j9H64JhcPF21N9qV/94qdizaXLHHhl1htKqX6aO/mVWW8cf/Sh34Si+P0frg2FQ2UfTkS777rjZptsKN66j+0/2Mifg2TbNgCwxnuXI6zgPvAGmDJy8Klblebep6tDdsl2SdKGr36g/vC9u5BWg0xQG/zzPzW1MWOYSt1ghEPctcSurjJDG58aVcgYAMSaP7mPd76HmAGEQqF0Oj2MxW0M333vA48+/nSxy2PZ1pGH/ujbu+2U66wr4sLzf4PK6hI/JFaIgPb72ANTJjcPIArNTRONMX4s7f/HXHj+b1BZVfbhylI11dWbbLTBN6CoBl0mpR5yA8CyLAKgbLxxAXx3ySJYqrT76XbKKwW30ynbAJpMqQGcwe64wlBuhiK8/nF0AOfStvi9OZG8SkZRxgoeIDBj7dG5DTaQXMjZQfXDPivJGKO11sYU/mm90h5hrU2JA435f18DXSUTV2r3XXc0PZ0l7j6zTiR/cspx1pAqQV9bShve4P+0MVJ/L7CurIzkxALBlj5mpDO53SfWouRDzox4Hz5pw4ct+KQNiey6Q4qNKbZbP3kChjaayTBG1WrKnrNkm+TIeicYCgWJVHHG8iBCbRTZVkS2LLx+LmXz5Q8ILRjjJXydhMOYcy44z7ILG6zscGin3XaqramWIhLKQyE/Xob72bIsZgYbtD6McFaODDC2pkQazOhNYmEHKOufzl+GeIrAlFQbTE4r5ScOIu5LqZ6EUsSW4s3XSaFvCJVtpXDwt7odTUpx2kFfWqUyFFT7noRaf0qKfImN92H+slzGFixHb18JDdUGMe/pItb47C8gzyVxfRNpO//6QkSWUr+74Ox7brsG8TgSCaRSSCYR7/7FT09+7t/3F6wnKAiDJ/dOzrmFRF6NhhTeuzyv5msRiiuLlsKC5ShoF5m/DOs3Gs23nrvo22dMtBSI2FI4Yo/uU4/oAOMfT9Zc+2DdbecvAtPg+3sU8ZhxmbXGZ9ZvTv9q5rJwjUn0qi0Pm1QZZSK2Ley8RZ9JZ9s/LYX5y/IyxowFy7B+U6GGMmNCHeYs80rAMQy4wmxZluM4fm+SPGlfV4h+sM9ezCsApNLpcChERNL0IawiuSifvh/qNqh7QrHglVwDaG3EW+woiDsBiAuNFWxARIRRtfqoPbsAWAo1MXPKwSuQJE6qvbfvfeaatsrQUN06ogw98Nv5vzl2WcgGJ1QEuPP8RUqxpdCXppsuWKiIiVAiV17G+mmSbajIvRts0LI3AOOXTNADFQ0dmNUUy4rzGerhBNi25aYTDoXcD8PS9LmKGfsSiu7/jQ2sesrDeLOyUpH1PSm7vFr2VAARdMBJHVVVUtBK9Cl5szyZCER8+o86d5meuODPox65qo37lDvu3bKCwY+G+izk3ErL4ukbJY/5Xtei5favT1mKpOJs5E9QUQtrf0VGFOz7ZmVj7v3UsDkIwfHzwRJfw2XUzarTb6RBDoVCBfsbYwyXnmGrFA1cz2Vmw6z6WUvKcZwBbHWAxH2DLLmD4+gBngEisqzcUZlMpr/OzFDILqhb9JfhUChv1IrWxratgow5jrYsNUgLyaaj3UEvxYcMOMK38CauEn19K93FKEtrXdxt4Tte/sLgJW3AfV1ROTNn2NE61E8RuecdOFk/hyVfmUO6ZYUCWtD6GTwp+pbl1NMA9RWl09AGI2uxosfTTfffUXXQ7nBRImCTSelHLmvnvtUx/IEU+Ph9ughAH3FubihBG4yuw/LuPKEcXZvNWMF9YETDyKQBgDXmPYhplyDrp7hF//XyPZN9fX++9S+uZRSQSqXPOuOkoC9umJ97/uWPPvm8eIAqEa291qQ9dt+lvxM5jrZt64MPPv75eRc/8cz/EO8AbEABBjCVo8adcsLM8eNGlyw9Itp80422mzG94Fdm1sbYltXaNv/sX1z04D8f1z3LARuwAA3oSN2oH58ws7lpQn/JThg3dt/v7+H/+qfrbw2XGgKZyThnnnZCwcYHHn5s6dLlBS8TZpz+42OyJm9sy7rgt1dc8ccb0l1LgBBAQIYq68449fgrL73AHVAx8CvH3+H6m+/67WVXL5nXCqSzDksGodimW252zBEH9dfAlUqlzjrjx8NjK/EVqdSKwfhjtmUFx3sFl6uY9fpbV1590z8feyrd1QGY7IU4QGjsWpN+cdZpp544053fOHjddIuIiK6+/tbLr7ph8dz8IgpXbbf9jJuuu3zD9dftT0b9ROKJxKk/Oe/Oex4wvcuAMECAA4QnrjPlT5dd+IN993JldKjPOAWXLA6GsCM2aH8cT+/jvXAcYLvm0tLjsqwLy7o9p29ULUbUrClCsrwbS7u8jI2swcjafm6XwZwudPQgGyaUZmp30eNMJuMHRV1FGXUcfcDhx//rsf/oosEMlqWOOuzAP1/9+5KS57pIRLWIleoyjncwJ/JeB8YsXbZ8wqTNUMpJoXhXxukMul2ZTOakM37xl/seLHZaLcva7/t73HP7tQUjJf3Db7n9nuOOPgkVMWXbJUdi2ZbF/T+QPz7hqMsvPs9/rvxkH3/imb2+dxBCthUOl2ysHOBRtCxrh223euLhv7rVdgAhu4FLFR0lEpnM0gIPdJtd937jrfcKryXelcmscJ/Giy75469+cYFVU5+XMWYQ2bbldC2bM+/jpsYJqh/PyF8hfMb2e7z20itWTa378OUC9DCDSCki6tfncG/i4MVoQPtZYUzvEFQjW1tVSi1ZunzPfQ954+WXUVlj2XbhnWJ2JVAp0t0rLrjoggvP/1nwLveTWxDBGJPoS02b8a1P3vvQqqnxmtEKi0gZx4Ex777x3402WLd4MK/WOuM4TVO2XLpoiRWr1FoXpEBEIHDPikcefWjvvb491CfaDjbtuffVG0IPxsL/ghRYA9ka8QDaMaIGo+u8ue5rVJi7hmqMqh1Exgg1UVdAiYEU+71nlmW5ix4jv6ttDbrGfqxQOw5KDnoupUfeANUSP3Gx3Pvl0DBmna6+tPtY9jeO1Rmwr6bgKLdg191w68/bFyAacZ+BkgcO2AXEBck6Wpe86pLrKbjlUHQ5diKRjMUqI9WN2lKorC7MABHcZpPKurUmbdjXtyxcatqYm/7zL83abefvqOp6xKq1b5a+UbmL3xo3ck8/6OGcv+vNPBy0VRNRa/uCjbbcKd7Vo6IRxGpL35Fs25fWjMqai6+49rrrblm68OOV+uYAHXTESfff9yBVVKCyMpdyYREZKAWlNp2263777vnAX28q0NDf/+G6835+IVXFEI14ieSn4C2UWVm738HHbjd9y+efeXhI5VbCp/CujRQ63s79FqKVLHxEBM1ghuE1K8QyEQzDDaI3cMZilq+lUIHA0UUNoILX2Bke1ZVMmeHuy66oafxi/iJe0xbaikbvvf9hosoMoB09kC0RUVXdyHEblFQHx9FPPPO/3fbYH5U1X9Ngelrrk39y3qT1pseTfQiHBnsVRNpxOhLJUeM36G8Xv8Zd3TD5oUefQCTCgwmbyYx06u5brg5uM8bssc8hv/rtH1BZsfKHl8gY88qbb2+xzbeH9KSrgqwj51sREgtyvS62WvmQd8KaG51+MJHzQxZMoGC4cCz96icYSjCPwmDAXyluZtbbfAdVUTlQroZYaG6klb32PzKjrNKi7Cb4Vb3JmI87+SzEGgZjDMwcTybnzGstLh9t9Pf3+IE3Ne7riVLquj/+FsneMu6F0XpFPHH9TXc6pULnuO9lFRkVd/RK3lIBLNu++vo/RCJh37F1HH3KT89/5n8va8cZfDk7Gef9Dz+5/ua7Bu6fDGIXqEPuMxGSi3M9bmF7SBGUv5ZYVnC9EoLpL1rV6qi/G2Oe/d/Lh8w8pb9OA6UUwtE1oZyYedHipZ99/BlbVnGAOGVZpqcDsKFsVAwtw1rrxx95FJFosaUppUxPJ9ygL1Wxr2AZ7aF2L4RCBx918qvP/bPAeDaatouqrjGmxLxSMCPZCxiqqmdjvszHbZBRw33L11r/+CenlhfISmt98gmn/vj4I4tPZ4zZaNouFK0cfLWGlBo/dtQpxx8ZzNt7H3z055vuMAONESqN4zinnHDyyaXyVpLcsIwS0uDEcwJqDUsHOgNApeG4VZZN5hsboIgRM9xrEfEQwi/1cyMKmwudJOxYgZEFY4MOtwVjXktba2v7QNdh22uCgBLRgUecSOEwF7lXyrJ232WHJx75K4BEMlnTsJYu7urxlCIBQCs7lUr7dv/Tc39jxaqKn0lSasP11nlv9jPuXYjVT+4r9l/cr4k4AK2sRDKJ1ayy/Ud4AgCj9ezn/1fQtkhEc957j2M1Jcqkr++NN/675eabALjh5jtPPv0cRikvNe4/lfFhtL4hmbTbm3rdlb+9/o/XoLLaz6RlKe1oJJNgg3DUiob79SJjNc89//KO220d7AnUWj/+5LOffT6331JltmxLOxoZB+EQEbEx3LOitbs1aAyWZW25+XaorCo+NRFxPIGQDdtGsg+VFYUyRKRqRvzu8mvO/slJ9iAeN1VQc89rSOZhrjMaQ5fcPWKD/aYcc+mYniSRxUNeh8MLCQqyefEK60e/HL/+3lMefqFK61VXNHeZ5rzv3G8eVsuT6Y7d0brfvzWnBvDi8y+XtHLlZFz1ZOZoJJJJLHCFskANa+pqmTuZO1kvu+Gq37lPkW3bN9/215IeDfd0vTf7Gf81n+icx71dhaZDhL5UNtnlrz73L3v1vW/iieqqqi0336SiIopS4R6yj2XemA1j+L0PPi6hnoCy1H1/v33jDdd3L/C4mYd+73t7WHaJYQazXn/OmBXMncNphLEGskaQNbLfv/CYE08/Nzgo1W1v+cPVVyh/eGa8e49v7fzWK0+lUouZOxe3v3/Aft/rr3CUUr+55I8FI6Isy9r7ewfoARqFEsnv7r7rB2/8d/nij2f999GRdbWk9RdzPgjajOM4f7r+FlVTV0I9lWqoiqXSizm9hBMLmDsee+huOE5BDo3W55138SCHWw3oV6pQvp6sKipq/vliVWXEvPd5ZLsTmvb8ycTuPiKb+7PAYoXTBhQxLUvtHU5o2uMnE+csCFVVmjser7HsVc8eedXD/E39ieY3tk/Je8WmS7R/WZZ15FGHOo6DbGOWqw2FKRjTvbCt5JyQdHd3yYdt5+9+O1hDYub6iU1UPMDApId9qkmR0llRS2m9rHvRx7Offyyx9PPrr76031B44ei81rbAUGvzvxdfLbmz6ek5cP+9QyHbvUCl1B8u+ZUOxvHJlvAtd97rOM7wX11FBSqi/f1ZFdFwyM5/O5BlWT899XjT3YWM8/C9tzB3//P+OzbZeIOQbTPzyBENd978p99dfJ4qpUTGmOdffLVgy39feIUqq/szO8R7M5klD//t1vXXnVJXW7vlFpsuaXv/sUfvm9Q8MTjPwrKsM049p2QLAKVSyxZ+7GbPtaLdd93hwIN/WBxlBk5a60GFvyi8l3lNouG6nIZkhsEbZYalGIBhCtlY0mltf0LTTic2zVliU6XRpvTCcG7HvjGgCvPunPC0wyb94OcTEn1kW3AjPg9P6wIY2slJJoNCA0VO/MZP6LRQatDyppts6NuMq6E1I0dQcexr2P4Ur7wmEeOULOq115qktQkeUlNdcl5cqK8vxcXJDhNEtNG6U5JdrcHH5MRjDje9naVdgJC9YOGS4HM4f8GifjKVKZjnNnHCuOJRd8z8znsfhkKh1dSONPQnmpcum8OpRXt991vum1URuQsrKKXCodC5Z55iejpKHmt6lwWL0bKsE087p7/2K3IyixZ/5s50cnGHS397lx2C6mkMJxL9NN0wv/jC4+l0xu2VdYepEalbr7tcJ5KFp4tV/efZ5wfTbWsX62auFh8dletHyjjDUH/M0JgG3bLIzk5ZopCF3iQdcM6EVIZm7tV1yv6dFXUaGeKM+6gwQkwWOpbYVz9Qf99/qqsqDLx5nP5TivWb00bTMAR51RwUUFHMgQuruDGeCC2t7X7ZuRYV7+7hwRedKjk3kRctXurPL3BP67ecFt+m1XefiOiAH+7tzkrMW2cwWoV+JkSlU6mgKU2cMK4ft8YqEKaurm6UigqulMKqN/gPHw31df4CFkopx3EeePjx2+66b/Ybb3cuaAMIsbp+MhwuuORP3nmnZLxnIpq8zjqjRo4ofm0UVLQNm388+oSKxUpoXzKuSL3x1rv59UoQEYxTkBml1ONPPfutXXZYaT2+9JIeAGAcVDWj8wPvccgYqJUNBV0ZxtDu0+O3Plob7OoHSClURMz9z1bf9e+aZEqNG+mMqtM1laazVy3ptJassCsjJhLmqgpTfB+Ysd0myeGpzaRNUED9mx5sF5aATF6vSLSWS8xK5r/c9+Dlvz0/uLNO9BbOfuF+x4dXjxrZ01s4JUZr8+ijT/ol75520ZzP3MHb+SlnotHI6mtdIcCdGlRgA7X1dd09vSXPy/mP5Z7f3uUUR5dQxoqqTz+fs/Zak9wKvtbm5jvutSKRghZh1xnPaCe0ZnQn+rmav2DhzBN++vRjj8GKWLFKZjBz7gaVfmKsQs3p/779+ZpL/TmjA8H80MOPl35CK6tm7Py90kdVVBZr4Ecff2bbK28GVcFSyLsYAKO3zl2TMwxjPAnYZ/vedKZkOqQNhUOoiZlEH7Uutt+fG25faqfSVFNpQjaMoZLqmUypPWbEh2eNge543jOOwGyHAvlYbRqqFA3whzWj4dUYM3PmIcWt7My8dPHSR//9tF9WM3bcS1XXFj9wkfpRxTLkOM7FF5ytSvXak2XdcPNd/oYDDjtBVdcX7xbsFF0DUUpNntSEZHeJ+6jU+htv6zq2RNSXSv3q3Au14xSX/FGH/UitMa9wZv7kszmRqomNU7Z89vmXEatFNKq1KSN+bjqdgV164hYnkttsNXWAWa0+tm1/MbeFB4gZVPKvFMs7Vgwm23bJx8M72bjdwOfnxC/Y16MIIPh7DtaAMLYxk0xR8ZJwwWvMhuIMbulvZ7YUVIWh1BAV1D2B6wj4bnW3F5CGQYjFKFtFDa4kPqjXYLnSueN2M2YefqBSJWdPw7LUoYcci2jFmiAEN1972W033BQcwuLlk2ifH82MRCNNjRM+e+cDVV1lSsz6t84/53RHaztfKy3LOu2ko0//8amorCsYWcLMp5x5/k/O+fWkpomfvf+RilUaXTg+xrLt7x/0Q2PYstbQJXvcCQinnHnGDbfcXSyOCIWIaiZvuFFfKrVwTgsqKovH2HK8a9edthv+lwSzGrCyalmqZBvZDw48+pFHn4RloZ8wCIMvme6enn57M0wmFqsc5PyFrq7uYSmfioqKwfhJdrHj6cY1ARMaNoWT1VgFpDRCCgDmLEdXH5gRsTGhDiMr+12nk9kdkp7bEFff2y7+wkH7UMYAAIAASURBVDsVxgzDW9RSOH7/TpMouvvsymA/WbIVlifR3omUATFqopjcAFuh1xNKAnH9xtmHN6912FXP1eGEEtFak5sP+uE+qqQZMYPoUL2mLF/MzHfdc/vM48/QBeO9icCcSqW/mDMPsVLzlJh197Lzzz69ZLJa61dee2Hbnb7HqnB0HoBMJvPF3HmoiJriQebMunv5P+69ZU32QN2e62uuuOjG624mO1Qiq5XV81rbAaCixFQCKxQ67ITjtNbD/wpP9/36txcMMCReKTV1i00KRh3N2HGvN9//EP1nxrIsZmMGMfyOiCqi0f4rWEOYCjgsIf6IaMK4MW6YsZUIKEqFuWRmIgWrIjcykoCOBPoyWNSba7tIZvD5UnwCrDsCDbGAaLppKy/avM7FUCHCFWcs2ejAyRWRQieUAYvRTbCAilzJIU6wgQiDCx8ZrOixTjhoBSdUgdDAJu/UXgTogIh3pfHR4jzPe0UCyxMYXw3H8S6NFK07E6xBtvtUF0Q5XE1VePcBGyAa0xolBAf/aN/XXn/7uhtu9QUuKHbGlO4JRSLx6efvlww+5vaxTtty0z9eefEZp5+LkI1Szaylk3WcZ//31GoRl2HFW589uYioDlVVhYEj/Ld1sXpaVojNHTdeuVqy5fSd89OVRMajXJR1aK3v+fvDb777gaN16cHqiQQs6/v7733C0Yd9d4/9UBFbaRYikQi0QUn1C0cXL1k6etTIwTwCIxrq58xr5VKjeaxBNxxbSk2ftvlgxm7mxQMNiqn3xIYtr72fgbYVQKmRowr4YjkW92LDMd4ZFeHjpViR9A6MWlhnJKoi2btFu0xNzP4oGnRCidFNuIKxjwGA9S1UAhZjIvAPjRWEAwkdDEP+AiBsWzjtgBW6N/+RSTr4dAmS2turoQLrj4Y2noZ+tAQ9fSh+qRCwqCe33XHQvB9I+d2LwTJZfbM5h/1pXa3725b1x0t/VVVVecVVN658Ph+zZdu6e/lnX3wwqXlif6NwiMi27ROPPqyurnbm8Wes3O/IJvvCK8/NmL7lmr+4ph8IjrmTVAMqKwd1iDHrrtX84VvPrz7bs217kC9ptx52xCEzixtwAChLTRw75oM3/1cVq3Qch4hgBjUpMxSyodNApPgnFQnffe+DPznluJW+HR2tN95o/dfferfEb9p8d89dBhuhhnDAvnsN5mWcF2Eb2TmdXtxT42CtH2Hu38FZPSoYjsDZMHcAelP4cDE2GINkBu8s8kLfuvs4Gh8tRmUYm4wjwwS+/peL1vn+lOpK45a/xagBXtfQBCYY4GzGn4EOwmwNJtQCTxk8QTiLvNC1ABJ9dOphHejL5oCAD5agt88bEe/u1JXESy3YdCwqQ/h4GXr7So+oKLgoB4iMdL/5lVB/bPbqq8UP74NaWVnR/6gJVRAAgRmgIfhuzKy1ufrG239/6Z9gW36ARWVZRODs6rdKETNMsg9O6oRTT7ru6ksHjh/uthI++MjjRx1+AiKRwmSZmd2ucGLApNNIJQ466oi/3H7tmu97FtwdFRqFWAzZtghyB6PkRREGM0xPV/248f99+h+bbLi+f+xXm3lmXrhoCcIVJX3PyRMnfP7BK+6TMviZYJ5fokq//4wx55538c9OP7G//PhloogO2n/v2+66r4TFh0OHHrjfvt/bYzB96xgw2myhgBaoZzQazdoiYbNf4It7c/rifwhbiIbQ0Qc7oKq9KczryKvjBw9JpvH+Qmw4lkHcSy/f0rLzSU2REFvAaOBRAxBUdj7Q0QZPKvzNwJAbWw4gfAv8gKEfEkJAb1J98Le5nFTZ2jnjw+VI9IGKBNEC3luE8XXoSXo/uRnWQEMUSQdpp+Bmoro2Z9ZEVVVVfX19wTWfXQlYwzW0uqqq35d/KLq8Y0V9Xa07CNlxdG8icfsNt6KyEoPyQWCMeeud987++YVB9UQ6dddfbrr37498+vmcZF9fNBqZ1NS49567H3TAPqNGjiicodTPw7Bo8dJDDzsuqJ7Q+vqrf//fF155+90PeuPxaDQyYeyYb+++86EH/qC5cYI/bPtrNLysfux6VFHhhwshopEjGk7/8TGP/vs/7QsWARg5omHTjTc48tADdt1pOwDurJg1ZPC8MeaxJ56xo9HiMK+czjz35IPuomr+DR18ypttNe299z8qufQ8W9aV19x82kkz/SZOt0CC5wKglNp15+25twexquJsH/yjmWw6UMr78R/tob6GbT919+VfUZGNnWc0lIX6jVHsVhNhi4nQBrbC58uwLO5JEgNLez0VzMtd9td4Gl19VBMBUUOlueOXC2deNM6E+FFTKLZATj0pp4Q0hXGG4isS6r83tFkOQblLyzN6HfQm8k4XVHAFLO7MZYOAkVVYewQcA0thdmuep0YK03+fLXUNZTFzJBJxHKd4cMaaPiy0v2gG4dD45k2TXS1u5v/91LP7fO9HqIwNekAFW5a11bQdg5U4UmrkxIkH/nCfA/ffx3/Ja62Z4Y4r6G/ZnyBKqcYpWyIcCRobWdYxRx18zJEH+R5NMNk1v9oeRGv93xde6Y4ngjLBWj/7+N/WXXvKL846NRCQzfHbi9aocQVE1L5gYWldtK2u7u4xo0fats2ApdTJPz2PqmoHE1lKG3PlpRd8a68DS6u21medcyHAZ552givc7hCOAw457qG//ZW5L2BCFK6pTZecyllVtdEWO37w1vNaG1KkvP4eGDZuavsfeORDf79rSKWhgkt6uOrp3cKWh3B3A24kRIoax+qiXnBizZjUgDHVeX5fcDLPeqPRUJlb3I2Bj5bAUkRQCluunXr6mrb7e5SxiuMC5hzS3DaGbfExcTX73nljazS5oWqYYQEfLcmdFEB9BdYbHYxNl/fvmGpMqodmEEEbVEcK7hX+ewJuJPx1NOY/gazTZNu2G33na7S0nDdfqBQZwA6NIqolqt33oGOGop5g5jnzWhHNO4SZly9abFsWCI7WjqMdR3vvYsOO1o7WrifVn1fCzMm+Ps4UTjHiZMK2LCLqP1n9dVnJ0rKso074SUFGlWW9/ua74XBIa+NeoONodzCfNkZn5x2uIZfAjIb6uv7EdZPNdnj2fy93dHR+9PFnm279rT/f+pdBxuWzlNp1p+043l26KZ6Iic4672KyRu534DFHn/jT9Tbfgajm4X8/bdWMOf3sC1wbcI3k/ntuLjlUlo356It5RDXHnvyzz7+Y6z7XvfH4vx57au2NtiGq+9dTz//9oX8NPhgo3E4kfx2knHreVQsdB2c7xQoy0+cELwxN9ehK5m0E4AA7TEbGQXUEirAs7qVjAb0pVISISCmMrtVjHv+cLh6H1yoRMzAo0ULJADEU0KuwRw9OXhZLqLxAX3HkZrYQMDKGSQ0AsO0kvDAv1x7qEg2hKX8MtqMKtTsEMJBahqf3hlWFI7pcrQyFQqlUyn3ZrOF1Rtd5mbzRJvNa2vq1hmwPBg8x0qsx5sVXZlnhkM6frG1sm6wR3/7eHtOnbhYOjCZhoL6utmni+PXWmbLB+usAcF0Ayn8DMfPcea2IFHUjVMZINey8x7dmTN8iGo1SYP+G+rpRo0ZuuP46G2+4njtKd82p6vZH+9wW5C/1YYyZeexpv7ro8u/svnNT44RcRwdRJBxuaKhbf921p0xuHj9uDLwlJMtf0nY4TAs777CNzmRKD2CKRPba/wiTTCIUUrZlhrI+hdb6pttuOOmMX5Tuk3T98Yrov596Fu5UwcpqozWYr778T1f9/kJP0Sxr772+jXQKoXBJDUVl9V/uffDOu+5DXx9gYIWsWKUxjMqYk8kcuP/hzJ2DLw0bgX4Sr+H63gnQvV7tr+S192RgW3mRDjafiJfm5TV9jogi43h932uPwqJ4Tsi+WIZNxsM1dAAJhZ8sQcTgwXr8swbdCgqw2FvV0SEYYKTBfp34fhfiCsl8yyHgi0W5fDrA2qO8vGU0GqL+8Hi4Mrv5eOiAoNgWuhKFIutdOIOZdS/umUgHt7qd8uFwOJ1OW5a15vuhWpuLf3X24cedzoOMTctMalAzedw1L7UuMcYTFRXPPPfCM8+9UCJ5wDiOG93uu/t9/2933VhdVTi6paG+DsaguFZeWfn8i6++kB+/J5es1kgkAWernXZ86J5bJowfizW1dYWZVSRiigPxWVb7gkW33/W3khcIwPSlkOkL1zX86dILTjzhKG3ckbJfwQValrX5phsh2YPKmpLiaIxx34JmKDO/3bFxxx51yNnn/rorkRyguzwX785bfIhUdc3am2z36bsvumVijFmy8JORo6YgWqKnC0TatbFYzH9S/NRUTe2vL/nj+WefNkgPyXtgvKZZo7HgafQt9tSTi26jr7ofLcrb5GhMnQAT2FZfmdNfR6MunOvHjzv5OkUAkFLYswt3tOCRObhnHq5ux6ULcG077p+Lf87BTa3YtQdJBVUk6iqM3kzgvJG8ZcJGVAaeM2DahOzIUE8f8dFS2CgdQ8QdkMeG+hZi0QswTnDSwZq/upxtW4f8aF/T3TG4WIFMzGPHjB5MykqpXXfajpKJkil7tc6iP2/9r1gVKmNPPv2/mrrm73zvwIJHaOyY0ejrKZmsGSBZIsQqUVn9+pvvTpy82ZYzvrXG3hdjzH57f7dEuy2RFw221AUaYxAOIVadzmROOfsCopp3P/hYD3265DBexe577z34YZVDmoK8YtGn3NM11CrR3DnzPv3sC1eyiai2tubvD9xNQ483bBznwl/8avAN68qtkHq1HmXhmf095XDjCY+rQXMDIrY3ot5vyuzqw/JEXvg5W2F0LKdEKr9w1x2N7JB2WMAHi/KKlbLbMwpJBQB1GmMzqNVwCEkFhzwnsWC8ERjvL8z5jwZYZ1T+9YVypxhZmZsr5ka071boiudJpwEiNiY1YGx1QE8N/rOnf0UF7uf/sXfecZIU5f//VFVP3JnNe3s5AMfdcQccOWcEAUEkKSiKiAlUxIAYQPRn9mvEgEpQyTlIzhnuyOm4g8v5NofZSd1V9fujenp6wu7Ozu0tB/e8X3juzs5093RVP/3pp56wNXvfpJQ/+eX/E8PmZmjNOb/kR9+5++arK9ms8Q/sd9ghorqsD8aMSHnsmQXTdtzTr1OklOecd661OZsNBN54571o/bStc0Q45zdf8w/Z11F1WQMpJaLx3Xc7ePGSpep96rvHGHvorusq+RZcCEuIEX1ZrbXWfUgkxIg+yPlOs+cL4cZuW0J84viPXnP1X5FOj/TbBRtaPnriZyq8qHnxk06yPye9gAm1mFiHlhrsMhH7TkUs5BoUsyi0tNP1exoPGmPYoTlfZKe7sA65xRHkeVOVyA4aoshy6+bc66U8+OErC/2+HYUERGEXhJ7cioQEdmxxj9OcmizH4lV5yamBWAj7TcUuE9Fcg0n1aI3ld22W+LVGrpGDv8vbVitChRCXXPTNcQ21lmUNNhcZgFTqL3/8xY++d/6uO++EZLJCQ/DsI3dMbG6svowgY47jrN2w6clnnjc+L/MQ96+//Gbv3XZhjG2OiclqXPHv6x1HYmtEr9+4Asme6kvDMIZQaOe5+7yPq/NKqZWrliCZGNrO7rbTjnbvqslTJld4jXiZkFp3H7b/3shmK5kJQggmVTLV5bdmliU+efLxmza+i0y6wuAkIQSS/T/+/gUP3HlthQc85Hbrw26jTaM0Z4/D7pPyJpIBr29wn4jNN3QU5k9wTVJ7It/AxzQWnjfBfcY39vGVddisyGcNDry6Ov8NFLDzBN+51rA42rpd4zh/YvGhvroqbx8lsPskzB4HZcrYMTCgIVZoZorH2IsyGZECzWSyMpnCQLLoPzmQymazw6UDDZR+EANJIDXEZ9aveOOoQ/ZHMimEyLV0YsZawbbDltXTu/qLnzvDEsKyBHR/6YFlMpkyA6D1U4/drYe8hCoYRZz15QuKGuPcf/d1Op3ZnOpfUsqvXfCDwpDp5CCnrswNI5XOqHJvlsmUbdulI5RMpnS59+tkUimFYocnm9A67uwvf3mzStgyhlBk9Zp1I1ydH8FJGNrMmZLP3T1rkEzC1yvM5OOaAvKP3XfzS88/7DjOeV/6rE6VzPlBejp5luuh+27ubHtvu+lTkUyYzTIfnHMhBNJpJFNX/u3/ZGp9OBQsNYjNTQ3a7rj1un8KrZFMCSGKtiM455xhYCAoxN/+8Aut+773rXNRsSpimUxGKRUOh13j8k+e9wkyhr2n5qWiMRMWxztt6EnlzdYek2Dx/Li+tQEpGwAm1GNSPB8O7f+TYUoDWmPup0Z22WkA6HCwckP+xUgA8yb4q3hibT829gBA2MLOE/MfVBZeXJG3vA0RzB7nmlfvSDjDSxsgcwLWBr6kvFTlTCZjymK702Wrj2cy5v5Xv73s6mtu2tDeobVubmw44bijfnTh+S0tTdUlCH7itM/feff9EL5Aeq2hFAsEhChogq2hy6w45c1VSjkd3m3poot/8Ztf/xHBYH6zABwHgUCRjtYmfnmwKJmBfq17t7ZRMH3hQ6EWHq8tKCiVTCEcEoEAY/l7qDapWbJ8XzbO+R9+c+m553yuwtSaLfR1OOevvvbWj/7fb1585fV0Kh2JRPbYbZefXfLd3efv7CY0bs72AROQ9MjjT//r39e/+NJrHV3d0Doej+08d86nP/mJT558fDAYLK3sVXpDNUfy3+tvvfbG2xctfre3r58BzY0N++2312dPP+XoIw+BG+Ewsugalk6nTQQoAGiJB47GxsfzAdihEHYbD0cV1OPQGv0ZLGqDyC3O7DU5XyNWcDy3yjVPOzSjIZK/EgTHs6tcl6X54D7TAFVUsWm48wpXxy5Y7T7mm/q8B0yDV/dFa/Rk8d4mwPcn1+JrLFzrHoME5rYiFsxPUO8m8epGeLKLCUw4HEc/YBbipZS2bef6Cgivz0Tl02Loe3t1n63kg1Ipq1Drlba+GGwX/gU0pfUxnzjz8aeedbJ2PpBe6ztvvnrunB2XrVzd093b3dtn/iId+eaixVdcdZ1dtvWV1kh2aZ0yLpHvXfLLP/31CsfOb5Yz/puf//DUk45fvmJVW1t7d28fc2sMqsXvLr3hpjvaO7vKN6otNKAjOnUjHaMK358LsYqgpqnoFqJl5yuvv7Vq9dr+/kQ6kwHAwDq6uh569KknHni0bHEmzvmPvnf+xd87v/KMyarnz9DbNIso3mOycXD5V7GHnVTD7sI0dPG7LMzamjGLFabwI1cYyP9Eb2KTzZarOAksnU5LKaPRKLQ2WgFXBAuKFSlg7+lA4W1Qa3CGF1aD5+zXvlPyf13fh/W97o10XMyNyjSGry2B1b5KpYpjv8mQI2lRoDUsURw1Nbke4+OmEB0ArO7Fxj4g58mdVJc3hc/nIkMVsM/U4mvPjPSL68B8ikkC5zjGHasB27bNMHiPA/hg1BYZHZRS7R2dE6bM01ZBtSSutd2/Bm7wii66ToQQTDQhUq6YaSarspsAZG07HBlfHHqSTGjVY67JouvQbLZh0k69ff1lWhwnE1ubAlVa77jLgStWrfE/d3PG7rjxymOPPrygHVnuG0LrlavXzpy7f2mtTM75FX/97ZlnnGJ9oHKxPmRwk6eYK6LFcXmwuMgyBxasxJoeiEJvrtLYfxoEdxfQX1jjhWVhan3eJrYnsKkfuSIQGF9b0M+AKyzcgBFNAIthweqCj3COibWu41IDHcCmvrztm9YAxlyR+/xK10FhCew/rcBhqjU4sD6LBWsKrCcAAfzdQq6Xg8k4wNa9/r5F+cr53+fhUJEmMnd10+3L8mFuM8gVyyief4zNnb8zAMeRP/v1n0SspMCPsIyLjfMym9Val/UjMs7rJk7a2s4bA5a99WaR11JrHY/HtEbRF7QsS3CugcEiIlU6fcJxR2091em3UQMKs4ZlXC937oYIL/+uTf14dlV+2R3MTeXccwriITDAAp5fDYtDA47CTuPcKQNgZXf+/qkU9poKx6dRtI0XN5Ttn1XuSBgWrsl7GEzlpL2m5B21gmPFGnfXDJjT4jo3BcOC9e69IR7GHpPdVE4wVxrbFp5fg/Wbyq+rRTjuPTjnldKWZW2zXY4ZY4veWVIaQCO1vuQnvzFvcBxp245tO56XYO+Djy0vP5W64d9/VUoJwd94653SNTQWjn7hq98u2qyT2+wZZ53b3dunSxZSOOd//+MvtqpV+NwCcfH00sDhhx6XzmSMArVt27Yd27bNV166bMWOs/YsU6pdazhOU2PDB6gG1YfzckilUu4KEoDLc9XizENYbQiORMLJa1INhAPYdUJxIdgVnW6ypsWx+2T3Kljfi1W9YMCsVtR7awIANByFl9cV5LpHw5hrQjiHtKRvb0Qymz+Y/BIWy68ddSexpBMApta5D+8MeHWt25m5uQYzmgomohB4qweJnoJ0phoLIQvd6fxBZoCvas9SmnUkr4kNtpmneK31Ycec+vRzC4vXf7XmQqj+3imzZu2/9x4TJ40HsGrV2vseejzd2cHjtaXrxYyzhpqa9nXvMAZHyvO/c8m/rr6uuMaPu9me5qnTDjto/ylTJgJYs2b9w48/3bN+Da9tUE65NZZMWtsdW9t5Y4wxFi/TCw9AOg0hDjnsoJ1m7xgKBTPZ7EuvvP7i0y8gFATnpeX3OfDs4//ba49dP1i1VD6EBjSbzVqWxaCR7sS149xHY2OYTEylYOhJY/Gm/AK3BKbWY3IdvBQordGbxjvt0MD+OceiaZ4BFDf8MCYokcGitoIwzx0mol4M0ocDgEZXEss7869oYKdWxILuMfi3b9YlzaWlNTjHs6vAgJ1aUBvOh4IKjvVJrGzPly7lDLPGoT7sVtG3FV5bl//Wn09ChLU74dPmKXJbc4M6jnPfQ4+f+Kkv6EECaPzrCfB1lCrDQK/W/V5dspWr126/076DBbeNZLPd2WyvZYmtakTctumRiXrwli1FCy/lQ5S0toKBU0487pp//cnamnpzbqMG1LZtIQSDxsAa3DjdfcKQwP7T3Odiz9YkMnhjo7vyblTqHlPg9a4x5tLXvSP32UFW2M1S/uI2oHAlfbCeDUUr+ABmj0M8VFEvJnNIguVNuclEemlNvsCdBuaORyzoHoBreRmeX52/qXx6I8ItxhmaTCaF6b+RCyvbtuYNq0Msjur8Fm4Z+R6te/0RVFrrcP00W0NXV3lIa24J1dfV07shHqvZCgdFSrngpVcPOuLjSm9Gj1upzvzMqf/915/IeG0NeDdDhujkfJC8AFblcqhZzt0ZCeCAaZjW4L6NAS+twaaEd0nBUcWL2mzw+CTGEA9hvK8UngUsSw6adfCuL2mdAePjg1rP0v0aa+i3nh02Fq7JS8tpjdh3GqIBKBR0Ol3VnV+tUkB4nN/D4F3229SMyVXv6kWiz7LESNNpuOBIpo478tAi62nI9K5GOl2FsOKcI5PZa5e5Wie2TusJQAixz567ff/C82HbbiXGkX7Hgb5XFjx89eV/IMu1lcDzjwlcFNTU2NCPNb3guWE2a+hSoyWGA6chFoICOLCmGysLTW3lMIbpjXmTpIGN7bDKtAWHJdDuS5bQwPTGEe/Ls55r+rFyIwSggHgYB05DS43r1fUcqZxhTQ829hcUFWUMvp5IRRnx28iM8SXb9X3+zE8i2Qs9eCfh3LkSloCUGOj72JGHObLjjluuLhu9r7VW2bbvnv8VDPRCKSEEG3qzQkApDPQcuPceA/1rX3j6/q28nJ0Q4ic//PbqFa/XxuNIp7044sGMKedMCI5kymLs3//4g9Z9u8ydzTmtvG81l8PAwEDU1IVUEmvvxSMn5ouJsJyfsTacC0T3mRhH4fX1UBoK2HcqRlhTMn8lZBy8sSFfq2nuRERFsU8zZeOtjfn37DwBYavKhyDO8JxxBTDMnwThM/rG0yo4ulNY3OaGuObixHHkXZhyLJgwAqxoEWlbe4o35s9EMi9Y+Mpv/vj3Bx56PNm5MfcoYZCAg0CsecL4Mz/5iW+cd870aVPcptmDuIyN+TN5I4veeffXv/vL7Xc/kGg3pb/8NWNsWDVNEyecduKx533583N3mrX1F8fyf0cTZ661/us///2nv1659N2lyPQBgdwTofFnqUBdy667zP3qOWee/dlPAXAcp/K4cWJMDajWmkHhiTOw8jZomTegyM3YKXWYXA+l8wtEADhHIoNVfZjXjKoLZhuL5i12tzZiSk2xAV3djbZE/qo8YFpBTc+R7u6NDZjegHgYyrcIZqrkr+3G6t78Y7t3EpjAzM/jgMuNATVllYuSkbbBme2Z0aIVnlK8eKZKzpK/wsAobnYrPHWOlIHh/BVkN7dmfApUa/yD58OYjNGUCpv6oQABOEDEwo4tqAkWJE16NT2r5o31yOSKhEYj2Km5WF0u2oiBXPRSQGD+ZsdIe3rZLE8lJd7diAEHAUACAhgXh2BY0+dZdm2D5dLhlVLZbLbqbM4PMaWujFE5LVtosx/680Zsaaz8HZ7lmgObf+e1IhoEA6Y1wJZYtAnSQdbBmxuggR2b0RjF5iwm+vH7dJRTxhr7Z9eolPDyvmxXCu915GvoBS3MGw/jWdNAXQTvbHI/oeFJb6+ASFEWOU36LXQGPvQnlmbOBxRr0Pa8ti/bR3DsMhGOwmvr3JTHpR2wBHaf5AYMbd7cKeinFA6XdJ/XCIp8wa2MDQZs/poNA17dBDvj+jo5w/yJCIhclWjmBvwPTmlqNs0ngtimKKxB4m+fubgdReJUMOw1FXNbAePHl5AMevOshvEAOD5L1FAu4a8+96IG7LwS3Kz9ZiUyGdd1O3c89pzi5qGy3FoVF25qgHeqChfK/GFMZD0JYhvEMnVuGGNQDnY+F0v+AS1z9UFWYVYzGmtgSi4asxUNYp9pcCRSDvhoxO6s7y2ItWwKlXlPUw2Wd7nuSAtY1+u23KgaxhAQmDcekQAsDqngPaFrQDC0JbG0M7+ezAR2+w60AhMoTIPx11em+UQQ2xQ8v+LJLez/V2R8/YHNo/qLq5BxwHIVc015ecYQDYzC/i2OFT1lXJxmX17PJYsXFGFY2YNRKSIbDYDB/TpmX4Ij42DhOqzoLNhjRmKvX4G7O7Vtu2jhiKwnQWyDsFQqBSAUCrmlPlQW/4ggXPguo852aEZzNOcWZNh8i6E13utAr68dBRcIhxBQsDiEAEJwkrCBVAZSFtjZ2rDb42hzj8H9HyyOzjTe24RSp24a+HIaPADGjD1PJpOWZXmJ8LQKTxDbJiyVSnkV6V0byjiu4BAcShabEgdoimC7JoREfoGlOsNhyiYt7QRGvgplLOnMZtRHqt+7weJIO1jRhc5UcSFUDXDhVlPWpmw+01qnUimvJYs//pEMKEFsa7BMJiOlVErVmDbzXlLmwovwyq8REmXMqOkNN64GU+oRDkD6WjUMa0S8R/IVXdjYD1S7hm92OKEW0xryRaEq2bV5p2BI2VjXj039BVX1vI1zgYzEHhdhr19650Rr7ThOUT8PeooniG0WZpJqTIORmpoarbV5HoVywC089DEsvxch4aYnFWFSzqICLTE01SAcAIdbkKksxr/ZnsB7nfmqToC7/M+EWxm+OEaJufWbtYY2Afy+ZFMFbN+IcXEAGKxzGWcwnQJTNjoH0JZASuYzA4u+kTGd04/CRx+Ekp7f03RD8mdwes1VyHQSxLYJs21b+YjFYu6Css4FNDGOBRfgtT/CAtjgEZgmeQlAUCBqIRpEyILFwQSUg7SD/gwGMrBR/KTMBIINOOS/WPcwul5H3zIk10H5IkNDjYhNQ/0cjD8IU0/A7bvA7ik26A5gAfEoYhbCIQTCcAbgaGQcDGSRspFVBenU5U4FtIYN7PE97PUr95kdrvBkjGUyGcdxuA/yfhLENg6zbdsoUPOvlDIcDgcCgQIzqiW4hc5X8Njp6HgXIa+qx9DbLvcW/xKNkXux7XHqEigJKLDBS4QYk8o4GMctc5B4r8C3UDacv6J4ewYAWY3mWTjsRjTNh3JMrBJ88UmJRAKAV0HZ6//jboIMKEFskzDHcUx5GM+Gml8jkYgQIh/eqDXgRkFizf144Xx0vIcgwAd5uh9+zxxphcP+jtlfgdlB3kU5aNtY5uXdv3s1Hj0b4ar3LqAkskDzTOx3GSYfDQBaAhyF4fGpVMoTnt5je1H5JTKgBLFtwsyTO3LdnP3/AvDMqGsmXEGqXM9g7xK89Xss/S9SaXDAYmDcNbXl95ZrOQdgr59gt0tcT2tlgegFh2FE8csX4+WfAYDFwZBvNlcMB2PQCo6GAiJRbP9p7Pwd1O0IAEqaIvMoDIn3TCcAvwH1W08ynQSxLcM8W+mXn34bqpQKhULBYBAFaYvajaDUEjwAAE4SbS9g9d1ofx6dr8POuIv1yDXIDAiMOwAzTsXMsxCI+Z+UzWYTiQTzlSv2J0p6CjQQCITDYa1zCaTGjNr9WPpfLL8Zbc/DtqF9++VAMIrGeWjZFzNOReN8BGIAoGwwkYtmLZCcUsp0Oq2U8kynORi/6STtSRAEjAE1P+lCPGOKnG3lnIdCIdNuoUwCuFau9uSDZygZ5Wj8mLmdMsZs285kMp6m86tR027MtwHNGDPRAvkD0MpNshzCnCkbzDTv5P6teXsxVT5NipFfYHrCE74iTCDTSRCE34DCJ/fK2lBPkJZaUndbFdsUz/wppZLJpGeSSm2TZ0yLji0QCIRCoSoKeRSVLjeVPbPZrGcl2ZBU8WUJgviwwow98nf48etQlCjTIntq5fC3Yx1qfzlraNt2NpuFr13t0IvaRQeDXD+JYDBo6nUP25XI26yU0sTD+5/TvV46Zc1o0VGR9SQIAsaAer8U/VyqPcu+7v1sbI2/W7qvAZkbq2+ynvyGqcKn47IGHTn3grdff3aQX0pLKb1G236b6HWnKXVxDtbpiKwnQRCGYVpLFtnKsiK0aJ0Hueduv7At9Wz6DWgl69pl5TB8Zr30zUWb8h8MCuvJF6lOlFSbH7TsNEEQ2zCsrNEcrGfvEKazrDH1P9cXrVwXyb1hcyKLjsEvh4u0cGm79iJT6LfUpeay6Geql0wQxGCwwVyHfsMx2KM9ytlW/zsHe/4tXTUa2sNYKjD9RrNUhA6x69JjwCCuAzKaBEEMDdMV9MYo1aQoMZ0o9IoOuj/GPM8jBjFSwxpQDCJ4/cfpV8H+ovFFwVKlvgVQeXmCICqjIgNq8HszS/9UtI5fsA/GvIUj75XyR1NBMtJgprx0p4M1fStrJcnLSRDESBmBAfUoa8XKvg2FhmmwJ+uRWq6hD6BoCWuwPZa+SLOBIIgRUY0B9Si1jGVNW+lSzGhpPf92Sp22/iMp2jUtDREEsflslgEdjKKl8LE0WEXCs9SAEgRBjBZbxIASBEFsC3A6BQRBENVBBpQgCKJKyIASBEFUCRlQgiCIKiEDShAEUSVkQAmCIKqEDChBEESVkAElCIKoEjKgBEEQVUIGlCAIokrIgBIEQVQJGVCCIIgqIQNKEARRJWRACYIgqoQMKEEQRJWQASUIgqgSMqAEQRBVQgaUIAiiSsiAEgRBVAkZUIIgiCohA0oQBFElZEAJgiCqhAwoQRBElZABJQiCqBIyoARBEFVCBpQgCKJKyIASBEFUCRlQgiCIKiEDShAEUSVkQAmCIKqEDChBEESVkAElCIKoEjKgBEEQVUIGlCAIokrIgBIEQVQJGVCCIIgqIQNKEARRJWRACYIgqoQMKEEQRJWQASUIgqgSMqAEQRBVQgaUIAiiSsiAEgRBVAkZUIIgiCohA0oQBFElZEAJgiCqhAwoQRBElZABJQiCqBIyoARBEFVCBpQgCKJKyIASBEFUCRlQgiCIKiEDShAEUSVkQAmCIKqEDChBEESVkAElCIKoEjKgBEEQVUIGlCAIokrIgBIEQVQJGVCCIIgqIQNKEARRJWRACYIgqoQMKEEQRJWQASUIgqgSMqAEQRBVQgaUIAiiSsiAEgRBVAkZUIIgiCohA0oQBFElZEAJgiCqhAwoQRBElZABJQiCqBIyoARBEFVCBpQgCKJKyIASBEFUCRlQgiCIKiEDShAEUSVkQAmCIKqEDChBEESVkAElCIKoEjKgBEEQVUIGlCAIokrIgBIEQVQJGVCCIIgqIQNKEARRJWRACYIgqoQMKEEQRJWQASUIgqgSMqAEQRBVQgaUIAiiSsiAEgRBVAkZUIIgiCohA0oQBFElZEAJgiCqhAwoQRBElZABJQiCqBIyoARBEFVCBpQgCKJKyIASBEFUCRlQgiCIKiEDShAEUSVkQAmCIKqEDChBEESVMK01nQWCIAiCIAhizKAneIIgCIIgCGJMIQFKEARBEARBjCkkQAmCIAiCIIgxhQQoQRAEQRAEMaaQACUIgiAIgiDGFBKgBEEQBEEQxJhCApQgCIIgCIIYU0iAEgRBEARBEGMKCVCCIAiCIAhiTLHoFFSC6RfFGPN+ZSzfRMq8XranlP8jRa8QBEEQBEFsm2zrArRIWXov+l/xtGOR7ix9wxC7KNq4X4/63+BpWdKpBEEQBEF8WNmme8FX8d09aegpV79YLNqgJy5L1WRZITvElgmCIAiCID40bHMC1O+ALHI3vo+nYjA9Oph+JQiCIAiC+OCyzSUhDS3mtkKpR+qTIAiCIIgPGdv0EjxBEARBEAQx9lAZJoIgCIIgCGJMIQFKEARBEARBjCkkQAmCIAiCIIgxhQQoQRAEQRAEMaaQACUIgiAIgiDGFBKgBEEQBEEQxJhCApQgCIIgCIIYU0iAEgRBEARBEGMKCVCCIAiCIAhiTCEBShAEQRAEQYwpJEAJgiAIgiCIMYUEKEEQBEEQBDGmkAAlCIIgCIIgxhQSoARBEARBEMSYQgKUIAiCIAiCGFNIgBIEQRAEQRBjCglQgiAIgiAIYkwhAUoQBEEQBEGMKSRACYIgCIIgiDGFBChBEARBEAQxppAAJQiCIAiCIMYUEqAEQRAEQRDEmEIClCAIgiAIghhTSIASBEEQBEEQYwoJUIIgCIIgCGJMIQFKEARBEARBjCkkQAmCIAiCIIgxhQQoQRAEQRAEMaaQACUIgiAIgiDGFBKgBEEQBEEQxJhCApQgCIIgCIIYU0iAEgRBEARBEGMKCVCCIAiCIAhiTCEBShAEQRAEQYwpJEAJgiAIgiCIMYUEKEEQBEEQBDGmkAAlCIIgCIIgxhQSoARBEARBEMSYQgKUIAiCIAiCGFNIgBIEQRAEQRBjCglQgiAIgiAIYkwhAUoQBEEQBEGMKSRACYIgCIIgiDGFBChBEARBEAQxppAAJQiCIAiCIMYUEqAEQRAEQRDEmEIClCAIgiAIghhTSIASBEEQBEEQYwoJUIIgCIIgCGJMIQFKEARBEARBjCkkQAmCIAiCIIgxhQQoQRAEQRAEMaaQACUIgiAIgiDGFBKgBEEQBEEQxJhCApQgCIIgCIIYU0iAEgRBEARBEGMKCVCCIAiCIAhiTCEBShAEQRAEQYwpJEAJgiAIgiCIMYUEKEEQBEEQBDGmkAAlCIIgCIIgxhQSoARBEARBEMSYQgKUIAiCIAiCGFNIgBIEQRAEQRBjCglQgiAIgiAIYkwhAUoQBEEQBEGMKSRACYIgCIIgiDGFBChBEARBEAQxppAAJQiCIAiCIMYUEqAEQRAEQRDEmEIClCAIgiAIghhTPswCVGuttS79wfxc9v1lfy79dYi3DfbOIQ6vdIOVb4QgCIIgCOIDB/vQaB2tNWPM/+uwby5SnObj5kX/X/1bLtpL2VcKzu/gfxrpX70Do1lLEARBEMQHmg+2AC3VkaVvGOzFwT7rvV6qUP1vKH82GfP+9X+27Pv9b/ZeGVrOwqeMSYkSBEEQBPEB5QMsQAcTl55EG0I+ll3pZox5orBIHQ4rDcsu2Q+x7u/f8tAvDv2Kt1nSowRBEARBfFD4gAnQwYImh/i5SGuyHJxzDLLMPfpnudxetNZKKb82LRWgQ/xQdi/kHCUIgiAIYuvnAyBAh0gAKlKZpa9zzo3WHCI81P1TwYsaWgPmPwbGAPNx5n2m8CM692vRR5h/N2UPoOjAjCpVSplfjUrGIOv1pVsY7BWCIAiCIIith61RgA6dcl7Wtel5/ozW9NbQi6WeXzJqBcYAjiK5JrNIrkVyA5LrkW5DphPpdqS7YffCSUJm4AxASwDgQVhRgCFYj2Adwo0INiDSinALIhNQM1lHJ4AHipyf0ArQYNyVp8z9X1lVavSolNL81VPSpXoUpEQJgiAIgviAsFUI0NLE86I/lXo6PTenEZ2eMitYzva2piUYAxP57fa8g46X0fYC2p5DYhXSXcgCHOA5xyUDOM+VqdLuv4OdqpyIdP/VClq5zlCV84oGgXAzYtPQehDG7YvmvXTtdt7HoCW0zh8hKxgaT0f6xWhRuGrRO4dIeyIIgiAIgnh/eT8F6LC60/u5yNlpRKcQAgWKMycUXe+mcF2bdj82PI6Vd2HDw+hdAwkIgANCmK3nFOKW+56ezGS51XlASihAAgGgdjomHY2pJ2D8IQjUADkJm/eSlsk3MmJUKVWUMlWaQZUf7Aqy7AmCIAiCILY0748ALSpyVJSWbhSn/w0mJtKIzsJqnZ50VABcD2JyA1bejvf+g/YX4QACEByMuWvfuiAy831G57ynjEMrLTVzoEMCrQexmZ/V0z7OQo0AoKQvDhUoOXWeZ9SfWTW0EsVwFUwJgiAIgiC2EO+bB3TYjHXP8enpzvzSs9Z5QWlEZ8dLePOPWHk70ikEACGgNaCqkZvK5xL1Zx9xgDNwDub7q9LQgNLuD7m1+vxn2QgPQAMMmnGAMUdqB4jG2Q6fxdyvoX42kBOjjLsnobBAvZRSSolyC/RFi/XeiyRDCYIgCIIYY8ZagJZdbS/bMFMIUaA7ARjpqRW4AIC+pXj151h2PbJZBAAuoOVQitP/Jw3InDoMC0QCiARRE0QkAIsjICBy0Z/5tCWd/2z+/Hk/MN8rDNBwlPtfMouBLFI2UjYy0v04LzwYNtjpAjNyU0lkgUgMsz6HXb6PmknQAKSrv7WGT6B7PtHcoTF/Ypb3ov9nkqEEQRAEQYwZYyFAy/YcKiqi5I/vtCxrKN254la89EN0vJvzdA4iOovkpgIARARqw2iIIhpAKAAO139Z9iRsjiAru0HOwJjrN804SGTRk0RfBmmTUz+cr1QDjGnGmZTaAcbvyfb4KaYcAwBKuienRIkan6hX9xQlGfSkRAmCIAiCGGPGSIC6O2OsqC2Q9mFZlhAiH9xp5Jgnrd75O176AQZ6EMzV4BxCdBoHJwdqAmiJoT6CSAAo0ZqMjXVIqNld0TEIBg0kbXQl0TmAARsARMmX8m3EhCZAK5aBbpiKfX6HGacAYOZ0me37lKhSyrbtoqjQIknqHyPSoARBEARBbDm2lAAdupd6kctTCME5L3R5KjdhfM29ePZc9KxGiEPrMrrTr88cwAKaatAaRzwEFCrOsZebFZ2pQklq9KgC+lLY0I/uFHROjHqhpYUf10ZTZrRu2QkH/Yu17g8tc4lN+ThRMxyO43iJ82XjRL0fSIYSBEEQBLGFGH0BOnQtT5PPjpLVdp/L0wG3kG7Dk2dj+b0IAYxBDa47zfbqQphUh7oINJDbxVaqOIc7ffBXMDWhqD0prEugJwl/ZdLSE8K5Vgo2MPvTOPAfsGqYOZmFDlHkcpVKNWhpnCjJUIIgCIIgRp3RFKCDxXqi0OuplOKcF0tPL8pz5e148ixk+hEQUBIoVFqe8DIr7OPjmFSHoIDzQRadg5/QvBhlDIIjbWNdP9r6oXV5Jeom0Vss46BuKg65GhMP18oGs7zqAd66vOM4Ukr/QvzQxe0JgiAIgiBGhVEToEXqs2xBpWLpiVyCERSYwCuXYOH/Q4C5S9JFugqm7BEAYFItJtVBcEhT/pN5a80fWvxiVHA4CusGsL4b0G4qVVmHqFRMC73/7zD3fKakZrxUhtq2bWRo0bo8KDaUIAiCIIgtwygI0CHW3It+CAQCxV5PIz0XfBOv/AkhAciyLj0AcICmCGY0ImRtQ7qz3OnOK1GLI2VjWRd60rAKT1f+7DGAIyuxz6XY7cdaOWCiSIYCsG3bPB4U+UFL282TDCUIgiAIYjPZLAE6dLhn2Qx3X1klCW7hxQvx0m8RtqCd8tJTAYJhuya0xOCYFfltUneWO/u5UwEICxv7sKITGmUcomZdHoJlpd7nJ9jtEqYcXShDjbLMZrODRYWWKlG6eAiCIAiCqI7qBaj/g0X1lUrX3HNvM02GJLiFN3+LZy4cyuspgWgAOzYjGoRUruL80MR3jhYaYBqaARoWRyKDJZ1I2xCDeEM1g1T4yE2YcRq8FCXfiryU0nGc0jR5f/dO8oMSBEEQBLE5VCNAy4Z7oqS+ktY6EAiY+kqu49MonvYF+N8hUBlwVibWkwEO0BDCjuMgTP47uTwrGhX3RHEGW2JJO/qzZWWo5pw5SkfH47jHWf1srSVjonRF3tOalCNPEARBEMToMmIBOliBT10I5zwQCPi6tytAQ0k8eBRWP4mQgJLlvZ51Icwi6VktBTJUYfEmJOxBZKhAWmLHk9gRt0E5YMI7z2aIHcdxHMdEhWLwfp6kQQmCIAiCGCkjE6Bl1Wep47M44tO051lxEx76FAICkIUbzcV6BgV2akUk4C64k/SsGk+GCo6BLBa3I+sUx4ZqaAamudYMxz3MJhymlWS8wBWqtbZtG7meSaVp8gUziQaLIAiCIIjKqFSADpvqbirMa62DwaC7afd9CozjvkOw5mmEOJQqaNHudc6c2YzmGjgkPUcPT4ZaHJv6sbQr31HJL0O5QEay2afj0OtdVygwRII8pSURBEEQBLGZVCRAvZX0onBP+GSoqSUZCATc7TIGLQGO3iW4c3fIDJjO1fM0m8iFe46LYmZLvrISMeqYUeMMi9vQlYZVrEHBGBQQasCJLyE2HdBg3BtobzmeMVZap6l4PtEIEgRBEAQxHMMI0EqaGxmEEJZlFecbLfoLnvw6wiURn8jpnjnjUBumNfcti98V2pXEkg6wEn82wMC1o3DUbZh+EsxyvMmxL6dBUa5QKIWEEgRBEARRCZUKUK/QEkoEqFLKsqy8+kSu0NIz5+DNK4vVpz/ZaKdWqFyfSWIM8JTooo3oL0lO8jKT9v4R9vh/TEnNBfMVCpVS2rZd6gcFLccTBEEQBDEShhKgQ6QceT8XqE9T5tM0N3rwKKx4uDjb3Vt2n16PyfVw5IeqdfvWj98Vuqoba/rKLMcbDTrndH3o9dCSmZbzJRq0CPiUaL70AUEQ79u1rv3lmT0rzlhB8AxdpwRBvF8MKkDLZh0VCVCllBDClFvKqU8NLXHfoVj3HIKFKUcGBcwZh/pIvrb8aOPvVen1kHe/7Vazzu85FuELjGVj5gs2CfKdCSzpdDOT8n+C5oJlpJ59Og69nmmpwY20rFCD5k413dgIYuwNi2aMKaW8q3Lt+g0rV65ZsWpNKp0Oh0ITxo/bfrvp202fat4vpRKC00MjQRBjT3kBOpjvE75s9wL1mXsXANx3MNY+W0Z9aoAz7DwBYcut8Tl66FxDIKXBGVhYwdIqIRJJ7kgEAzpWoxBWkAxprjQYd9tTjqXJzR+kghAaYQ0Op58PpLhUCFg6HlMIK9hMZTgAfwn/LXI0giPh4O11ZXomcYGMxOzT9aHXM5NMxuCPB7VtWwiBkvqgtBZPEO8LnvTknG9q6/jqNy6846Y7AYlwlFkWfKsTWkqkUoDcea+9/vnX/9t3r91MCildsARBjCUjE6BGd3qPy/mcd8BNnX7oWCy/v3ydeYtj7vhRV5+eK1EDPKIWvh65/Pb6FxeF01luCR2wNGNQCrbDlEYooPfeKf3N07t3np1WKc7yfr0te5bdg1QMXLOgfvC52BV31r29ImQ7LGBpSxQcZE1YH7p78oLTu6ZOsWWSc7bFDlJrcCDF8PYmyExppXqWlnru53Dwv5mWpjyTN/S2bUsph85JAt3PCGJM8FalUqn0kcd98oUnn7DqmxzbGWrFR2thWTKZjDfWL3z6/lkztzcNROhkEgQxNrDBCnz6fy0K+jSvF9T71Apc4Llz8frfy+S8a0AwzB2PSGB0s47MkSoNEVG/+0/T32+vr4tJzqEUygWWagCcQ0qWSLLvndn1hVN7ZIJzobFlNajWmmmmwXHJ35tvfLS2Pi4ZIBVjrDQAVgMQHBmbOZL96tz244/olwlu6vqP8kF65ZkSWSzaWLZbEktLvd/PMP+HzJQ18E0PUx/UiM4iGepODEqKJ4gxwVyVmUx2z4OOXfTqayxa4xnqYWFKi4D1ynMP7jx3tlmRp/NJEMQYUN7WMF9XRu9FvxK1LCv/Ti3BOJb8C2/8HWFevsfmTuMRCUJpgI2i+tQaCOh17dYBn592zf219XGpNVOKDZLWxADzV9TF1B9ubDzuvCmJLAOHzomxLYFUDCH1xnvh3c+cfv+CmrqYVIopV5ixsgcpFQRHTVh997KWz/5gouRQua88mjAGxqA04kHMmVA8GRiYlghxtvBHWHOvZgLKQU5Qev7von4EKFcjli4zgtiiSKUA/O++h99+6WUWrVFSVvpJrUXAcvo6r77mJu/ypfNJEMQYUCxAh858N78KIdz4P+QqLvUuxnNfR8D0PSraIjCzBbEglAJjo5vwzoROJvhX/6+1L8ktS1eYYGREVzikVmwIfPXXrUoaT+ToowGlIIJ6zZrgV/+vNVfcvZKDZIxBKsRr1IJF4e9d1sKsLSaRGYPUqAtiu3q3SWpBuwANDjx5JtLt4JZGviUBY8xUP/ACM7x5svV4PR3HAfDREz/NGGOskbG6yv5rZIx95gtfByClHGm7WuN8Ou7kz45sp7yJMXbG2V8DYDqgEsRIrmOWGBhwn2krvwBd28f7EwPmdzqTH2g8+3PgkZ9gjI/E6I36fw2MWX/625XI2WGCKMIqmrvwuazKylBPdngGDMrBM+cgm0GQQxeu+zjA1Do01cCRIzuusrd8n1XVGkqB16i7H6pdvCrYVCsdOSLZw5RCTUS9tDj81KuRQw8YUANMjH6QJZQGD6lbH4+3dYumWinLxwYMcZA6FlGPvRxdsjw4a/uMzvBBv+NwZ2wYHIXWOJIM6zr9tZmY1hCCJbrx7Jdw5J0M8KLKzKOIUsosxPul59a08s4ARCJhoFbUxswADIsQQvbJcDjsbaEKcjuNy8rcUZYlnN50xN0pQYwAYxeOOPTA2vGtfT29TIjKn5m01uDi6CMOBqC1Ysyi8/khIBqNAPHKjd7oz0nOVT+CbqIIPdgQ5SbJ0H8uqCBXdvEdDG/9HmufK1Cf5hMSqA9hcp2rPodWJNrdAbRb9gepLHoG0NWPngGkbXft3l13d6c00yyR4nyEz/y544fJgu/qE2yLLToxBjisu989yOquQ6XR0WMxjrL5Yq4iZAxpO3/GUll3994Z00MfJSA1JkcRC0D6K1cBWiLE9dK79LIbAAYt/Qvx3nzwiiR4dRLy82QrQW+Rt47qpmj1k6gGzrmUcsrkiffe9l8OzV37POR00hpAIGCp/o4/XvbbUz7xMSmldzkTHxLeb4tCFo0YggJzU7bbO3zpRybdJDezFLiF5Aa88UtYhR44UxNUANMa3F+GVyEaGuAcHb3o6AWAonxMpQCG8Q1oiJn8HWhAY/7MTE1YSQWUq2hv0s95rtq9STbXMApKO4o1xNVuMzOQW+QBjTFoBS2w5+z0rY/HlfYOUjMGzqC0e6pU+YQkAHAkG1cvd94uA8en5bxip5yjJ4GN3YAud8aA5jo017k/6yF0eq5A/fRGLNpUMjiaCeiXLsLU42HV+F7WnHNz8+OmapTPA+rXoJSNRBBbFCGE1nq/ffbIJtadd8EP/3HZX8FDvCbKONNK+y5GMMYByEwGmb4DP3rcTddc3tzUaMrq0XVKEMSYkRegg+Ub+WP7CtyfygHjeONX6O9BWEDn1hm9ZptTahEPwanA/2/klFRYuQG2A87LPLsbJ9/GLvQkMHUcAM60TPK9dk+e/bHey25taIhLR8KTcZ70HMjwY/cdOGrfgXSWvf5e6OnXoqs3WQyIhNDVz3/1lY7tdsiYNPMtsUwgOHSCf/zI/uffitzwcLyxVg2kWSiAmVPsQ3dL7jg1m5XspodqX1oSqq3R0nf85jxyBkeyH5/dWdfsyCQXvOQgV2xAxgYv5x01Z6yjD31JTGsFH9IjYoSwVKgPo6UGmwb8zyYamlkCXav1kn9i7gXQkkF4EtOyLH+gpH853tOjdKURxBhgROTf/viLy//8q6xt33n3/c8888Krb72zsa3dth3GWHNT4+wdZhx04L7HHXPkpAnjARjPgnfx0jkkCGJsyKsMTysUxYB6/5a4PwMYWIv3rkYAefUJgAEKCHOMr4WsoOiSVwyovQ8ZG4KX/4h5hXOksujsx7g6JrXgWiX4N87smjHB/u7fWuIRpXOOP0vovgF+zL4Dv//OJmUzLRmAj+03IM7uRFghw9MpHg4raOjkllKfBs61TvNffa39F1/usB0WiklwIMOkwwAojRMO6e/qts68dMLqTVY4CBOxIwSyNiIh3P7LdTtul1F+9emdsbY+pG0IXr7an3vGGDI2OvvQWu8Ox2AYl6rSmNSArgGo/ClxK21ZYIsuw+yvQoR9o6c550IIr5b1YHlI5FwhiC1KUQW0gGWd9PFjTz7xOJMz6mHiZMySBXxNdOkEEgQxlhQE8JXi16Ce+mSMQUmAYek1GOhHqDD60wjQlhiCAiMKfx5B2LzKuTkZF1qn+HEHDBx/WP+/767/880NA2kWEDpj8yu+v/HAvZNygAuhNc8pNMX0gAAQCmidz3/fUsbXs+3aYYwhGNBeIpG5KXANbbO6iLr3L2v+el3jb69vqK1R6Syb1iovPrvz4H0GZJLD5mVqNvlrRw1982Bwy69WgtKICjQ3YkNXUYoaswQ6V+qVt2D7M5mW8DlBjQA1dzX4HmZANzZihPjjNzSg3QIL4Jz5feq5PxW8/n4Fe3j2UymttdJa52rj5uvZme/BGPNe30JH699g2ZhOEzbz/g6x/2dVMo7KnC+A+70eW9iYlAwiGGfcV9g4N7ZjMYjv18CgpJlI1XDONONVb83vCHNNQOEkQT44UDMGv4Ns0IC2MTUF7lEXzSJvwvtfH91Z5L++vMnMhem8w0rOG/cyVDDm9+sCD2jZ/HcPIXKCQ2swAS2x+u7iQTYruQGGxhpXHg37fTzHW0MMfUm3WlOpS8+LegwINMTdWvM5WcaZ1ll+5lF9Z53YA4fZGRaIKpXhOlWmhPv70qxnsL0wBq2ZEFqn+Lknd593RpeT5FZYQTOZYUgzzkvq5HupRQ0x9CfhyGHOmBBojFekQd0tAy1BlAaCQjMOLL8JO3y2KH3NK0SPkvQjc/aLansRRFlzKaX0WrwC6O3pXbT4vXeXLl+xas36DRv7+xP9iQHHkbFYtCYabW1pnjChddaO2+8yd86kiePHrJmkJ5G9sHiz00Ri4L1lK95atGTlqjVt7R1t7Z3JVCqbzYaCwbq62rp4fMqUidvPmL7LvNkzZkwL5Npjbmuj7HdnZLP2e8uWv/zqG0veW75xU3tXd3cymQ4ErMaG+qaG+u23n77H/J133WVuNBIxc8Oc6lG5VXuDKJXivkHs6+t/d+nytxYtWb1m3aa29vbOrmQybdvZUChUX1dbVxufOmXSDtvP2G2XuZMnT7R8c/XDgFL1TY0Txo/T5i68eXDOsolkfV0thlQBhWpJaQ3Lyp/VdCazavXa95atWLVq7ca2jvb2jt6+vkQimbVtIURdbbw2XjNhfOuUKZN2mrXDnNk7mt0BUFIWdUUZA8Pl7bG/P/HWO0uWvLtszdr1Gze1dff0JgaSmUw2ELDqauPNjQ2TJ0+cM2vmvLmzp0+d7G3N8+CM9IALxLrS5gSaw1j87rLX3nhrxYrVazds7E8MpFIpy7LqauO18diECeOnTZk0d86Oc+fMikTcVU3HcfJKb8tPbQvlan+isPxniYZQAEfPO9j0glv7s2ASA3Uh1ARG4HVzlaWFHSZifSd6B1C2G4eUaIijtSGf+p37tDlTnAMZpjWzBHSGc2Z6qW/t9sGT0QzQaS44dJYzpt37KQZ5lDPN3LebgI3d6O4f9IzV1mBik/v+ik4Eg1SoiaA2ht4ERNEegfYXMLAeNRO1Vgx5ick5N8Xe/B4Lr7mffyJ9SIz1+3aPUJzzDRvbdtj5gGTHaiBU8dqBAHr/9e/rz/nc6Z6VKX2TbduBQOBTnzv3pv/+HagHnMo3fuxJZ95723+9/liVGE3GmFLaODYGkslbbrvn+htufeK5hXZvJyAQDMMSXAhvvTj3KXh53lJKSIlMFjpTlddDAL1f/sb3Lv/TrzyJM9gBm2bryMU3P/jwE/++5qb7H30ysWkjoBGIwBLcEpxzk1RpDje/ws0gpdLmaFW66qPd66BjFz51r+M4fgen+fVbF/3kD7++FKgDKqx8x4HE/P2OfPW5B4cOnpFSztvriMWvPg3EADWMDUHm9rvvOvFjR3v3VJPkBGDxu8v+36/+cMvt9zh93RBBBIPcEpwL49TWOne6GLTW0pHI2nCS0cbWr33l8xf/4FuxmmjV+VK+KecOIhi7596H/3PNjQ8+8Uyqow1gCIZhWWbKwbjdNPKDyAANqZR2HGSzUNVPuY+ccPpDd11v204gsFVUHrAs4Qx0ffGsr/3mZz/0K6FRoSgIpKxgUko998KL/7v/kXsfePSdd97VyT6AwQojYIFzIThjrhHwPp9zH0IpraSE4yCbBnTTlGknHHfUBV//0s47zYLWMjdhMBpqIP/oIpU58sRA8sZb7rz55juffH5htqcT4L5ZxMqYAgZoOMZwpTNANljXdMJxR3/p7M985IiDUfGzlt/bas7w2vUb/3nlNTfdevd7by2CthGIIBDw2c/89VVw3mwbdgosuP3smed99exzzv50vKYmNwe2rIPfKp0QpUoUBevvgNLgDOsfhTS56oXGSAN1YXAOJasYW0xswuRmpG0kUshkITUERziAWATBQF56lnOnlcQyfZDUzsgO3nN5ao3xDZjYiLSNgRTSNqSCYAgFEQsjFCwS65WMAQAIhRhHT9FdRUNw9Heh7VnMOBVagXHvsYTnVkeKpo321WwiJ+jozRZWVxtP9taxUKjCs2qKm4ZyHXSHJhqNAFGrrtaprIKvEEL26Wg0WrkF9+zmO0veu+A7Fz9y/4MQQV4ThamkXVPnzVuvttcQu0ckDBap4kwKIWSfCg9eflVrbeavOdqNbR3f/f5Pr//vDVCKxWKmBARq4r6j1Wpo08c5wiGwcFVHy2WfjsVq3CuyBLf6bLxWVtaKk3Ou+kWspqaSSRePx8DqeWyYPp9CCNnXdd2Nt3/i+I8CkEpZQrz06pvfOP+ihc89g3BcBINSStTUmpOmlFbKGdTQhYIIBpKZzO//dsVvfvGbmfN2fvSBW6dMmuDpgEqsvOdDcaS0hFi9dv0FF/74zptuB2MsVsMYU1J5x1PplAtvzpRzYuZi2bruUMyrpsdGby2+aBT80m3Je8v+c+0t/73+lvXL3gULIRoxtaU1Y34LAEBKNcxjD2MIBGBZYKyru/u/19969X9uQKpv34MOufxv/7frvDlmp1XLUP/Ti3l6v/N/9//40l8teuMNiJCoieryhmuYqYBoBCyadeQd9zxw6933I9Eba2z+6aUXXfD1L1VyJk017mdfeOmCb/3wlYULEKwR4ZBSCj5TPMxkZgzBIIJBAMvXrPvuj37+rW/+AFp9+bxz/u9Xl27O815F9mfo0+07yNx09Ap2diyAKvGta8ACakKVrr/7z4L3r1QICDTEML4Rk5sxvgH1MVjCTS9iVZX9/PBResbqYxjfgElNGN+IhhgCVjVnzBvleKiccWRMA+0LTU9V/2OA5+kszWMrO6OIzbXmW93hjOCIHEcyxq6+9mYWbNl5t4Mff24BonGEgkrKvK0c0TW+WQZh0CM3Zteo8PseeiLeNGPSpDk333EPIhFEo1rrfJeBsTva0Z8butJPVPQ2KSUi8bvveXD9xk1CiG9+9xLG6vc9+NiX3noH0ToIMeKTxhgAx3YQja9Ys27q5Jm/+O1lRvpX8libG0QHwM233xOKT56x3W73PPAoamoQiWillRz7KbetWi2tu7p7fvOHv7VO24Wx2JxdD/rtny7fsKkdNfWIuoEWusLchsEHxV0YYQzRuhffeGv+bgc3jZ+18OXXkNPWI21ul5vYCsCCl17bcad9Gav95OfOfWfFamO45GYbLikVtEY0nlb6W9/4zme/eL7jyMEcgubfTDb7pfO+y1j8kKNOem3xu4jWwhIjbd1XtHEpJcIhRKNXXntzPNY6Z5cD163fCEBtmcbaVtkT7V9sQunKKbegJPqWg5c04NFAgCNijWD9fdgLm67zsTeFWiMSREBAFpRIdcNAe94p3enW1wNpdMylSawb6YVn1u6IonPCGJNSCcEXvvTqoUd83FGKhSNaSulIDBpr8r5PAKzfsOmAw45fu3I1r6lBOOz2FSS7NASM2VJOnrmnHkjymihqYtBaGU2weZt1bFvUNv3wwh+8u3T5v//xB6/4xhAopYVg7y1bcfDhJ3S0d/JwGKEgDeLYX0rGl/bWoiU//cmvHMZRUw/zuLLFJiEA6UgEg73pzAH7Hn7gkUc8dt9NAHPj8yrznSMX33LVtTd9+YvnQwgeCiEaV37/zmicIMY5U0pI+cyLT+6z525edW3vSBhjWkMpqbU+4dSz7r39NquuxfhclVSjdiT5573apavXTps666Qzzrj5v38vqvY9Kgwatu+/4xZ64zWgke1Gaj04yjwTBwQsAXJ3fbCtBSAYAqxoeE1uIetfbnyqJfOWDTaFvPWLD4gflAHaEoIx5oWWV46JRhBClG2OsI1OKK0BGPX5vYt/fsB+hyvL0pxXmu6gNQOEEEJwU/ZrDJ5zHEdyzm+67X/Tpu60ob0T4XClEipXGsIcrvnXe32bwIRwao1oZJTv04xJxxG1jf/555W//v1fhRBDt5p0HEcI/o8rr9lp9u7diSQCAVXxlEPhlNvmBnGUZwQTQkilDj5gn0VvPhcOh5iUbKz2LW2bxWqfeeqZqbP36entRQXOvFw0gmaMvfn2krrm7b/ylW/xSARCjMKjVMnOhGXpRO/xJxyT7lu95267mLV1FHp2pJScs39cfX0g0PDAw0+gpsGx7dG8uErOm2PbLNZwx213TZix6/oNm0o9sptJcRJSWX9v6XFBppBNlLm3asDibi78+42pRa81M92POMsNE3v/RYFbYwZQuRBNzgBWkvD+Ph6gELAsaKf4dQbYvbATCNT4R3mIVHd/h6QPhK2UjoOa2n9cfvU/Lvt79VsJhlFTKx2HvCzuWZVSCPHnv1/1m5/9WtQ2yIrFHBdC9ffXTZxwwnFHzdxhRjQaWb9+030PPPLOq28gGi1fAmJwi1DkMBOCay78hUh8R8sfevSp0z91NovVVuqnMSUtEgOButqPHnnIHrvt0tjYsG79xueeW/j0E0+7MWqVC6CSo+Vc6Pe7iFKleN9x1Oc/Y1JKRGKX/ux3xx971E6zZ3rFE4pwHCmEuOWOe75yzjdYvKHSi9EMYn8i0tx4zJGHzp8/r76uds3aDU89/fyCp59HOATON2cQc1NuqxzE/KBtEavFGdNaz5g+9Z3XntplryN6u7pZIDDofSH3/F4UkGrqCnmnt8I5o5XiodDGVasOPebUV599YOi0pNwDsxRCfOac86+78gpR16KF2Mz6AAW3SC+LgzHBmE6nHn78viMPPdDstNR9I6VUSh92zMlPP/wor210J3NlB8M5Zyy3yg/ArSPGpZTDnEMjoaxAR3vnvD0Oe23hI9OnTh7FHLXydUD9lXTyCYP5SQHIDBwjQHXpd916ribN4Dh4/q1If4rPnprdfmoWQY0MkzYzCV5jJvhyaXtaa6YVRFAjqHWSv70iuHJDYPI4Z/c5ae1sTW3TmQbTZQ2Ce92a0+ebMx+eKE8zJ4IBBAOjs6ltHq21ZVlr1q7/0U9/g1BUVZKhaKTnQGL/ww5+8O4botGIbdvGEmmt/+/nPwJjv//Lv779jQtZTayiuadUNB7bZ8/dkE8HheDCHujfYbvpfitnqjfYtvOdH/4/aD1sW3XzGcY5stnJE8cvXPry+HEtUkqltTla4z+7854HTz31LMlFhdcJY2yfPXeLRsNSKt/RJnaZN+cDObO0NlXxtOMga0MrkwDBjVdyZLmSEAEr3d152eVX/e0Pv0C54B+llGWJ/v7E9y7+BSyrou1rzQVXqfSOO8154al76+tqHUcaK+cN4n9vuPVzn/sqC4YqrT1hif322j0YDCrlH8S+nWbviK0pT9ZxJMLx/1x784MPP+FvjjUihODJvt6zz/7sRd/+WlGVBm9Km8GaNGH88rdf2GWfI9atXM1CIb+w45yDQWVtpAcAjnC0Zfy4qVMmxmMxMAwkkstWrOrcsBFOFjVxt8p1JUfLmFJa1MTeWvjC//vVHy/94bcHe27JOeOglNr9wGPfWPgSjzdJ2x7ZJWfMl5RI9gMWaqLxeKw2HhsYSPZ0dCKbQjDCQyEwpvp6DzjqiAfvuj4QsMw0809m98bK2EAytfPeR65euozF4qqSRynzHJXNIpPZbf99Tvz4MXvtPn/ihFYAyVTqzbcW3/PAI3f97wHYDkLBoR+oNMADVl9nx8dO+dwrz9wfDAZHq6SAVbTUjiEdov7vNqiTc+u4oJQGF7qzR5z2o4kdvSIc1FmbZWwmFbabaH/qI/0nHtJf1ySR5tJmjIMZNTWqztGc6IRW0BoipBHQG9Zbtz4av+OJ2Nr2QDCgQwEdDOiefr7fvPSVP9rAFLaiKEo2yAteAaxCy+Ll5fkvHqq7RLjVFjm/696H+jeuseqaK0mu50KoRP+eB+3/+AO3mtgjy7LyrnTGHMe54LxzLC7OP++bonZ4/xYPBpLtbRd8/Usf++gR/nuPt2DjPdabR/xnnl/45qtvIBJRFUS0M8a0bde1tLzywiONDXVmC8JnUR1HnnDsR+6958ajjz2VBYetXWD8vr2fOOGj3zn/K2WPtuy9c+scfiaEdhykEvsdccS5X/zsoQfvX19fa1mWdOSmtvar/nvjL3/1R6lzSr8yi6GVBg889OhTyVTKFAotnXVa60efeGbFoiWsJlrJIwrjXKUyE2ZMf+WFhyLhsNZaCM4KBtH5zCdPioTCp536ORYdfptcCNnbd+YZp3zxrDPKD+JW5Qflor2jq7Ozu+oNCMtyers2bGzD4KEK3h2hri7+zitP7n/4x9985bVAPGbbDgYSYGLXPXc77ZMnnnHaJ6ZOmVQ0oCgUPTfeevfZX/haWjq64ruMUhLB2J8vv/r8c89pbKw3CfelewHgOM7eh3zsjYUv8prYCNbcjUeTc9nffeBRR/3i0osO2G+vsm9cvWbdRRf//Ib/XHvtTf/99GknGm990Xf0fk2lM/seevya997j0agaVnBrzQTX6ezkSRPuvePanefOBmA7Dvc8php7zN/5c58+NRCw7nvwseOO+yQLD/NAZbT7opde/MGlv/7dLy8xhfxGYcZ5gWv+ixZDrcUzALAiCNRCo4xIGVH3oy1o9aAt3dkrkmnOGRwJzhEO6lhEtfeIv95af+CXpu54/PbHfmvyVffXtvUKFtEsqLSC8Umb/6oyttCA0jBLdiysWEgtXhf41XWN+39h6o4nbH/sNydf80Btf5LHoyoc1IzBkQhYurOPZ9IcW4k5YoBmKAnRyTnGBUSoyMIUJb+XlZ4kRrdZTC+vt99ZAvARXFlan/ixo01lFhS2mgTAGGeMHXXkwZGWVpnNDju7zJ/vvvchf+ckUwyyNHyZMfb2O0uQzVS42MSFQGbguKMPb2qszzWUKThaE0p4xKEHTt1uhk6lhztaN1rojrsf8IrpDna0WylaQ2vGOJLJaRPHP3r/LVr3PfXQ7aedfPz41pZIOBywrHA4NGXyxEt+8C17YN383XZBMsUrvqsprREKrtuwccWK1QBKC82YQXxz0WK3DV0lg8g5nOQnjjs6Eg6XnXLGCXrM0Yc1Tpygh51ybgEveftd93t9eooGcesaylwbqur/U+b/9XD7cb97NBp56dn79z5ov/333uORe27UukerzlcWPvKd878yedKEomLk3rAqpaSU2Wz2pBOOWbPi9QkTJ8CMRQWGRWvwULBn/fr7HnoURo+WIJVijF34o5+9/sKzViyuKl9215pbFgb6jz/uI1r3P/HArfvstXtpZRjz8+RJE667+q9a951x6scBmBJRpfNBSsUYu+DCH7/zysu8pqaSh2EuhO7vP/0zn1z97ktzZu1g9mjlYtIF50JwIUQgYEkpP/qRQ5966l5WwZKUlBLh+D+uvGbN2vWWZY3Kgmc+BtQ/M/wl1sosrWqNQAyhRqS6y5jNrIQGKlq12qLXEphkTbWqtkYNpIUQ3qM10xpSI2AhGFBt3eJfd9b/5ZaGdIbVx9X+O6c+flBin53SkToJABmmJPMqSpWdhK5UZWAAtzQLaSh0tFnPvhG559nYS4vDqQyrCWtLaKkQiyrGoJRXC9Y9Z45k4xtlOLQ1pU5LDamLni/c0kvhFjALxX/MP64NVkOOKjFt4yipRrpEErCsIa5xAJxz1400nM0x09NUFWEVNmUYGTocMmVWB00+E0JwVmGMvAYXff396UwmEg5/8NLZGBOCy77uX/3+N9+74KuZTNYMUVECmammpLX+4Xe/cconPjUiQcaEyHT3tnV0zmNMDzqEI9mgGcRwCEPmGlnCMgXGhz0DJpGpp7evkmz9bQojLTjnAcYWPP6/XINK7V0mpiSQ1zaW5csVydVr169avXb9ho2rVq9bt2FjQ0Pd+jVrK79eOWNK2wtfeu0znzq5tJSsUtoS4pXX37rs71cjUutUnqRv1tz7uv9x1d+/9PlPmwgEz4Pu/+LezC96pXTymzCSRe+8e+XV1yEalxV49zjnKpHY97BDrr/qMgzSjBe+ByoAB+2/9+FHHPrIPQ/weHzoyqU8YA20d9x6xz0XfP1Lo1Is1hp6qb2cBmUAEKhDzSR0LYNVaPQZ4EhkHISt91dLcQZls6Zx9qyp2VWboqFA8Tf0i1FLIBbVjsQzb0Sefj2SybJ0loeDakqrM3tadv7MzA6Ts5OaneZ6WRNV4Ln7i4OehOjoFevarcWrgq8vDS1ZFVzfYSmFcEgHLQ1AcF0TBmOQhaLTf44Zg+2wXXbIICZlrxBbg5liDI5CRpa0WmVQQO1MMAatqrgnkhN020RpLYDd5+9ceX4iYwxQTz7zwoUXnFu2yJdWWjH9+puLEps2iNp66QyzTGa2MWliK4YLDjFGb9ed5yAYVpVVdFdKQUSeeeGlrG0HA4GiXXh99l57c9H6DRuRC6Ia+gRAqZqaaCQcxge0mIIGwG07C8DYtbKrIsaTPXPmjHBTSzqZYpyP4NbBBjUpZhDn7zIXvFJvjdIKLPzkMy94B1x2EBe+/FpnRxcCVgWuPgAqHqsxXnyyfiUXuHtivYvIW9hdtnzVU88tePyJZ55f+Mra9RsyXZ2AAiw3O9ayhBDmSU4phZE45JTWgLV0+UoU9u2Dr471NdffqhKdVl2zY1eaRSosIft6Lrjo25763PwINHMwV197sxzoF/G6SrpLKKUQibyw8GVROzWXcjTkFZrrsoFodBhb534d55nnX7zg618alSD08nVAvavX/2/+klI2mIW62Vj1FEpcZLA1Ujaigc0qBbr5ps8so3OcdEj/wy9G/Sd7iCvCnP9gAAFLMabbukV7d+SZ1yNKw3GYVFCa+c+E4FpwWEJ77dmjYWWGSemigMlBsSVrrJUnHJhgac7Z1pFbwBgGUpBOYStOaMaYAhp2BgCtwIR/3ntrhd50Kn3o/8BEhY4wJWILbuSDD2PMdM0+8/STf/bbP69dtpKFh2/gJB2H19bfd/udP/3VHy+56JvZbNYrhaO1dqQMBgLLlq8654vns3CNqigRgQH68EMOHDZhzoScHrjf3kd85NBH732gksZCWmsejbz7+utnf/Xb1115mW3b3Jeu7jgyELBSqfQnz/xyNjHAzQrv0HIZANTBB+wLQEppWVtFw8bqxn9YYwMgGomEgsF0YgBidKr4mZN/1BEH73Xgfi8+8xyviQ37LKGU5rGal5957rxv/+hvv/+5fxC1hpROIBDo7uk9/XPnasdmwdCwOdHG6X7IQfvB9WZ9cAdxlPF0hSc6X3vj7X9dee1td9zTsX4tIBAKi1AQ0EpprbW/2ZhrH/y+yRGbWT4wkES5yoCWJZRSTz+3ACysRpLzLrN2vHXCBV/7ornxjYr6NMsFL7z4CsBGeknkZ/sw0eao1Cngnitr46Z2s6a/+UuavMITUViFhIExtB5UphA9AAUkMv7rz/1BIx9c6Y+y3DIy1bSG10l+6F7Jg+enEqnSQivD2kSmNVOaScW0ZkIgGEA4qCMh979wUAcscA7zHqWZxkhbz2vBkUjyTx7RP3V6Vma2vDYrOwq5BrsF378vXTw0DEw7CIK17FMqro0ALc1pKzyrHxA1Ziyd7WAgWf1/JieGog5yYy+ljETCN1z1F4iKorXAmHIkYnU/vvSXonbqz3/z5zcXLU6m0lKpDRvbbrzlrtnzD95h+/n9WVv7yjUPauk4k4nEvL33PuXEYwFUUkmUMXbNFX9qnDRZVRBgCkBJiWjshhtvZ8FxF3z3x2+89U4mk5VKdXX3PPTokwcf+YlodPyyFasRCqrhnkwYg8xmGyZMPP/cL7CSOj5ExdexDgQC11/1l2hDo3YqKjKipEQsdvnlV/Pw+HO/+YM33nonmUorpTo6O++5/5G9DjymsWHaxrZ2WAE9/CAylc5M2H67c7/4WZQ427bK8zVGgwJfvNYfLvtXvHkHxmr3PPCYK665qbOvHzW1iEZNUx8p1WY1Rqrq8NKZzLIVqyvxcPvMC0c6tesucydPnICSulGbc6J6+/o3bmqHGEnMZXW7rrSgFR9IJjPZ7KjFgPovmMEKhntpJdrElWuN8YcgUgN7oPj5lgM9KUyuh+cVZAxmXdnRsCVMyX6LIyBgVKHS+dado+s00gDDxWd1nv7jCf0pLnguL33rgDEk03z+zPTXT+vWKbZFDJRXbMzsTzCAQWlkJSSgJQRHQORfN+/PSvTbJY8nDFLr+ESM25cBmglW0KZMopzENI+D/qm1tVthQFiW7Ov+6vlf+9sff1H1Rk4/69wb/3OtW/Bym8eUkZdKHbDfXkveen7P/Y9O9PUjEBjGh2SmrrCUUj//7WU//cXvkc2aV7iJmI5GK6nMxxjTthNvab7zhisrWRoz9w+l1LhxLSsWPb//4R9/+9XX+LDVT1iuLl0wePnV1/31n/9GNgsNcM7CIcYYoqaLOqvgdDGm9V23/mfSxPGDFYshhh10M4jbzZi68p0Fex983MqlS3kkOkxGM2NmqQeWdfW1N19x9XW5KSd4OAzAHcQK7BjTygoG7rvjmob6ug/AIBrLn8nCyVS9DcksIJHOmC2UVPHzram2d3Ydf+JnXnzuGVHXpKRCNO6Wd/VdSiM++FE4B5pz3tvb75bUqFzyAYAOBgKj22yFMZbJZFKp1FZS3ZIB0LKluTEUDI7KBq2yFcL9chO5aqC++AwGrVAzGRMOw7J7EBLQvlssB5I2elNojEIBnUms70XCdg+/sJwojDWuCaClBi0xBDkc7S/QWm6OYPAKUAWfMmlDMssmTcn++tz2L/+mNdehqdKAfg1wnS+ZoVmZT5r3IFdZQ40g6F07kjXWyj9/sy0Q0jo7iAD1K8jBvvXQn+IMDsOmXrQnkHLcc140FmbzUQsTajGhFj1JJLPF6++cMykx9eOwaqAlQz6G2qykFAV0F5YO1vggVWXSAMvaNgApFecjeJw11w7n3HYcbCUtGbYaTC78dtOn9rW9d9GPf/nrn/7cqm1ylMKwMtQ84XAOIwK8BaYKiuGJQED2du++377PPnZ3MBjQFfsnTHBitCb61kuPXX/LnZ8+7WwWjYBzPayCKTlar5jfsEfLLaHS6YaWlgVP3bfdjKkq1xCFqA4z0A0NdSveeeHvV1577jnn8Vhcg+ktOeW4ZankwMTp0xc8de/41hb9QRhEKxBwett++JNLf3bJhaOywUAgUGQYkfNTnPKZL9923bVW/ThE66SpyFbBWTXl000xbZ1KQ2bMgy2CAQQCo6JBzS2sob4uEgn3d/VUvoSlocGs9s6uVDodCYdNAeDNn7wAotFobTy2TqqtYjmNMcDZed5OyIUVbeb2yixdeda56E9u81w/M88CB3RJYI0C2hJY1olnV2NZB1I2BMAB7pM+5lcBCCBtY00PXlqLZ1dhVXeByvMvEGsNziAYshI9KWzsx9perO1FWwJ9aTgKnEHwojVlwbVK8f33Sv7zwk3pDPfingefSea8IAskgXHAZ4CrNU4GkoDw5akb6ZkCdgV+qXEK0AwkADsnSYecLVoqVhNRN/50/fjxTrH6LPjKHIJBKvSl0ZbA2h6s7cHGfvSkkJUQHJwVn6X87GVY1Y3nV+PFVVjbg4yTP+dlxyLjYGUXnl2JpR3F7k8GpiUCDDNOc/08vhByx3G8iBN/vQkM2Z+T2FzjNHYfGy3zxQAYH+Qvfvw9rRM/vfi7NYKP/kFpDQbLspBMTG5tfvX1515+7sFAwOLmDlbZjcrcjUyo02knHa911w3/vbw5HmOjPoeNpbIspNMR4OYbr+5Y+/a0aZORk+zEqEy5L511uta9//zr/9VHwmzU7ZA3iKlUbTBw7723rHnvpdZxzWb954NwqjTATLECx3FG11B7W0unM7N2O+S2G2/j8SYnm620FxrnyGYxkJy9w3YXffu8Zx65o6tjqdZ9Wvdq3XXJJRdioE9YoybxQ6HgrJnbw7bZCMqLakQjb77yxjuL39Naa6U2/wQyBillrCY6ZfIkqCxjvMJzDQCOg4HeUf9P9vUAmb1335WNUjE4q7TcUmnNqlxTVGVyAPN+rMnHoHkndCyCxQGfDOVAdwoMCPi8jWWPlhX+zIGOBDYkUB/Cji2wcj5wzpCRWNmNriR0TjwVTwFAAQIYH8eUep/fEoJrleT77Z6881frPv2TCVmbmZix4gq0gNBIM1jAWcBZCnHT9YlBA/MUPs1wOscAIHIr+RK4UWFXDZvhcI3vaQDoZvgbww3QlmYBQDLt94pqDcF1KsO3m5S9/qcbomGl/fPcOyxz/Gt7sbEfjnY1YqnFMO7MpiimNSBkQeacsRJYvAk9GQTgpu2XPeelL5rTW/pQAQ5bYfKBbMKh0BosnyKqtbZNR1qfxS+K5Rii0gRRBZwzVo1sYxs2bHJt2+D3CaXUGDhuzb5isZpQOJzM9m+W9yJXeJMzphlUOovsQG3TuG9/67wLv31eOBQyfpeiei5VEIvVRKIRdHVv/tfP1YN0O74EorVnf+bUn/30B82NDeb2bwlBfRy2BPF4LBgO60QC2BzJ4nrS3SmXySKTDNc2fOWLn7304u/W1caNv0bQIPqud875SWecs+zNt3i8tqLS7m5P1P6DPnLoDf/9x4Tx4wA4juM1PTHJef67z+ZjgiUOOmCfpx9+kPO4qrisOedcOZmvfefiZx66vWzVjuoMG4CPHH7wQ3ffW6GiZZzrdHrGrJnL33puiw6oNRqK3ypOcs/NFZS4srz8U/MtoRyICOZ8DU+dW3IOyv1slKjKKVVPURUpVA0IYCCDhWvREsXscejPYNFG2BoW8iWQyox/zp/X1o91/agJYPY4hARy+kdn+YxJ2eeuWPXN37U+uDBaH1OOZIyZppMQGgmG7YG/KEzXcJhrnDSDgFtxf5LGYxJf4FjAAGBPjSs1whqKuUpbMzCNOuAirX+o2JtcX8CwUbMI0zIX/WIJ3dkrvnZyzwWf75QJzrzyTP7zkFVYvAkDDswihhhcNZpv3ZNERxIBjjnjUBvGez3Y2IMAcodeMgooGYjS5wRWbnc7fwdaQ0tw4Z8boVDIcRxjc81TStEVWNoOnoxydZjzFo/FIpGwqShboVTUWgP84ceevvCCc3nOghf1rJJSBQKBpctX3XvvwwhXVHZupDchxpgx8X+/4tqvf+V8EYspsDKNTMxDjm0jm87FiAgI4cZCaUArSAXkgn8CoUnTp+6x264nnfDRIw47aNLE8eZeZZY+q5Oe/qN96tkFRx9zsiM1DwV1aayMeW6UEulU7mg5uAXO3SdJraAUtMxdabxh0sT5u8479iOHnfjxY7afMc3c+bzifFtjlfIPJv5BvOeBR0888QwWCMKywAYZRMdBJj3oIPqnHETz1Mm7zZ933NFHfPz4j06bMqloEMnQeUiphOCPPP70Q/c9xOKVlnbnQqhE3w23/PdTp5xgVKZph+YzaNBaazWa2czm5vWZT5382z9ebmcylQdfKil5rPb5R5848vjTH7v3Js/4DCZD/XUAGDNdiopj2Ezq9BmnnfiL3/65u6OTBaxhVahWSkQiK95edPhxn3zs3pu8ArQjS44ujMDccg9RVsFA+nSn968QIhQK+Y4GMNXIwaAldvgsFv8dbW8iwKHVUAt8CmiKYLsmBAU0kHXQncKGPiRztX78GkgBFtCdxDMr82vEw2YQ+SVs1sbL6zAxjhmNpginBhMM0mGXXbRx2arg5//fhK4+Fg1DSiimA4zdpbCjhkmVFLkVbO+IzFY5w7UKWQYNhDQUKzkuU5EeDMAcjUcUe4Hr8xigYQn0JtjO22cfvmxNXUypAV78eKw1LIGVPVg7iHwc4itzQCm8udE9UCvnHEXhuZVAjYWJdagPI2iBAbbCsg50ptzdle5LA5wjqzD1cEz5GLSTmwBG12sNcM6DwWAoFDLe0KKqy96XLNvvgKxzFdY8HA61trQsk4sqj1JSSvHa2kfuue8Xv73sB9/9ulLKa0Oncy0B+xOJT5x61pOPPMZr68HFloiXMF1M9jz4uNeeXyBq66TjmNIRJfcerhIDN97870+ecoL3Yl9ffyqdYQyM8VAwUFMTLQqtk1JqgOcs5uYoOS9kTQhx5hfPv/aKK0VdM2ArWebeKSwh+3ov/unFP734O96LAwPJZCqltQZYOBSMRMJFUXFmCDh3j9Z7bKOLYrTwBpExdvxpn7/nlltFXZO07bIxx6b36Z/++vtvnPsF78XEwEAymQY0YywUCkUj4aJSSlJKrUGDOPQoGHW14KVX4WQ5q5EYPi+TMaZSqSmzZh1x6IFFHdL9yUyMsSVLl4OLUTFVZvuOlHNm7fDVc8788//93qptqrQWPWNKStTEnnj8GR4ef8tNV5388WPNNW7K0fv1nFJKA5YQjLFrb7z93gcfu+7KP5up5b8tcs4dx5k4ofV73zrvom9fxEL1erhqxyaXi8XiTzzyxPhpOz/zxD07zJhm27apYTdYKrBRe4wx086K+7rJ+M/2qM8Nn1MzN1c8hBDhcO56M4PtKRTGMLAaGx7D6jvQNB8CwJDqUwK1QcxsAWdwFKSC4GiuwS4TccA0TKyD9Gkp+GSQyDlKi7KXNCB9//n/BJ+E3dCPNzeAmSbvGppxDmTZ9HHOU1etuv0368c3yA0pdgjHAqW319BMC5TvnsGQ18cBIOi9reTN7vdgsAAN7AUsUJidZNtvl3nmH6tv+fW6eFDDnUW5MTWpUSKAtzdhXU8Z+eidxiG+MnKhnAXHkftZAhPrcOA07DIRTVEIDqngKDBgZgtqg/khKP3mWsECGnbGO3/Fsmux8SkMrPN1hFf+eJBAIBCJRDjnqiQOpjTMY9iKjERZk84YO/jAfQA5IpugHIlY/Ic//iWzmvc86Njv/uj//fGvV/z2j5d/6WsX7rb/0SwwrrFpu6cXvozoSHofj+Q+ZGb8wUed/PoLC3ksPlj3dsaYSmWmzd7x6CMPkVKaTjla61ispqW5sbmpsamxPhar8eypv4GKJcRoiQCTdvnlr3/v2iuuErVN0rYHOyfSdli87rSTj5dSmgV0rXUkEmlqbGhuamxuaojFarzmdd7Rcs4tS5Bk2aKYQTz9rPPuueU2Uds4xCAq2460jDvhY0dLKZ3clItGos1NDc1NjU2NDbGaqNetu2DK0SBWhm07IzAXSvFIZM3iJd+7+Od+Ze+d5FQ6/YWvfpux2rv+9wAiNWr0io0IzrXWv/35xbvud4CTSHDOK03/MYqNQQcCp5x+DhNNhx59yj33P9zfn4AvuyaZSj234OUvfvXb4dqpjNV94dzv3H7zHdNn7d3W3lF6QxRCSCkvvOCrR594gurrFVYFVXJNRKVltXf3ztxhj9pxMy/721UdnV0ozPBxpHSkNL09vcj4/v7Egw8/ccKpn7fiUxizjvjYp4wkxZbJ37C8qC/vujLpzMFgEJ4YN6uuzELPIjx7HtY9BZhcFu5mxLOKRrVonFxt5ChMqsXkOrzbPpQfLv9ZQAMzGjGhNl/rfn0vVvYUhPR4Tsv+LN7ZhDmt7iI5YwDjHEizHVrtu/+wFg5wV72+o06kmY5oxjVUbjW95DiGXaZ2vxfTjAOSIclFq63P6Lr+sASyTEkG2wQT+x2fADSEhXc2oqfcGTB6emo9Jtflg2I39GF51zCFXHMdm9AcwcwW92wz5huCXJp8JaUZF10GTy9LBQfgwJSjsd/vUD8XWsFU1TKpG5ZlonM8b6j3wFrqECUqxztpnzj+mN/+7q8jWyV3HyEZwuHX31z0xpuLvKcUDSAUhNZlPXyjglRKcH7/w48veP5FRIYqn6SVYuHQqmXLd9nnyN//+tIjDzuovq52iAkz9EQyTggweI/1lTzNm5C1tes3/Pu6WxCJyyEUudZMcG3b+x583G9/ecknTjhmfGsLvMWiER4tAMeR7kJKrn4ZXSnVobTmnC9esvTWW+9GTe0wg2hZqb6++ft+5Pe/vvT4Y45saW6qehC11lIqGkTvZBldteu8OSP6lHEo/vvam6++/EqA1U+aUBuPK6Xa2zsz3Z3gAV4TRU2tu6A/SqfXy4cJBKzH77157t5HbFi1moVCuvKi9F41nkjk2QUvPXvGiyqVgvQFqvIAi0Y4Z1IpRGNSSljWhk1tk7fb7YWn79tjt12KinaZJ+37bvvvQUed9NyjT/DaWuVU4CBgTCmFcCiRSl14yS++/d2LYWcA1IxrnTihta62tiYaAZBKp7u6e9at35jqaAMYRIBHo+61E5/42P0P7XnQsQse/59liS0xjQuW4JGLsci5u+GuszOBTc/g/mPgpGEJt3go86WqDHtIHEhk3BadXrHJ/KcYlMascUhksGhTvkB92eVgwTBvAsIWbJlXURNq0VyDNzfClgXy0GjQngzW9WJqPRzlzRCAMQ440JrhY73s1G7tMPZmBI/G8VoE/QwWQ0DDKuzPXlKbvWBfDoPNoIFGhb0GcEwfm5GFzViWIc3BNC/VXebLWhxrutGVzJ9b/x4tjvkTEBR5+SgVxsUQD+GtjVC6/InyHJS7tiIWgl9YFKnPlIOEM0xEPgOg8l+fAwGAARsfwS3zYEVwzIMYfxC0BIQnQ4PBoOM4ZgnMf+8v23Nrm75VjgTOuZRq7z3nf+LE42697kYRr5Mjclia/oBlo+u36ChozRjr7e1HNsNDwaHa0pgZYgXWrt/4yTO/Umy+K0WEGxtaxzVPmTxxpzmzDjt4v71233X77aabKedIKUp6MZcykEjaw+bqmpbfnA+k01/79o/OPe87xtCP9MYn4rXNzY0TW8fttNOsg/ffe79999p57mz3aB3preLRlTKyKcd5YmBAOTaGrlxoppyw+voTXzz3OyqdqaocJrfqapubmiaNHzd37uxDDthn37332GnOjtv4ILJcROwxRx0+c9dd33vrHR6JqErcaV7aQLQGjPX29vf29ruv1MRReWGskR5wboO1tfG1SxZ+9BNnPnz3PaK2XjpOlWY2HAbChRNTS6n9B68Z05zvuechN9z070+d8nGjQf3L30qpZx+585yvXXjlX/8q6lqG8OWXWicpJYJBcwkkB5LLlq0sXHzVSmtTihW+W4NSikVrXnvxlRlz9337xcdqa+MYbbeRVZTnXqA+NdyV4MdOwbu3ISTAAS1HXMnFiCGp8dZGzBuPcADmG2r4wr8YpEIkgL2nYkkbOlLuAnbRviQwqRbRIIqeAJRGwMLscXi7UJCZHyxgTS8iAbTU5DUcfIvgHMgyphnmpDEnjZCCBWQY1gWwKohVIawOoFcgzZFhkAwOYAEBjaBCjUKdxBQbO2QwOYvxDgIaNkOWAUCaA17afslqvbkIBUNHFqt7YQ1y6ua0IihQ1GxQaUSDmFBb5oOe47Mlih1bIE3svN/x6S3ZM6QV3toEOfJhdeevBAeQ1XcczGadgsNvyfWId68cE8Jh0pC9bsgf5BKhW4NFd5/S//mX3zy34OX15gF9FNdHvCKyto1gMN/FYPMwjvAD9tsrPr61v7uHWdawjbRdw1Riviv8CulMZvXa9WvWbXh+wctX/Pt6ZdtIpwDsuMvOF33na5/+1MnBgOU39MXnmLFpUyfPmbPjolffGP6W6dnunKEf6dFKpdraO9s7ut54e/ENt96lHIlkCrBbJ0/96le/8O3zvxKriUqpLEtAu21x6VIY9kIBMHP7GdN22G7Ve8uHbwDrTblQEKFqBtFx5Ka29rb2jtfeXHTtTbcr20EqBTiTpm//9a9/6RvnfiESDkmlvDaG284gKqVCoeB//vnHAw/72IiNVbm6kFt65mitheBSyofuuu7G2/53+imfFbGYArTaYmtEUopY7emnfuaNH//oF5d+r0iDmrX4K/7ymy9+7vTDjz4pqSQLBPXIY6W0OZOlJ3OwTKlgcMPa9ZN32OONlx6bMW2KWcgara/M/erTRFrofIdMDTA8fJyrPpUsE4jp5P6TBYWYytf9UQqvrMeablgmqEIXvscUjleYPQ5zmlG2YwgHwlbxuTMnTinUBDGtAWUdKwJ4twPtA7ldF516eNlD4ECWI8UgGVod7JXEqd34dht+th6/X4u/rcE/V+PqVfjnavxlDf5vHX68Eee346Qe7JJCo4TNkGKwWUHhpCFmiODoC+DdNhRFUZvfJDCtEbFgsfr0SjXVRMrMGxPxOasZs1ryjk9WuGmT8LQugVfWQjnl52neeADSN9a68A0MUJKFBd69FY+eDMZza7ruDDa5IP5HHf/P25QVHh3jmLOP9XW1zz5yR31TI3Oc0TmHWoMxwTkGeq74+++uveZyDCQ456NicBljjuNMnTzxz7/9KTIDwrK2YGFlX3a/UkoqpZSCEKiJIVqzdMXKL33twlCwceKMXV9/6x2U1P0wRyulDIdD//jTr7Z4G5LSozWXbU0U0dq2nr6f/fpP8djkeP30Bx95AoBUcnQbrnxY4Zw7UtbV1f7tDz+HdLZsUdWyg8g5amoQrV3f0fnDn/w6GmltbN3xmecWInfD3UYG0WQEKqX23Wv3Zx+/Vzu2GK2x8KIE0xnXgo3eMXvJT6d8/Fitu7//3W/oRB/nnPEtUxSeMek4orbxlz/5+Ymf+oJZ6fIOBrm1+D1223mga8U//vZ7PZCElFyILVqhXgNaiGQqNW+3g19/6x3B+Sj29uP+rCMvv48xBi0BhlW3Y/kDCPEC9Zn7LOZMwEHTccA097+9pmCHZsRCBWLUL1M0YAHr+7BgNRIZt2i8N2lY7jJ2FBqi2H0SLO5ux9uIAjIKpRUQWU68jo9jSh2cwk8ZjAbd2F9egxZsDXk96pXQB4My7k8Gm8NhkAzaJ1v54J7OssOqNSyOjX14cxm4LF7oNy7M6fWYUOv32npXnftD2s5HLHjNpSyBPSehKVo+4tOEMSSyWLgWa7uKPc3+U62Augh2aMZeU7B/bpQPmo7Z48qcMS0RZFh2O1bc7EZu+JSluYwNZZOT6IY6UuNoSohNnTJp/fLX5u+5m070bZak09o1ZIn+Sy/+rtaJz3/mtKOOOKRh8mRl22yUjtmyLKXUWZ85bfWaJdMmtCKZrCimfrTPnVLakRLReHt37x7z9z35018yOXNFbzS3zP333XOgZ9V+++yJgT7LnOGxPGDGTLoAopGU1h875pSd9z4yk8luubSADxmWEEqpY446vLNz+S5zZ2Ogf8s++Qw+iFJKRGv6MtnDDv7o/kecqLdkbsfWibkL7L3n/IGulXvtuRsGElbVY6E1YDpNJGtCwTtvuuqVlx9HJjO6vknv/mVZQmt96Q+/pXXvNVdeFgtHkEyYgIpRm0um2KUlpJSA7OvqXrtug6muUHQ8Jp3x7DNP07LjqcfunjFpPJK9xnvobWe0Dsk8OSCb1cn+WTvOXLdugwmOH61Jy3M70syXeO99Xax/1PxUpgHl7HGoC8KWUBpSQWowoD6C2eOw/zTsNxXTG2Hxgnxtf72ht9vw6jrYPjXp/0pKw+LYYwoaI/B3NBTAph6ksvlG84XzBY7C1HpMq0NpH0QTD7q0Cyu78hp07C9+z31oCaxJYFl3GQlo1Oe0Okyug1OSna5zI5IV2DRQ4GeVQEMYu0+C4PkMLf/XZIDkeL0Nb2/KOz5ZYaJ9QGB6I/adiv2mYWYz6iNgcEdZadgS9RHs2FImaYkJSKB9QYHedeuZ5WdaabWvLW2FOeOccy54xZi3slHY6Uj2yrmo3EljrlXOeTAYePnp+15+7dnxjXVI9plyG8PP7dwKoBACSiHZN3eHGc88dpfWPRd96zxzd2xpbjr+mCO5nQwEAxWcMVHJGTMWZsL41qXvLFi7fvGeO8+FneH8/XCBM+bYtqhtuv36Gz/7xfM550oVp6CaqRsKBZ9++Pa+/g0nfexo2A57X/oyMyal5PH42y+9ctixpw5WGsYcsBjhpOOVfSM+UgQfUR+gkV0r7tcUw27f3NfqauOvPP9QR9eqYw4/aERNbkZ5EG1bxOteeOyJj37izC1q97gxQGNr9Cq5/DnnoVDo+cfvXrbyzb123QnJHrPzCk2WGXckk7DtL5/96d6+Nf0dy4456vDddp134skn8GQiEAhU+IUrP2bzg8g1Retre1eqnj/++ieTJ45Hsh/pdM54s+G/he+7eBaYc45UCgOJvXbd+bF7b9J64LGHbp80cXxpwyH/wQDYf589li5aoHXi3tv+s9+e85FMIpk0f+X5e0mlx5OzHgJKYSCJZN/4cS0//v4FG9e+rXXfqwse/uhHDh2tHkiGfAxo+Y1GWou/gFdPvnsA9eEC5eSdfZNm1FyDcTFwho4BrOxGRhakuXAg6+CVdYgFMGscglZeEXrlnsxy/JoerOrNq7SsxuIuzJsA5pTTQAyOwpR6cIYVPQXaznPBruvHgIM5La5EG40espXi1k/V4Bbe3oCe9KDqc7sGTKxDmWS3nLdYMby9Bmk7X0beaNYp9a7j038mzUdshcVtGLDzxa08JBARmNqA5pr8CCrfsPr3zxn6HajCjejcGQ7Ulp30pTFPRbNuS4Tnm41NnTJp3rydRCxWYc64EEIm+idNGI/NCH2cOmXivHk7iVi8wgULSwgnMc5UUK+8VyRysZW7zpuzdvnrAG645a5//Os/Tz71PDL9QACcQ1jgzH1oUQpSQZqICj5h+rRjjz7iG1//ksl3MYcqRL5Mw5mnn/zaS68OG2NqztiUyROHnPv5gHphiT///apLL/1ld1sHi8XLVH3KtX7W2neTHvVLlTEpJSKxG2656xvnfmFPX/6pe7QAtBZC3HDLXd//wU9XLV2KmrgbQeU/EvdoeUEVJ8DtMQAAJKJJREFUlS1gWJSUIh5f+ORTd9x9/2knHe+GhPomQ+u4lnnzdhI1MVlZCxfOuUomt5s+tZJLafsZ01LdvTwaUZVtXHAuBxLjmptyBmgogsHgTrN27O/tY1alBWg55yqdrolGB9u6f2lFCHHVf2+6+OKfr1+9CrG4Ls1fGZtBdB8kah+954GHHn3q6CMPMYWiRnUPDMD0aVNGZPQsSzj9La2t44AtmIyYM1kMwLTJk5578j4ADzz0+O/++Pennnkh298NWOAclgXG3FFVCo4DrQA7EG888IC9v/C5M07/5Cc4Y47jllgxHsqLL/rm8veWs2Bg6Plj5vyMCuZ86ZEzxlzzCHz1i5/92lc+DyCZTD306JM33nLXM88vXLdiNWQKpmuO4BDC1/LAOHEklIlp01Zd04wpkw46YJ9TTz7hI0ccLDiH1t6VO0StGH+hUDPPjzrikI9+5DDz+sKXXrvjjnvue/TJ95YuT3W2mTQwMA4hILirCpBrrCDNgrUDHmqePGne3DnHHnXoEYcdtNuu88wuHCl5LgZ31NsrsEwm42nQUCiU77Rpkt/7luL2eZCZ4rxso0EjFuaMR0i4fdhRTkuZa9j8dUMf1vTkhYu/RGUsgNmtCHA32NG77LWG4OhOYnF7gdxRwA5NGBeHI90Lxm8pzOp2xwCWdBQnd3s6iXPsNB4xC7JQqG0h3P1qCI6BLN7e4Aa5lk20mtWMppqCvHUvLwSAxdGewtJ2wJdupYDZLWiI5j/lCVCuIQWW9KDHp8i9QWTAlHpMrAXgKvKis+H2imJQGhZDWmFxG5LZMuWiFBCswUmLEJsKrfztOpVSmUwGuaIkRfivq9HVoDpXXLcKV3flJXuK9mg+O5Y7RWFfDb/bSUq5qa0jMTCgNaB1OBJqbmo092zvDTCNOAotS1GH3gqPnrv3e1Z4Z3fnAGOsp7fvxFPPeuqRh6zaZqlUmYh+rcE57GwkFp8+bcqGjZv6EwNyIAmZgVv6q/y+3SCYSIRZ1ohi8y1LOL0d/77235/79Km24wRy5aCV1lqpM84675brruGxJs2YHkQoQ0kRCM6ZNXPTprbe/kQ2mUQmBdi55mxlj5YBAsEgD4XcEoaVHbDgXPb3XnDRt37/yx87UlpCVD9ehXflYVu2VLflYaf0lti+N+UApNOZU8744v133S7izWZMyw+ilMFIZMcdttuwcVN/fyKbTCGbhLuUNuQghkI8GBxR6VzOuerv/ckvLr3k+xc4jlNU3H4zLZ5rf5SuojtQ1fanauPsVX70XJJSyo1t7QMDSa01A4vFaiZOaM3fZJRSWovC4lbVTSF/fcDNOdsApFLM1/7KkEqlOrt7kgMp4+gKBgLxeKypsaFod/5GwdgMbecdjJn2pYsPnV3dfX39mazNGdPQ4XCopakpGo343+M1KNn846nI9vrXQAsa2DABJVG7Aw67CQ+dAqHycZ2eRy3j4OW1CHJs14SmKKSX216i5zSgNVrjmFiHrINlnehKu7nbpotPysaLa1EXwixfC3jXLijUR7DrhHzJIfORZZ1Y3onpLWiN5pebvcx6R6ExivkT8PZGNzxAF1oSrfD6ekyoxfZNcJxBxOAoX3CwBJZ3Y70vb535Dts4F+ePRyTg05FG/wHQEAxtKazogNb+ZvcQHDu35j+V/x4aLIxFa9GTyrdW8loiNYaxXRNClru27o8WLTgZGmAQHL0ZrOhCOlOmO4D5RTMcci1qpkA5YMJ/STiOY4RRaeKRvyzoFvCAMgB8M6rEjfR48s+mY7hTFDygF3RJ5ZyPb20BWvzv1IULQENvsOoz4H/FeBb/+JcrLvj6+VZdC2oanLKqS2suhOrv+dI3zv3Hn35VVA+vEl557c2vnPfdFxe8xCORCjv+mVu227Aud0sQQjzyyJMfPeZkEY2ipnGwWoNcCJXoP/K4jz5413X+u0iFrN+w8RvfueS2G2/lNTGlRlDS1So5LVWP17CzbvO3PPSU3hLb96bczbf975OnfEbU1qGm0a1WVjLlTCOrk8745G3X/dM0jRzRrlesXP3V87//4L0P8GjNSAaRCWs0HZ/F9oezqm9nYxOfMITJmtA6rnCICqK5eMlxbs4UGpVZ578evaMNh8MTx7eWMzgFN8HR8n8Xrc4X7QtAQ31dQ31d0UeKDmYksQmjccyZTMYkhZhWY/lDcbPUGZ7+PJb8B2KQptOeTHGA2hCmNqIuAIV86ZYix6TfjbepHyu6XIeo5w31V033v98o0bc2IC2Lm8jbwPg4tm+CkvlwVe+8c4bFbehOF3vsPM2ngR0noiUE29kySw/areXZkcR7nW7LqNIjkUBdCHNa818cuSV7aHCOlUmsb8+rdq+le8TC3PG5jC4Gpt0q+szCe21oHyj4iDnb0xsxPg5HA7pkjOBuwfxJMPSksaoL/XbxrkvmEiQw63M46Cp3N4W1M9LptIlfNmbC3ztkywlQ4n3HPNkKIf72r/987ctfF7WNQ8QkMMZ01m5sbXnrxUfHj2vxYtPL2tNSlNJaq5Wr1szd+8hsKlVJ9jpjTNtOrL721ece3GG76cYYCiEef+q5ww//OIuE9fBxaezph2/ff7+9dKHvGRVE+GmtHUfO2ePQ5YuWsGikEv8N51wl+u9/8I6jjzzEFPShOVaKmXJ33fPgicd/isXjw3jEpQpEwguf+N+uO+800ikHQCk1MJCcOf+gtrXrKyyIxhjT6fRzzzyw7967j/oSPEF8UMj3Bi1Qn0qCMax/BP/kWHotxOBxtf6emckM3tmA51bj9fXoToGzwuRrnS/5aTyUTTXYZxp2nYBIIN8H0gJ6Unh+NVZ05tPkjUgSHLtOQjxY0EhWAwGgvR+vrsl5On1lCxmD0tipFTs0DtrtkwPvrsfzKzGgIdioJSd5TlzBkchg4Rq82w5W6EX2ByHs0Ih540v2awSlwOvt2NjuLqDn7SZQG8IuE+GvCqE1AkGsSuLZFegeyLtaJRANYv5E7DMNzTVuE06vOKi/9hYDhECfwuvr8cwqvLMJKbu4w2eZ76shNJZeg39xbHjCrEvC91gWDoeLGsSXtuWkXPgPJWaF8Z9XXQceGtpFpLXmoWDXmjW/+O1lRgc4jpTSLLtpv7O8SCKYQktC8HQ687lzzs/29PBKEmy15oIj0//Fs87YYbvppmOC+cy/rr4OMjVsFz4uBFKJn//2z5wxIYSTO9zSo2VFZXqkNI9h3/zej5e/9TavieoKjlZwrvr7jj7huKOPPMQsRNLsKjuLzA//uOpaQA67FiGClt3d+Yv/+4sZkSEG0b8LbxCFEOde8IO2FSt5OFzRIAquE32nnXHKfvvsYdaFaMiIbRNm/FLBYJB5Tce0AhfY8CTuORSCF5T39AST8v3MSor4eIu8gmFiA8bXIMjdLkQlQd9uhKgGlnWgLVlQU10BO7a4i/ueSBIcK7uwth+WLxjAAYIMO08sU7Ddv6N3NqGvXPCi5x0MBrBTi9uuqerAUP/3yigs2oS0PehOJVAbxJzWYk+kf1OOxBsbkFV5AWoqsE6OY1ojvGh6N142jcWbCgbFAcZFsX2zm8xevKOcv1NwSIFNGazbhKyT93eicHy9yCI+WNgCg9I47jFMOAxKgufX4pVS2Wy2NAbUH25CTtAPGV403k57HLrkzUUsEhnep8gYA/RA/9zdd/vUaZ84+shDtt9uemNDfdm327a9YVPbU0+/cONtd997/yNIplg8VlEMqNYiEJC9HWd+8Zz//vOPXtln45E65TNfuu26G4b21+aPljGdSEyfNfOTp514/LEf2WG76eNamstOYxOS+9Irr9921313/e+B3o0bWKy2TFZTuR1xIdRAYt4euy188t5QKEj9bIeYcmax5SPHn/7IPfeJ2rphEnF8gzhz3k6fPO3Ejx1z5IxpU8e1NA0y5ZxN7e0LFr5y65333X3vg8mODh6LqwoH0bJUX+9+hx/y5AO3mgLJNIjENgtLpVKc82Aw6LpC3etE4X97Y+MrCPJ8v02DAhojmNGEAAcApZGy0Z9B5wASWUhAFMY1IqdWGyOYWo+aEKTy+TVRsArMgHW9WNvrRnkywAYm12J6Q16/ejI0ZaM3BYchGETcQkRgsDbWniIUHP0ZLG6Do/LJ4/m35bTshAZsV+vrHjQi4+f+D4JjWQc2DpRp6eTpXcEwpxXxUF5hl6ace6lLaRs9KdgKAYHaEKJBN+i2SJqv60cA0LkHhyl1mFQPzzh6y/QmGZ+ZZkgca/vQ3gudq1SgfYNoxjQeQmMUtWGELTelzJZY3omuktgGcDgK4/fB8c/nZhnzHO0m6c0oTv+/8MXxkAb9MOHlRX3t2z/62x/+ZNU2ORV2tDPuSTClFLJZ2Fm4BX5ZYUBJAOEwCwhm3llJ2nKu3r7s77762qvO+vSp/qYjjuMIIS6/8ppzv/gNHq+tNKpPa8Y550xKBdtBNgPYuXB17St1FkQoyAIBbuo5V5xkbVmW09txwUUX/v6Xl3jB+nSZDIYZxF///m/f/84PeLyuqkG0kc3kGm/wwuTNAMIhZlkjGEStwZglhNPX9ZNf/r9LLvqm40iTu02DSGyzsFQqZVmWKW3KGHP7KA6sxp27I90FXhj6acpMzmlF2QdKE7udyGBjPzoH3H6VKFEz8QCmNqA+km8Kj8JwT8FhS7Qn0DEApTGlHo3RfII2fLKs4KvALQs/pAlwE+R7Uni3vSA5Cb5DVUA4grmtsKQbT1m5CDWOz6zEWxuQLZG5/hz8WS2oDxeUTBr2yAu+Lys4sSZOtGsAq3tgcTTXoLkGAVEgUv2nWjD0ZrC6H70DZZ4ZjOgcF8P4WkQCAMqPuD++1j8SSiMUxynvITwO0P50eNu2Hcfx58KXzbYjo/xhwjx+pFLp+fsfvfTtRSwSVSPvIDdah8I45wyyv+eL5537z7/8WkplJqM/o9Y4QU/77FduueY6UddUadvlspft0K9UYEyEELK3c99DD7vvjmvr62q9QtB0jQw95YzoPOakMx+++94RN/Ie5UHkgnPZ13Hkx46/48aropEwhiw7QBDbCCyZTAYCgQIByjjS7bhrD/StKc49UkCQY+eJbiH3MvV6kBeRALqS2NCHnky+L6U/aSkWwHZNqA0VezfzPyDnqBvtMklGhm7ow/LuYp9f/rsIzJuGqFOgfYfdrODoT+PtTbnjL0EBMxrK9zcale/ll6p5lyfyuV/9Ess3lUkqMo7q2hCm1KEuAo2Cxf2CLCUvNkDhzfWwVXE6vNKINOK0VQjEvM96AtS27aJUpCHK7RIfArwADCHE+Rf++M+//Z2IN5YviLNldu/Wd4TW/b3xpnF//P3Pzv7sp0zxl8Eq+Bif6F/+8e+vf+UbLBpnQoyRaDbLwZxxxmVfv6iJ/vB737z04u8wwKsjQVfHiKbcz3972Y8uvIjXNGjO9ZgOImeMqb7ecF39pZd893vfOg80iAThgyWTSeMBhXfXVw64hefOwxt/K24Bb1DAtHpMroeTayA5hBJlzF0+Xt+LtoTrWoPPFyiBiTFMb3RLNY1lTXjGAI1FgweGcoF5kxAxBTKHa7BpfJ9JG29tGDTcMxbA3PHDuzxH/5sCPIBVPVjb5fo7/c5ODrTGMakWIctNjQcGDQbwxnRdL1Z1lynLyCykHez2Dez7J7ceky+1yHhATdZnUU3Q4s2Qgf4Q4S/Uxzn/51XX/uiSX7avW41I3AoGpMx1Z9386yIXQmpu/9K2kRoAt/baZ88ffv+Cjx//UQBmCXuIYA/vaE2a+QOPPPH1b1y49J1FCMVEKOR510braAHwXPoLkklAzZk///yvnXPWmZ8MBYPDHi0x9JQzMvT2u+775rd+sGb5UoTiIhQ0LYFHeRA548wbRD1/7z2/+fUvf+aMk037bBpEgiiCJZPJ8gWYVBb3HoQNLyHIoVSZ8vISiIUxtR71YbfEf36r5TKNALc/ZEcC6/qQdPIrvwAcYPtGTIiXyVXaYvYpvyK/vBPrE2WCNRVQE8bccWDarW867NYWbUS/jdKqGhIYX4Ptmytacx/dryk42hJ4rzOf4KVzrY8m16O5BpyVWan3Pu4hODTQk8KaHvRny1Rl0gDjsBVadsLHXwEPAq4b27sZpNNpFEpPlKQJ56ci8eGiSBMAePe95f++7ub/3ffwO4uWyIEeQMAKwrIghBAiZzl0abgNfBHDSiktJRwJ2wYyQCg+rnn+rvOO++gRJ37so7N23N69BEcoArzAZa8c6foNG2+5/Z5rb7jtrUVL0t0dACBCsCxY5mjNg1bZo0WueaqWUmkpISUcByoD8HB9046zdjj26MOPP+Yj+++7p2sRHcfbJl0LmzPligZx5eq1N9929/U33bF48XuZ3k6AQYQQqGTKlQyiI+E40BlARBqbZs/e8WPHHHn8MUfutcd8GkSCGBaWTCaVUsFgMBAI5FbhtRvd3/M27t4HTnKQNme+xXQB1IUxLob6CCwOpQsakZcGbnIGztCfwYZ+dA3A9IIaV4OZTSNY7x49EwWLY0k72gtz8JH7djPHoTUCRw3lBDUb2diPZV0F6tNLbBoXxcyWvM4by28nOJa0oT3lBkI0RjG5DjVBSF2QDVZUP9UdJg5bojeNtn70pKFRPmLB/31FSJ/0FuLbMyh/OXrGWDab9a+/F4WBkgDddvD3v1BKW76K3LZtr1y99r1lK1atWrtu/YZN7Z3dPT2JgWQ2kzU3ci54TTQaj9U0NNQ3Nza0trZMGN86feqk7WZMi8di/l14inMzZ1Th0Sp/3xop5Zq165csXW6OtqOzu6Ozqz+RSKcz3u5isRpzwBPGj2tsbJgyeeKUSRN32H56XW3cf0iOI/0NSOgK2JJTrmAQHcdZvWbdkqXLV61eu379xvbOrs7O7v5EImOmHDRjLB6L1UQj8XhsYuu4hsaGqVMmTZk8cYftptfGY/69OI4zWFw7QRBFsGQyqbUOBAI+AarAOAbW4vZ5yPQW5yF5aTqmOAnL98BzM68VEGSoi6I5jriFoIDKRROiJBsGuWhR0zdM431ITTCt/5K+9ph+JNBUj1l1Q2lHT1UvaUNnuljFmhzKeRMQCZQpETU2X9Ds1GSvF+TOs4J0LvNgYCv0ptCZQU8CtnYHl+UG1yvDJFCmkgAYlNahOE5ezKITtVasMAMpm81yzksX36kSE1EgEbTWSjNW3jvuKyDrTmITcedNoTE+WnPADBUcrVvwB6RRtsYpN7JBHOspRxAfMtzQz4JetFqBMbx6KQZ6ERLQuTJ4nvSsD2FmC0IWANfZmbLRlUR7wm1TpDR6BtA94EoWC6iPoCWG+ggEg+NLfjeF4v1JM++THULYQjiARMnqOQPSSah6N8t+MBiD1CXpOLnzFg4gZOH9qrDuhUCYrvcFCfUanEPB9XH2puFo94mC+cqPhCw0RtFUg0jAFakasB0sbisOn9UawmKJfrz+S+z3Z2aKKnj9yizLtm2U9CIrykGmy3LbxO+q5ADEUDN6y3bNHeHRDnmwW8XREhVNORpEghhDXAFa0oGGoX9lySUIaCDIMaPJrZTkEbYwsRaT6iAYshKb+tGWQEpC5Cox9aTQk3Kdpg1hTG9EJAD5futOP1JBDiIfheUq76FhwGA2zJFQGuL9+5pF3VABcIYMw4oudPUDvvunyFW5DwtMrEVLDAGeX6zXGlK748g5Zrbg9XUFbmMGQIEDiVUAM0vwfrwM0KLeMEUeULoyCYIgCOJDjCtAi2/5WqNpN6x6tPBFUxle4b0O7NQKwYrb6mhAanCGCbWYWAfBMJDFhn50JNxUa6NG+tN4ZT1qg5g7AVDvz7J7EZyhN+0q5iI0UGOBad8pKIfWsASiQfRkSzYOpBW6U2iNwdGjXE+qCsx4vb0RPRkEfDGdErCAphpMrC2IEJX+Cqy+EdfAkjY3ArjoC0uF+jnQGlqWalD4klFo6YogCIIgtkFYKpXSWodCoXxxMrNsmunEHbsgsRECZWJAHaAxiu0aELZ8VTxLpJUX5amBgQw6BtCdRFZCAa0xzGh8H1KOSg+PM2Qk3s7VjS94A8AY5k5ETLjr10NsinMMZPD2xnLnAbA4dp5QvlPo2H9lwbG8ExsTEEDIQl0YzTHEQwDKhLpq5DsnAbA4UjaWd6EnXaZ2lSkCGm3Gye8i1OBWgMplwSul0ul0UfnPohhQdyskTAmCIAjiwwtLp9MmJbAwC14DDANrcOduSHeD52pJenjxoAAaIphSj1iwIPm9tHuE97rnS9PvrxSD2wVUaby1ASmnQH16OntKI6bVwvH3g2a+FumFnmNLYEUn1vUX5CF55yokMG9Cvob/+4jWxQNROmrF6fACfSlsGEBHvxtsUNomnjEoIFSHkxchMt7fAwm5LHjTBsnLTS6SoeQWJQiCIIhtAdcD6jlBkS8FCmgJbuGZc/DGlYhY0E75+urILeAGgOY4xtWiRoCz/Bquu6utTFWYuvEpB29vcHtyFiGBuhrMagbLlax3E6c43LBH5oYQmExcrQCBrI332jBgl4kH1YBgmDv+fUuHH/aE5AcL4BwaSKTRlkFXP7KyTMdO/zRgFlIOdjkbB14JJY309PdAchwnk8n43Z9FMrRgXpIGJQiCIIgPLyyTySilPA0qhMj7Qb3leJXG0+dg8fUIMHBWUJfewy9GjWc0aqG5Bo1RRINgKNajwzYW2hL4a5FaAmt7sKqnfP6q16jJC/5E4Q8FZ7Hcv4PFespcHylbgmH0u4xWfiKKHg8EgwJSWXQl0ZlE0naz4MuKTm8znEMp2MDsz+CgK8CDruOzsAOnUZ+lLeD9vs/cgZD0JAiCIIgPOSyTyXjFzZRSgUAgGAx6a6Y+GarBBNbej+cuQOcSBAEuoOXw4snTo2GO2ggaIoiHERTlJKk5oi2gP0rbSG7qx4rOvMocM83j3+OMJrTGCqrBb6mdlpxkU2Fea2Ql+tLoSaE3hYwCfIoTg4tOBjABJZEFWnfFfn/AhMOgTfBogfQ0syiTyZiVd/NrURskf/QnLcETBEEQxLYAy2azfgEKwLhCLcsqkKEGsygPoPNVvHwJVt8DBwgCbEgxWtrf0qxgBzliIdSGURNENACLuwUmtc6taw9x4IMXhC/7ZsEgNbqSWN+LfrtMG0lsSSU62I4cIB7A5Ho0RMoELfi+QHkhOHRlUZaLuGWA0nAUkjYGMui30Z9B1nEdnLziM2BGOQtYwIyTMf8HaNodQH7BHSiSno7jmKwj/5p7adynb6BIgBIEQRDEhx9mCoN7q/D5Vg9AkQw1XSJyGKcdB4ANj2PRZVhzD1I2LMDiAFx/2GCUCjLvPw5YDCEL4QAiAUQCCAqEgghwNwqTIb9ynVdgPq+dEa+OQtpBMou+DPpy7r3B2khqryQ+AEDmNsxzoZ6sAkevzrl7vc9yIBiCknAcWKZq1SDnweQ4hQXiIdSGEQ0ibMESuf3mvKamR4D5DPMpdfOvrWBrZDJIO0grJLPIZN2ynWW/xbCC24yvVHCAUADbnYbZX0XrAb7xzX3eV9HTzBbT9Ag5felJT+9nFIZ+kvQkCIIgiG0H5jhOqfT0/2pZVjAYNEWa3M/4G2kC7hK7KfeY7cGqu7D0Omx4GBnAAgQD4+4ifnUUBWL6K3IyXya69r2IyvSWt5qclahpwdH3oGXv4r3LNGQGMgOVhUzDSea0b04CWlGIMHgQIgwRggiV+QrtC/DAcUh2ImhBOe5nMfix+RV5wZfNNabSvo/4vy82x4mbGylHu/1UWw/F9p/C9JMQbgaQ64lV4OxEYVsjU2jJ34O7yP2JcnGfBfOKIAiCIIgPO0xK6YlOFLpCvRfN6rxRokIIlLRSLGjtqBWYcNWJ3Y+2BVh1G9bcj95VbqlzV5LqCpoLjZAK19A93elISGCHT+DAyxEeB+WAW27BKV30gbI/u+egzM8sl7nj+lYdcAupTXjmy1h2FwRgVRZBu/lfdlC4G90rtVtMvn4GJh2FGaeiZR8EYu6warO8znJO2DKiE4DjONlsVkpZtLZedsG97Mo7XYoEQRAEse3AjOJEzutZ+kORGFVKmd7xgUCgvBgFXJVmlshNVVGeK4xp96NtIdY9iA1PoOsVtyg9BywTsGiW77eANvXce0ZvxRow64vY+VuItLpH6GbPwFRNH4X95fpLFeZyAYwjuR5v/gHvXolE9+g4iQeF54p9KmgNB+7ZDgo07obxB2LK8WjZE4Fa9+3KybVuZwU9rgpbtJuBllI6jmPbttdIs1RiltWjpUvtJEAJgiAIYpuCeYlH5vdhxWjR2wAIIYwYZb4EFHfrRS3IjdQz+pIH8kehHCTXo/M1dLyI7jfRtxT9y5BJ5zPoee4/NyAS+ThID+39n3Y/qHJ6SwANczBuX0w7ERMOQyDu7pTxnC+2oGKl1tqUTPe+VKkDL7/bcmLdyHrLskKhkLfZ/I60glauKLf7sOFJrL4LG59Gz7uQuWMu+L5DfFkUf1/vdAUjiE1H/WzU74TWA1A/D9EJ+ScBAMrOKdRiuVl2HLXWRnFKKVFObsKnMv1/8stT/zYp6JMgCIIgtk1YqaxEob4sVaKlv3qvGOeoEMKyLDa48yyHvxqlzndg4iWVOZUDuw/ZPtj9yLQj24tsL+wEnIFcSKJGII5ADMF6RFoRakKoEaGG4o0M6d5jjEkpTWHU4tNUTif5JZT/Oxb9bGSoF0TLGCv87iVOYkOmC9leZDqR2oBMD+x+2AP5Mk5WBIE4AnGEmxFqQqDW/bVoIwCUdD+Vz14qU3qq7BgppYyb04vTKJs8VFZ6ln3z0OeTIAiCIIhtBGaW1EsXnT1BWer7LCtPzV/N1vwfZ4wZPep5E1Eod9zjGKysEvMpVO/foSoQsRIv6VB6y1tNNiGM3oul/rkhNJP/nf4T5Z1Y86+XzoXycQsoVuTm3+G/bMn3HbzV5xBnXmtt5KbJS0NJcfii2M2iZffSN5Ttb0ReT4IgCIIg8gppMBla9OtgC/GlDtGyv3oJ0UIInmOIPeYPdOSqpXKxNVg/ngpDFf2nbrAzUHQSvLiFIb71qHzlsptSShnvppTSCwJGiWuz9Ieyjk+UZBSVdXmS9CQIgiAIwsAGWzsuouzbPDenf826aI2+6MWym/WkidGmHv5V3aoxKfye3vIOrFR0elLY+5OXXlO5eCr1gJbV4vCp+VJFvvlf2Xxr77v7ixtUUgWp6LSX/UjRcQ6hzukyI/5/e3ez3TQMRWFU4f0fmkEXWY50de0mzWmBvUchdVpkJh/6cQHgqJv1bFbMy3nTZhJ0/dL0wdvjGaCxT951lu60oXc59eE4BTu9nlair2hKfZzNEJcvxuMsY3nPyyGP/dbV8aetj+l/nKTsF9/77lScAEDv0iOHyqM2o+3IUeXXFJdNOJY/aH3/9viLH3enne5ptTZWv/J+/+N9pKd11Qfo8f1y/ri/Fcf/EpRbJsZSq6PqxWks/dznuFycT/Q6APAf+twzL6fC2H32HjdNWu3m8PoqvW0ehL67pjwHM/ZTemWTvajcCFue69rdh/L+n9bw8bLdansz3t2Xjs83ta0TAHjCSw9dLx8VeXrlaOvz4qp689P7rY3Ni+YB6dMkaz/7ONp8XO/Auutg9/FpFb4s0V0XXrktH46/dnX6yPFvKz0BgOd8zW/9OZrqp58l7Vfe++v76cArHfa+w9pXbsKVsZ/OMe+Gdvrm6aaCdcup4gQAvsTXB+hkWivvZxDvV+5OzT8zwrN16kBdlZsHmiubLZ6vD/n0SgvrAMBbvT1AV2XfrIvvrxTYdrRLBOen98oj/+/9N672J6hMAOC7fEOA9nbn3NcXo9pzWb6zO7H0t4y6HPium8tvBQDwc/y4AAUA4N/2yy0AACBJgAIAECVAAQCIEqAAAEQJUAAAogQoAABRAhQAgCgBCgBAlAAFACBKgAIAECVAAQCIEqAAAEQJUAAAogQoAABRAhQAgCgBCgBAlAAFACBKgAIAECVAAQCIEqAAAEQJUAAAogQoAABRAhQAgCgBCgBAlAAFACBKgAIAECVAAQCIEqAAAEQJUAAAogQoAABRAhQAgCgBCgBAlAAFACBKgAIAECVAAQCIEqAAAEQJUAAAogQoAABRAhQAgCgBCgBAlAAFACBKgAIAECVAAQCIEqAAAEQJUAAAogQoAABRAhQAgCgBCgBAlAAFACBKgAIAECVAAQCIEqAAAEQJUAAAogQoAABRAhQAgCgBCgBAlAAFACBKgAIAECVAAQCIEqAAAEQJUAAAogQoAABRAhQAgCgBCgBAlAAFACBKgAIAECVAAQCIEqAAAEQJUAAAogQoAABRAhQAgCgBCgBAlAAFACBKgAIAECVAAQCIEqAAAEQJUAAAogQoAABRAhQAgCgBCgBAlAAFACBKgAIAECVAAQCIEqAAAEQJUAAAogQoAABRAhQAgCgBCgBAlAAFACBKgAIAECVAAQCIEqAAAEQJUAAAogQoAABRAhQAgCgBCgBAlAAFACBKgAIAECVAAQCIEqAAAEQJUAAAogQoAABRAhQAgCgBCgBA1G8xYhTjqzgIBAAAAABJRU5ErkJggg==;" vertex="1" parent="1">
          <mxGeometry x="-390" y="640" width="172.31" height="115" as="geometry" />
        </mxCell>
        <mxCell id="qZVZ4k8KD6UxJKRXK_x_-29" value="" style="endArrow=classic;html=1;rounded=0;strokeWidth=2;" edge="1" parent="1">
          <mxGeometry width="50" height="50" relative="1" as="geometry">
            <mxPoint x="-197.5" y="682.44" as="sourcePoint" />
            <mxPoint x="80" y="681.94" as="targetPoint" />
            <Array as="points">
              <mxPoint x="-17.5" y="682.44" />
            </Array>
          </mxGeometry>
        </mxCell>
        <mxCell id="qZVZ4k8KD6UxJKRXK_x_-30" value="" style="endArrow=classic;html=1;rounded=0;strokeWidth=2;" edge="1" parent="1">
          <mxGeometry width="50" height="50" relative="1" as="geometry">
            <mxPoint x="80" y="720.3299999999999" as="sourcePoint" />
            <mxPoint x="-190" y="720" as="targetPoint" />
          </mxGeometry>
        </mxCell>
        <mxCell id="qZVZ4k8KD6UxJKRXK_x_-31" value="&lt;font style=&quot;font-size: 14px;&quot;&gt;&lt;b&gt;API Request&lt;/b&gt;&lt;/font&gt;" style="text;html=1;align=center;verticalAlign=middle;resizable=0;points=[];autosize=1;strokeColor=none;fillColor=none;" vertex="1" parent="1">
          <mxGeometry x="-130" y="690" width="110" height="30" as="geometry" />
        </mxCell>
        <mxCell id="qZVZ4k8KD6UxJKRXK_x_-32" value="&lt;font style=&quot;font-size: 14px;&quot;&gt;&lt;b&gt;Answer&lt;/b&gt;&lt;/font&gt;" style="text;html=1;align=center;verticalAlign=middle;resizable=0;points=[];autosize=1;strokeColor=none;fillColor=none;" vertex="1" parent="1">
          <mxGeometry x="-160" y="650" width="70" height="30" as="geometry" />
        </mxCell>
        <mxCell id="qZVZ4k8KD6UxJKRXK_x_-34" value="" style="endArrow=classic;html=1;rounded=0;strokeWidth=2;" edge="1" parent="1">
          <mxGeometry width="50" height="50" relative="1" as="geometry">
            <mxPoint x="-440" y="720" as="sourcePoint" />
            <mxPoint x="-640" y="720" as="targetPoint" />
          </mxGeometry>
        </mxCell>
        <mxCell id="qZVZ4k8KD6UxJKRXK_x_-35" value="" style="endArrow=classic;html=1;rounded=0;strokeWidth=2;" edge="1" parent="1">
          <mxGeometry width="50" height="50" relative="1" as="geometry">
            <mxPoint x="-640" y="680" as="sourcePoint" />
            <mxPoint x="-450.00000000000006" y="680" as="targetPoint" />
          </mxGeometry>
        </mxCell>
        <mxCell id="qZVZ4k8KD6UxJKRXK_x_-36" value="&lt;font style=&quot;font-size: 20px;&quot;&gt;GPT2&lt;/font&gt;" style="rounded=0;whiteSpace=wrap;html=1;" vertex="1" parent="1">
          <mxGeometry x="-827" y="645" width="180" height="110" as="geometry" />
        </mxCell>
        <mxCell id="qZVZ4k8KD6UxJKRXK_x_-37" value="&lt;font style=&quot;font-size: 14px;&quot;&gt;&lt;b&gt;Input&lt;/b&gt;&lt;/font&gt;" style="text;html=1;align=center;verticalAlign=middle;resizable=0;points=[];autosize=1;strokeColor=none;fillColor=none;" vertex="1" parent="1">
          <mxGeometry x="-580" y="725" width="60" height="30" as="geometry" />
        </mxCell>
        <mxCell id="qZVZ4k8KD6UxJKRXK_x_-38" value="&lt;font style=&quot;font-size: 14px;&quot;&gt;&lt;b&gt;Output&lt;/b&gt;&lt;/font&gt;" style="text;html=1;align=center;verticalAlign=middle;resizable=0;points=[];autosize=1;strokeColor=none;fillColor=none;" vertex="1" parent="1">
          <mxGeometry x="-585" y="645" width="70" height="30" as="geometry" />
        </mxCell>
      </root>
    </mxGraphModel>
  </diagram>
</mxfile>
